<svg xmlns="http://www.w3.org/2000/svg" width="542" height="213" viewBox="0 0 542 213">
    <g fill="#83ACF5" fill-rule="evenodd" opacity=".557">
        <path d="M101.094 208v-36.14H.125v-36.141c17.719-33.75 39.797-69.328 81.422-130.64h59.906v132.75h26.438v34.03h-26.438V208h-40.36zM37.39 137.969v1.125h64.547V35.172h-.844c-29.531 43.312-47.25 71.016-63.703 102.797zM270.406 212.5c-51.047 0-82.125-40.64-82.125-106.313 0-65.53 31.36-105.75 82.125-105.75 50.766 0 81.985 40.079 81.985 105.61S321.453 212.5 270.406 212.5zm0-34.031c24.188 0 38.813-26.016 38.813-72.281 0-45.844-14.766-71.72-38.813-71.72-23.906 0-38.953 26.016-38.953 71.72 0 46.124 14.766 72.28 38.953 72.28zM440.984 5.078v36.14h100.97V77.36c-17.72 33.75-39.798 69.328-81.423 130.641h-59.906V75.25h-26.438V41.219h26.438V5.079h40.36zm63.703 70.031v-1.125h-64.546v103.922h.843c29.532-43.312 47.25-71.015 63.703-102.797z"/>
    </g>
</svg>
