<svg xmlns="http://www.w3.org/2000/svg" width="205" height="275" viewBox="0 0 205 275">
    <defs>
        <linearGradient id="a" x1="-140.639%" y1="-94.274%" y2="111.53%">
            <stop offset="0%" stop-color="#8CA3F9" stop-opacity="0"/>
            <stop offset="100%" stop-color="#6C9CF1" stop-opacity=".461"/>
        </linearGradient>
    </defs>
    <path fill="url(#a)" fill-rule="evenodd" d="M68.248 154.197h32.482c29.744 0 47.81 14.599 47.81 38.686 0 22.263-19.343 37.774-46.898 37.774-29.014 0-47.262-14.599-48.905-36.861H0C2.555 242.336 41.423 275 100.912 275c60.767 0 103.65-31.387 103.65-78.65 0-36.496-25.365-60.219-64.598-63.503v-1.095c32.299-5.84 54.38-29.197 54.38-61.497C194.343 28.102 156.933 0 102.19 0 45.073 0 7.117 31.752 5.11 80.474h50.73c1.46-22.992 18.43-38.138 43.978-38.138 27.372 0 42.518 14.05 42.518 35.401 0 21.716-16.971 36.68-42.154 36.68H68.248v39.78z" opacity=".2"/>
</svg>
