<?xml version="1.0" encoding="UTF-8"?>
<svg width="394px" height="331px" viewBox="0 0 394 331" version="1.1" xmlns="http://www.w3.org/2000/svg" xmlns:xlink="http://www.w3.org/1999/xlink">
    <!-- Generator: Sketch 46.1 (44463) - http://www.bohemiancoding.com/sketch -->
    <title>7-svg1</title>
    <desc>Created with Sketch.</desc>
    <defs>
        <linearGradient x1="50%" y1="3.07428534%" x2="50%" y2="97.8156888%" id="linearGradient-1">
            <stop stop-color="#6CC3F7" offset="0%"></stop>
            <stop stop-color="#8CA3F5" offset="100%"></stop>
        </linearGradient>
    </defs>
    <g id="landing" stroke="none" stroke-width="1" fill="none" fill-rule="evenodd">
        <g id="Home-" transform="translate(-209.000000, -4208.000000)">
            <g id="Page-1" transform="translate(209.000000, 4208.000000)">
                <path d="M157,276 L236,276 C236,300 236,312 236,312 C236,312 261.538,321.144 273,326 C277.085,327.731 275.917,329 276,329 L117,329 C117,329 117.276,327.158 120,326 C130.422,321.572 157,312 157,312 L157,276 Z" id="Fill-1" fill="#E8EAEC"></path>
                <polygon id="Fill-3" fill="#CFD2D6" points="117 331 276 331 276 329 117 329"></polygon>
                <path d="M12,31 L382,31 C388.627,31 394,36.373 394,43 L394,264 C394,270.627 388.627,276 382,276 L12,276 C5.373,276 0,270.627 0,264 L0,43 C0,36.373 5.373,31 12,31" id="Fill-5" fill="#FBFBFB"></path>
                <path d="M382,0 C388.627,0 394,5.373 394,12 L394,236 C394,235.971 388.627,236 382,236 L12,236 C5.373,236 0,236.034 0,236 L0,12 C0,5.373 5.373,0 12,0 L382,0 Z" id="Fill-6" fill="#E1E1E1"></path>
                <polygon id="Fill-7" fill="#D5D5D5" points="16 220 378 220 378 16 16 16"></polygon>
                <g id="Group-47" transform="translate(16.000000, 16.000000)">
                    <g id="7-svg1">
                        <polygon id="Fill-7" fill="#FFFFFF" points="0 204 362 204 362 0 0 0"></polygon>
                        <g id="Group" transform="translate(31.000000, 72.000000)">
                            <rect id="Rectangle-18" fill="#EDEDED" x="0" y="0" width="24" height="22" rx="11"></rect>
                            <rect id="Rectangle-19" fill="#9196AD" x="31" y="2" width="17" height="3"></rect>
                            <rect id="Rectangle-19-Copy" fill="#D8D8D8" x="31" y="10" width="47" height="3"></rect>
                            <rect id="Rectangle-19-Copy-2" fill="#D8D8D8" x="31" y="16" width="47" height="3"></rect>
                        </g>
                        <g id="Group-Copy-3" transform="translate(31.000000, 111.000000)">
                            <rect id="Rectangle-18" fill="#EDEDED" x="0" y="0" width="24" height="22" rx="11"></rect>
                            <rect id="Rectangle-19" fill="#9196AD" x="31" y="2" width="17" height="3"></rect>
                            <rect id="Rectangle-19-Copy" fill="#D8D8D8" x="31" y="10" width="47" height="3"></rect>
                            <rect id="Rectangle-19-Copy-2" fill="#D8D8D8" x="31" y="16" width="47" height="3"></rect>
                        </g>
                        <g id="Group-Copy-6" transform="translate(31.000000, 154.000000)">
                            <rect id="Rectangle-18" fill="#EDEDED" x="0" y="0" width="24" height="22" rx="11"></rect>
                            <rect id="Rectangle-19" fill="#9196AD" x="31" y="2" width="17" height="3"></rect>
                            <rect id="Rectangle-19-Copy" fill="#D8D8D8" x="31" y="10" width="47" height="3"></rect>
                            <rect id="Rectangle-19-Copy-2" fill="#D8D8D8" x="31" y="16" width="47" height="3"></rect>
                        </g>
                        <g id="Group-Copy" transform="translate(140.000000, 72.000000)">
                            <rect id="Rectangle-18" fill="#EDEDED" x="0" y="0" width="24" height="22" rx="11"></rect>
                            <rect id="Rectangle-19" fill="#9196AD" x="31" y="2" width="17" height="3"></rect>
                            <rect id="Rectangle-19-Copy" fill="#D8D8D8" x="31" y="10" width="47" height="3"></rect>
                            <rect id="Rectangle-19-Copy-2" fill="#D8D8D8" x="31" y="16" width="47" height="3"></rect>
                        </g>
                        <g id="Group-Copy-4" transform="translate(140.000000, 111.000000)">
                            <rect id="Rectangle-18" fill="#EDEDED" x="0" y="0" width="24" height="22" rx="11"></rect>
                            <rect id="Rectangle-19" fill="#9196AD" x="31" y="2" width="17" height="3"></rect>
                            <rect id="Rectangle-19-Copy" fill="#D8D8D8" x="31" y="10" width="47" height="3"></rect>
                            <rect id="Rectangle-19-Copy-2" fill="#D8D8D8" x="31" y="16" width="47" height="3"></rect>
                        </g>
                        <g id="Group-Copy-7" transform="translate(140.000000, 154.000000)">
                            <rect id="Rectangle-18" fill="#EDEDED" x="0" y="0" width="24" height="22" rx="11"></rect>
                            <rect id="Rectangle-19" fill="#9196AD" x="31" y="2" width="17" height="3"></rect>
                            <rect id="Rectangle-19-Copy" fill="#D8D8D8" x="31" y="10" width="47" height="3"></rect>
                            <rect id="Rectangle-19-Copy-2" fill="#D8D8D8" x="31" y="16" width="47" height="3"></rect>
                        </g>
                        <g id="Group-Copy-2" transform="translate(249.000000, 72.000000)">
                            <rect id="Rectangle-18" fill="#EDEDED" x="0" y="0" width="24" height="22" rx="11"></rect>
                            <rect id="Rectangle-19" fill="#9196AD" x="31" y="2" width="17" height="3"></rect>
                            <rect id="Rectangle-19-Copy" fill="#D8D8D8" x="31" y="10" width="47" height="3"></rect>
                            <rect id="Rectangle-19-Copy-2" fill="#D8D8D8" x="31" y="16" width="47" height="3"></rect>
                        </g>
                        <g id="Group-Copy-5" transform="translate(249.000000, 111.000000)">
                            <rect id="Rectangle-18" fill="#EDEDED" x="0" y="0" width="24" height="22" rx="11"></rect>
                            <rect id="Rectangle-19" fill="#9196AD" x="31" y="2" width="17" height="3"></rect>
                            <rect id="Rectangle-19-Copy" fill="#D8D8D8" x="31" y="10" width="47" height="3"></rect>
                            <rect id="Rectangle-19-Copy-2" fill="#D8D8D8" x="31" y="16" width="47" height="3"></rect>
                        </g>
                        <g id="Group-Copy-8" transform="translate(249.000000, 154.000000)">
                            <rect id="Rectangle-18" fill="#EDEDED" x="0" y="0" width="24" height="22" rx="11"></rect>
                            <rect id="Rectangle-19" fill="#9196AD" x="31" y="2" width="17" height="3"></rect>
                            <rect id="Rectangle-19-Copy" fill="#D8D8D8" x="31" y="10" width="47" height="3"></rect>
                            <rect id="Rectangle-19-Copy-2" fill="#D8D8D8" x="31" y="16" width="47" height="3"></rect>
                        </g>
                        <polygon id="Fill-7" fill="url(#linearGradient-1)" points="0 53 362 53 362 0 0 0"></polygon>
                        <path d="M31.40625,18.0898438 L38.2851562,18.0898438 C41.7539062,18.0898438 44.1445312,20.3984375 44.1445312,23.8789062 C44.1445312,27.3476562 41.671875,29.6679688 38.109375,29.6679688 L34.9453125,29.6679688 L34.9453125,35 L31.40625,35 L31.40625,18.0898438 Z M34.9453125,20.890625 L34.9453125,26.9023438 L37.3359375,26.9023438 C39.3632812,26.9023438 40.546875,25.8242188 40.546875,23.890625 C40.546875,21.96875 39.375,20.890625 37.3476562,20.890625 L34.9453125,20.890625 Z M50.7890625,32.7265625 C52.2773438,32.7265625 53.5078125,31.7539062 53.5078125,30.3945312 L53.5078125,29.4804688 L50.859375,29.6445312 C49.5820312,29.7382812 48.8554688,30.3125 48.8554688,31.203125 C48.8554688,32.140625 49.6289062,32.7265625 50.7890625,32.7265625 Z M49.6640625,35.1992188 C47.2734375,35.1992188 45.4570312,33.6523438 45.4570312,31.390625 C45.4570312,29.1054688 47.2148438,27.78125 50.34375,27.59375 L53.5078125,27.40625 L53.5078125,26.5742188 C53.5078125,25.4023438 52.6875,24.7226562 51.3984375,24.7226562 C50.1210938,24.7226562 49.3125,25.3554688 49.1484375,26.28125 L46.0195312,26.28125 C46.1484375,23.84375 48.2226562,22.1679688 51.5507812,22.1679688 C54.7734375,22.1679688 56.8710937,23.8320312 56.8710937,26.3632812 L56.8710937,35 L53.5664062,35 L53.5664062,33.078125 L53.4960937,33.078125 C52.7929688,34.4140625 51.234375,35.1992188 49.6640625,35.1992188 Z M59.9882812,19.5429688 L59.9882812,22.4375 L58.21875,22.4375 L58.21875,25.015625 L59.9882812,25.015625 L59.9882812,31.6132812 C59.9882812,34.0625 61.1367188,35.046875 64.0898438,35.046875 C64.78125,35.046875 65.3671875,34.9882812 65.71875,34.90625 L65.71875,32.3867188 C65.5078125,32.421875 65.1914062,32.4453125 64.8867188,32.4453125 C63.8789062,32.4453125 63.4101562,31.9882812 63.4101562,31.0273438 L63.4101562,25.015625 L65.7304688,25.015625 L65.7304688,22.4375 L63.4101562,22.4375 L63.4101562,19.5429688 L59.9882812,19.5429688 Z M67.6054688,35 L71.0273438,35 L71.0273438,27.9804688 C71.0273438,26.2109375 72.0117188,25.1796875 73.6992188,25.1796875 C74.1914062,25.1796875 74.6601562,25.2617188 74.9414062,25.3789062 L74.9414062,22.3671875 C74.7070312,22.296875 74.3671875,22.2382812 73.96875,22.2382812 C72.4921875,22.2382812 71.4257812,23.1054688 70.9804688,24.6992188 L70.9101562,24.6992188 L70.9101562,22.4375 L67.6054688,22.4375 L67.6054688,35 Z M82.1015625,35.2695312 C78.3046875,35.2695312 75.8789062,32.8320312 75.8789062,28.7070312 C75.8789062,24.640625 78.3398438,22.1679688 82.1015625,22.1679688 C85.8632812,22.1679688 88.3242188,24.6289062 88.3242188,28.7070312 C88.3242188,32.84375 85.8984375,35.2695312 82.1015625,35.2695312 Z M82.1015625,32.65625 C83.7773438,32.65625 84.84375,31.2382812 84.84375,28.71875 C84.84375,26.2226562 83.765625,24.78125 82.1015625,24.78125 C80.4375,24.78125 79.3476562,26.2226562 79.3476562,28.71875 C79.3476562,31.2382812 80.4140625,32.65625 82.1015625,32.65625 Z M90.0820312,35 L93.5039062,35 L93.5039062,27.7929688 C93.5039062,26.1640625 94.4765625,25.0390625 96.0117187,25.0390625 C97.546875,25.0390625 98.3203125,25.9765625 98.3203125,27.6171875 L98.3203125,35 L101.742187,35 L101.742187,26.9023438 C101.742187,23.9609375 100.171875,22.203125 97.3828125,22.203125 C95.4492187,22.203125 94.125,23.1171875 93.4570312,24.6757812 L93.3867187,24.6757812 L93.3867187,22.4375 L90.0820312,22.4375 L90.0820312,35 Z M115.511719,22.4375 L112.089844,22.4375 L112.089844,29.6328125 C112.089844,31.296875 111.140625,32.3867188 109.617188,32.3867188 C108.105469,32.3867188 107.273438,31.4960938 107.273438,29.8203125 L107.273438,22.4375 L103.851562,22.4375 L103.851562,30.5351562 C103.851562,33.4648438 105.65625,35.234375 108.375,35.234375 C110.273438,35.234375 111.515625,34.3203125 112.136719,32.7382812 L112.207031,32.7382812 L112.207031,35 L115.511719,35 L115.511719,22.4375 Z M117.527344,26.1289062 C117.527344,27.9804688 118.746094,29.2226562 121.125,29.7617188 L123.445312,30.2773438 C124.570312,30.546875 124.992188,30.8984375 124.992188,31.53125 C124.992188,32.3515625 124.207031,32.8671875 122.90625,32.8671875 C121.546875,32.8671875 120.714844,32.2578125 120.550781,31.203125 L117.210938,31.203125 C117.398438,33.6523438 119.460938,35.2695312 122.8125,35.2695312 C126.128906,35.2695312 128.402344,33.640625 128.402344,31.1679688 C128.402344,29.2929688 127.382812,28.296875 124.863281,27.734375 L122.460938,27.21875 C121.359375,26.9609375 120.820312,26.5390625 120.820312,25.9179688 C120.820312,25.109375 121.59375,24.5703125 122.777344,24.5703125 C124.042969,24.5703125 124.851562,25.1914062 124.921875,26.1992188 L128.074219,26.1992188 C128.027344,23.7617188 125.976562,22.1679688 122.824219,22.1679688 C119.601562,22.1679688 117.527344,23.7382812 117.527344,26.1289062 Z" id="Patronus" fill="#FFFFFF"></path>
                    </g>
                </g>
                <path d="M199,9 C199,10.104 198.104,11 197,11 C195.896,11 195,10.104 195,9 C195,7.896 195.896,7 197,7 C198.104,7 199,7.896 199,9 Z" id="Fill-8" fill="#CFD2D4"></path>
            </g>
        </g>
    </g>
</svg>