<svg xmlns="http://www.w3.org/2000/svg" width="75" height="100" viewBox="0 0 75 100">
    <defs>
        <linearGradient id="a" x1="-86.643%" x2="111.788%" y1="127.681%" y2="8.149%">
            <stop offset="0%" stop-color="#5DC7FF"/>
            <stop offset="100%" stop-color="#CCD7FF"/>
        </linearGradient>
    </defs>
    <g fill="none" fill-rule="evenodd">
        <path fill="url(#a)" d="M72.175 100H2.42A2.419 2.419 0 0 1 0 97.582V2.418A2.419 2.419 0 0 1 2.42 0h69.755a2.419 2.419 0 0 1 2.42 2.418v95.164a2.419 2.419 0 0 1-2.42 2.418"/>
        <path fill="#FFF" d="M6.405 93.985h62.162V6.391H6.405z"/>
        <path stroke="#CED0D5" stroke-linejoin="round" stroke-width="7" d="M23.735 0v9.774h26.371V0"/>
        <path fill="#EDEEEE" d="M20.72 3.383h32.777V0H20.721z"/>
        <g fill="#CBC9C9">
            <path d="M20.935 69.843a2.581 2.581 0 0 1-2.586 2.576 2.581 2.581 0 0 1-2.586-2.576 2.581 2.581 0 0 1 2.586-2.576 2.581 2.581 0 0 1 2.586 2.576"/>
            <path d="M15.763 69.843s-.26-2.018.7-2.81c.96-.793 1.88-.533 2.621-.42 1.382.21 1.637-.145 1.637-.145s.73 1.357-.606 2.734c-1.336 1.375-4.352.64-4.352.64M23.269 77.38c0 2.264-2.203 2.293-4.92 2.293-2.716 0-4.919-.03-4.919-2.292 0-2.264 2.203-4.099 4.92-4.099 2.716 0 4.919 1.835 4.919 4.099M26.372 68.984h11.93V67.79h-11.93zM26.372 72.269h34.163v-1.194H26.372zM26.372 75.554h34.163V74.36H26.372zM26.372 78.84h34.163v-1.194H26.372z"/>
        </g>
        <g fill="#CBC9C9">
            <path d="M20.935 48.038a2.581 2.581 0 0 1-2.586 2.577 2.581 2.581 0 0 1-2.586-2.577 2.581 2.581 0 0 1 2.586-2.576 2.581 2.581 0 0 1 2.586 2.576"/>
            <path d="M15.763 48.038s-.26-2.017.7-2.81c.96-.793 1.88-.532 2.621-.42 1.382.21 1.637-.144 1.637-.144s.73 1.357-.606 2.733c-1.336 1.376-4.352.641-4.352.641M23.269 55.576c0 2.263-2.203 2.292-4.92 2.292-2.716 0-4.919-.029-4.919-2.292s2.203-4.098 4.92-4.098c2.716 0 4.919 1.835 4.919 4.098M26.372 47.179h11.93v-1.194h-11.93zM26.372 50.464h34.163v-1.193H26.372zM26.372 53.75h34.163v-1.194H26.372zM26.372 57.035h34.163v-1.194H26.372z"/>
        </g>
        <g fill="#CBC9C9">
            <path d="M20.935 25.858a2.581 2.581 0 0 1-2.586 2.576 2.581 2.581 0 0 1-2.586-2.576 2.581 2.581 0 0 1 2.586-2.576 2.581 2.581 0 0 1 2.586 2.576"/>
            <path d="M15.763 25.858s-.26-2.018.7-2.81c.96-.793 1.88-.533 2.621-.42 1.382.21 1.637-.145 1.637-.145s.73 1.357-.606 2.734c-1.336 1.375-4.352.64-4.352.64M23.269 33.396c0 2.263-2.203 2.292-4.92 2.292-2.716 0-4.919-.03-4.919-2.292 0-2.264 2.203-4.099 4.92-4.099 2.716 0 4.919 1.835 4.919 4.099M26.372 24.999h11.93v-1.194h-11.93zM26.372 28.284h34.163V27.09H26.372zM26.372 31.57h34.163v-1.195H26.372zM26.372 34.855h34.163V33.66H26.372z"/>
        </g>
    </g>
</svg>
