<svg xmlns="http://www.w3.org/2000/svg" width="142" height="80" viewBox="0 0 142 80">
    <defs>
        <linearGradient id="a" x1="52.044%" x2="52.044%" y1="240.686%" y2="-23.243%">
            <stop offset="0%" stop-color="#5DC7FF"/>
            <stop offset="100%" stop-color="#CCD7FF"/>
        </linearGradient>
    </defs>
    <g fill="none" fill-rule="evenodd">
        <path fill="#EDEEEE" d="M16.23 0h107.767a3.667 3.667 0 0 1 3.666 3.667v68.2c0 2.024-.004 3.666 0 3.666h-115.1c.004 0 0-1.642 0-3.667v-68.2A3.666 3.666 0 0 1 16.23 0z"/>
        <path fill="url(#a)" d="M16.616 70.66H122.8V4.873H16.616z"/>
        <path fill="#CED0D5" d="M1.832 75.94h137.373c1.012 0 1.832.908 1.832 2.03 0 1.12-2.652 2.03-3.663 2.03H3.664C2.651 80 0 79.09 0 77.97c0-1.122.82-2.03 1.832-2.03"/>
        <path fill="#E1E3E3" d="M0 78.376h141.037v-2.843H0z"/>
        <path fill="#CED0D5" d="M78.432 75.536c.601 0 1.813-.007 1.813 0 0 .587-.85 1.215-1.45 1.215H61.026c-.6 0-1.45-.628-1.45-1.215.76.01 18.856 0 18.856 0"/>
        <path fill="#FFF" d="M37.69 70.66h64.44V4.873H37.69z"/>
        <path fill="#CBC9C9" d="M46.202 13.807h14.995V12.59H46.202zM46.202 19.492h49.444v-1.218H46.202zM46.202 24.772h49.444v-1.219H46.202zM46.202 30.05h49.444v-1.218H46.202zM46.202 35.736h49.444v-1.218H46.202zM46.202 41.015h49.444v-1.218H46.202zM46.202 46.294h49.444v-1.218H46.202zM46.202 51.98h49.444V50.76H46.202zM46.202 57.259h49.444V56.04H46.202zM46.202 62.944h49.444v-1.218H46.202z"/>
    </g>
</svg>
