<svg xmlns="http://www.w3.org/2000/svg" width="58" height="89" viewBox="0 0 58 89">
    <defs>
        <linearGradient id="a" x1="86.884%" x2="-30.832%" y1="12.755%" y2="181.275%">
            <stop offset="0%" stop-color="#B0AFB7"/>
            <stop offset="100%" stop-color="#787780"/>
        </linearGradient>
        <linearGradient id="b" x1="135.59%" x2="28.532%" y1="21.526%" y2="100%">
            <stop offset="0%" stop-color="#EEE"/>
            <stop offset="100%" stop-color="#D9D9D9"/>
        </linearGradient>
        <linearGradient id="c" x1="76.128%" x2="0%" y1="50%" y2="100%">
            <stop offset="0%" stop-color="#F4F4F4"/>
            <stop offset="100%" stop-color="#E5E5E5"/>
        </linearGradient>
        <linearGradient id="d" x1="113.013%" x2="-37.857%" y1="28.882%" y2="127.532%">
            <stop offset="0%" stop-color="#FFFDE3"/>
            <stop offset="38.023%" stop-color="#FFEA8D"/>
            <stop offset="100%" stop-color="#FFCD00"/>
        </linearGradient>
        <linearGradient id="e" x1="50%" x2="-368.709%" y1="5.861%" y2="373.488%">
            <stop offset="0%" stop-color="#FFFDE3"/>
            <stop offset="38.023%" stop-color="#FFEA8D"/>
            <stop offset="100%" stop-color="#FFCD00"/>
        </linearGradient>
    </defs>
    <g fill="none" fill-rule="nonzero">
        <path fill="url(#a)" d="M41.902 75.975c0 7.197-5.841 13.039-13.039 13.039-7.198 0-13.04-5.842-13.04-13.04a2.582 2.582 0 0 1 2.609-2.607h20.862a2.582 2.582 0 0 1 2.608 2.608z"/>
        <path fill="url(#b)" d="M47.118 68.151v2.608a7.813 7.813 0 0 1-7.824 7.824H18.432a7.813 7.813 0 0 1-7.824-7.824v-2.608l5.216-5.563h26.078l5.216 5.563z"/>
        <path fill="url(#c)" d="M47.118 57.372v10.78h-36.51v-10.78l4.903-5.215h26.704z"/>
        <path fill="url(#d)" d="M57.55 28.686c0 7.563-2.922 14.656-8.19 20.028-1.408 1.513-2.242 3.703-2.242 5.477v3.181h-36.51v-3.181c0-1.826-.834-4.016-2.295-5.477C1.742 41.986-1.023 32.702.646 23.366 2.68 12.1 11.547 2.973 22.708.626A30.793 30.793 0 0 1 28.863 0c6.624 0 12.935 2.243 18.098 6.415A28.63 28.63 0 0 1 57.55 28.686z"/>
        <path fill="url(#e)" d="M28.863 31.294a2.582 2.582 0 0 1 2.608 2.608 2.582 2.582 0 0 1-2.608 2.608c-1.043 0-1.982-.626-2.4-1.617a2.625 2.625 0 0 0-3.442-1.356c-1.304.573-1.93 2.086-1.356 3.39a7.812 7.812 0 0 0 4.59 4.329v16.116h5.216V41.256c3.025-1.095 5.215-3.964 5.215-7.354a7.813 7.813 0 0 0-7.823-7.824 2.582 2.582 0 0 1-2.608-2.608 2.582 2.582 0 0 1 2.608-2.607c1.043 0 1.982.626 2.4 1.617a2.625 2.625 0 0 0 3.441 1.356c1.304-.574 1.93-2.087 1.357-3.39a7.812 7.812 0 0 0-4.59-4.33V13.04a2.582 2.582 0 0 0-2.608-2.608 2.582 2.582 0 0 0-2.608 2.608v3.077c-3.025 1.096-5.216 3.964-5.216 7.354a7.813 7.813 0 0 0 7.824 7.824z"/>
    </g>
</svg>
