<svg xmlns="http://www.w3.org/2000/svg" width="90" height="90" viewBox="0 0 90 90">
    <defs>
        <linearGradient id="a" x1="115.644%" x2="-19.965%" y1="-28.212%" y2="100%">
            <stop offset="0%" stop-color="#FFF7F2"/>
            <stop offset="100%" stop-color="#FFEBDF"/>
        </linearGradient>
        <linearGradient id="b" x1="211.09%" x2="-35.46%" y1="-10.041%" y2="100%">
            <stop offset="0%" stop-color="#E6E5E8"/>
            <stop offset="100%" stop-color="#C8C6CD"/>
        </linearGradient>
        <linearGradient id="c" x1="110.737%" x2="0%" y1="54.819%" y2="50%">
            <stop offset="0%" stop-color="#FAD6BE"/>
            <stop offset="100%" stop-color="#FFD7E3"/>
        </linearGradient>
        <linearGradient id="d" x1="198.329%" x2="-19.778%" y1="0%" y2="100%">
            <stop offset="0%" stop-color="#F4F4F4"/>
            <stop offset="100%" stop-color="#E5E5E5"/>
        </linearGradient>
    </defs>
    <g fill="none" fill-rule="evenodd">
        <path fill="url(#a)" fill-rule="nonzero" d="M84.548 60.236a5.884 5.884 0 0 1-5.894 5.894h-5.262a5.884 5.884 0 0 1 5.893 5.893c0 3.316-2.63 5.947-5.893 5.947h-5.263c3.263 0 5.894 2.631 5.894 5.946a5.884 5.884 0 0 1-5.894 5.894H50.343c-7.368-1.842-3.053-.79-21.05-5.262V42.449c.053 0 11.367-3.052 16.945-5.894 4.947-2.473 8.367-11.208 9.157-17.681a2.746 2.746 0 0 1 1.263-1.947c.473-.263 1-.368 1.578-.316.21-.052.474 0 .684.106 4.316 1.578 7 5.999 6.315 10.577-1.105 7.314-2.158 9.893-4.105 15.155h17.524a5.884 5.884 0 0 1 5.894 5.894c0 3.315-2.631 5.946-5.894 5.946 3.263 0 5.894 2.632 5.894 5.947z"/>
        <path fill="url(#b)" fill-rule="nonzero" d="M13.156 84.548H2.63A2.63 2.63 0 0 1 0 81.917V45.08a2.63 2.63 0 0 1 2.631-2.63h10.525a2.63 2.63 0 0 1 2.63 2.63v36.837a2.63 2.63 0 0 1-2.63 2.63z"/>
        <g fill="url(#c)" fill-rule="nonzero" transform="translate(26.662)">
            <path d="M34.205 2.631v5.613a2.606 2.606 0 0 1-2.631 2.631 2.606 2.606 0 0 1-2.631-2.63V2.63A2.605 2.605 0 0 1 31.573 0a2.605 2.605 0 0 1 2.632 2.631zM12.968 17.04l-3.72-3.72a2.63 2.63 0 1 1 3.72-3.722l3.72 3.721a2.63 2.63 0 1 1-3.72 3.72zM7.893 34.556H2.631A2.63 2.63 0 0 1 0 31.925a2.63 2.63 0 0 1 2.631-2.632h5.262a2.63 2.63 0 0 1 2.632 2.632 2.63 2.63 0 0 1-2.632 2.63zM60.517 34.556h-5.263a2.63 2.63 0 0 1-2.631-2.631 2.63 2.63 0 0 1 2.631-2.632h5.263a2.63 2.63 0 0 1 2.63 2.632 2.63 2.63 0 0 1-2.63 2.63zM46.459 17.04a2.63 2.63 0 0 1 0-3.72l3.72-3.722A2.63 2.63 0 1 1 53.9 13.32l-3.72 3.72a2.63 2.63 0 0 1-3.721 0z"/>
        </g>
        <path fill="url(#d)" fill-rule="nonzero" d="M24.031 89.81H13.156a2.631 2.631 0 0 1-2.631-2.631v-44.73h21.4v39.468a7.893 7.893 0 0 1-7.894 7.893z"/>
    </g>
</svg>
