<svg xmlns="http://www.w3.org/2000/svg" width="79" height="100" viewBox="0 0 79 100">
    <defs>
        <linearGradient id="a" x1="-37.598%" x2="113.665%" y1="122.844%" y2="-25.006%">
            <stop offset="0%" stop-color="#5DC7FF"/>
            <stop offset="100%" stop-color="#CCD7FF"/>
        </linearGradient>
        <linearGradient id="b" x1="-57.842%" x2="189.005%" y1="680.712%" y2="-551.336%">
            <stop offset="0%" stop-color="#5DC7FF"/>
            <stop offset="100%" stop-color="#CCD7FF"/>
        </linearGradient>
    </defs>
    <g fill="none" fill-rule="evenodd">
        <path fill="url(#a)" d="M7.303 0h64.045a7.303 7.303 0 0 1 7.304 7.303v85.23a7.303 7.303 0 0 1-7.304 7.303H7.303A7.303 7.303 0 0 1 0 92.532V7.303A7.303 7.303 0 0 1 7.303 0z"/>
        <path fill="#FFF" d="M71.27 2.627a4.644 4.644 0 0 1 4.639 4.648v85.063a4.643 4.643 0 0 1-4.639 4.648H7.26a4.644 4.644 0 0 1-4.638-4.648V7.275A4.644 4.644 0 0 1 7.26 2.627h64.01z"/>
        <path fill="#CDCDCD" d="M39.497 89.549a2.09 2.09 0 0 1 2.087 2.092 2.09 2.09 0 0 1-2.087 2.091 2.09 2.09 0 0 1-2.087-2.091 2.09 2.09 0 0 1 2.087-2.092"/>
        <path fill="#EDEEEE" d="M10.043 87.225h58.444V11.459H10.043z"/>
        <path fill="#CED0D5" d="M10.043 23.888H58.68v-6.88H10.043zM10.043 37.646h22.833v-6.88H10.043z"/>
        <path fill="url(#b)" d="M21.256 52.223H57.96v-6.88H21.256z"/>
        <path fill="#CED0D5" d="M10.043 52.223h4.29v-6.88h-4.29zM64.131 52.223h4.29v-6.88h-4.29zM50.978 79.739H68.42v-6.88H50.978zM10.043 79.739h32.848v-6.88H10.043zM35.278 65.98H68.42v-6.878H35.278zM10.043 65.98h17.65v-6.878h-17.65zM41.942 37.646h26.545v-6.88H41.942z"/>
        <path stroke="#77BAF7" d="M21.256 54.122c1.16 0 1.16 1.163 2.32 1.163 1.161 0 1.168-1.163 2.322-1.163"/>
        <path stroke="#77BAF7" d="M25.774 54.122c1.16 0 1.16 1.163 2.32 1.163s1.167-1.163 2.321-1.163"/>
        <path stroke="#77BAF7" d="M30.291 54.122c1.16 0 1.16 1.163 2.32 1.163 1.161 0 1.168-1.163 2.322-1.163"/>
        <path stroke="#77BAF7" d="M34.808 54.122c1.161 0 1.161 1.163 2.321 1.163 1.16 0 1.167-1.163 2.321-1.163"/>
        <path stroke="#77BAF7" d="M39.326 54.122c1.16 0 1.16 1.163 2.32 1.163 1.161 0 1.168-1.163 2.322-1.163"/>
        <path stroke="#77BAF7" d="M43.843 54.122c1.16 0 1.16 1.163 2.321 1.163 1.16 0 1.167-1.163 2.32-1.163"/>
        <path stroke="#77BAF7" d="M48.36 54.122c1.161 0 1.161 1.163 2.321 1.163 1.161 0 1.168-1.163 2.321-1.163"/>
        <path stroke="#77BAF7" d="M52.878 54.122c1.16 0 1.16 1.163 2.32 1.163 1.161 0 1.168-1.163 2.322-1.163"/>
    </g>
</svg>
