<svg xmlns="http://www.w3.org/2000/svg" width="67" height="100" viewBox="0 0 67 100">
    <defs>
        <linearGradient id="a" x1="112.291%" x2="-211.149%" y1="-87.902%" y2="100%">
            <stop offset="0%" stop-color="#5DC7FF"/>
            <stop offset="100%" stop-color="#CCD7FF"/>
        </linearGradient>
        <linearGradient id="b" x1="-60.603%" x2="116.349%" y1="207.464%" y2="-19.57%">
            <stop offset="0%" stop-color="#5DC7FF"/>
            <stop offset="100%" stop-color="#CCD7FF"/>
        </linearGradient>
    </defs>
    <g fill="none" fill-rule="evenodd">
        <path fill="url(#a)" d="M30.017 92.952h7.022V73.32h-7.022z"/>
        <path fill="#EDEEEE" d="M45.635 91.564a7.73 7.73 0 0 1 7.732 7.728.59.59 0 0 1-.59.59H14.278a.59.59 0 0 1-.59-.59 7.73 7.73 0 0 1 7.732-7.728h24.215z"/>
        <path fill="url(#b)" d="M58.723 45.307c0 13.609-11.37 24.64-25.394 24.64S7.936 58.916 7.936 45.307V37.03h50.787v8.277zm-.568-16.21H8.702c-4.806 0-8.702 3.895-8.702 8.7v6.471c0 18.454 14.966 33.415 33.429 33.415 18.462 0 33.428-14.96 33.428-33.415v-6.472c0-4.804-3.896-8.698-8.702-8.698z"/>
        <path fill="#EDEEEE" d="M37.46 66.578h-7.07c-9.005 0-16.304-7.297-16.304-16.298V16.298C14.086 7.297 21.386 0 30.39 0h7.07c9.004 0 16.304 7.297 16.304 16.298V50.28c0 9-7.3 16.298-16.305 16.298"/>
        <path fill="#CED0D5" d="M43.275 15.308a3.683 3.683 0 1 1-7.368-.002 3.683 3.683 0 0 1 7.368.002M37.608 27.994a3.683 3.683 0 1 1-7.365-.001 3.683 3.683 0 0 1 7.365.001M48.658 27.994a3.683 3.683 0 1 1-7.366-.001 3.683 3.683 0 0 1 7.366.001M43.275 53.435a3.683 3.683 0 1 0-7.368.002 3.683 3.683 0 0 0 7.368-.002M37.608 40.75a3.683 3.683 0 1 0-7.365.001 3.683 3.683 0 0 0 7.365-.002M48.658 40.75a3.683 3.683 0 1 0-7.366.001 3.683 3.683 0 0 0 7.366-.002M24.574 15.308a3.683 3.683 0 1 0 7.368-.002 3.683 3.683 0 0 0-7.368.002M19.191 27.994a3.683 3.683 0 1 0 7.366-.001 3.683 3.683 0 0 0-7.366.001M24.574 53.435a3.683 3.683 0 1 1 7.368.002 3.683 3.683 0 0 1-7.368-.002M19.191 40.75a3.683 3.683 0 1 1 7.366.001 3.683 3.683 0 0 1-7.366-.002"/>
    </g>
</svg>
