<svg xmlns="http://www.w3.org/2000/svg" width="377" height="488" viewBox="0 0 371 478">
    <defs>
        <linearGradient id="a" x1="110.737%" x2="0%" y1="54.819%" y2="50%">
            <stop offset="0%" stop-color="#FAD6BE"/>
            <stop offset="100%" stop-color="#FFD7E3"/>
        </linearGradient>
        <linearGradient id="b" x1="-26.365%" x2="114.316%" y1="71.48%" y2="71.48%">
            <stop offset="0%" stop-color="#FFBDDA"/>
            <stop offset="100%" stop-color="#FFC2AC"/>
        </linearGradient>
        <linearGradient id="c" x1="-57.357%" x2="112.291%" y1="44.935%" y2="44.935%">
            <stop offset="0%" stop-color="#5DC7FF"/>
            <stop offset="100%" stop-color="#CCD7FF"/>
        </linearGradient>
        <linearGradient id="d" x1="38.975%" x2="120.587%" y1="50%" y2="30.091%">
            <stop offset="0%" stop-color="#417DE2"/>
            <stop offset="100%" stop-color="#5B76D5"/>
        </linearGradient>
        <linearGradient id="e" x1="70.529%" x2="70.529%" y1="0%" y2="73.552%">
            <stop offset="0%" stop-color="#A9C3F8"/>
            <stop offset="100%" stop-color="#7E9BF1"/>
        </linearGradient>
        <linearGradient id="f" x1="105.013%" x2="50%" y1="14.672%" y2="97.816%">
            <stop offset="0%" stop-color="#D3EEFF"/>
            <stop offset="100%" stop-color="#8CA3F5"/>
        </linearGradient>
        <linearGradient id="g" x1="83.316%" x2="-62.588%" y1="29.544%" y2="200.736%">
            <stop offset="0%" stop-color="#5F93EC"/>
            <stop offset="100%" stop-color="#8CA3F5"/>
        </linearGradient>
        <linearGradient id="h" x1="50%" x2="50%" y1="3.074%" y2="97.816%">
            <stop offset="0%" stop-color="#6C9FF7"/>
            <stop offset="100%" stop-color="#8CA3F5"/>
        </linearGradient>
        <linearGradient id="i" x1="111.952%" x2="-28.772%" y1="28.158%" y2="87.346%">
            <stop offset="0%" stop-color="#C0DDFB"/>
            <stop offset="100%" stop-color="#8CA3F5"/>
        </linearGradient>
        <linearGradient id="j" x1="50%" x2="50%" y1="3.074%" y2="97.816%">
            <stop offset="0%" stop-color="#B6C8FA"/>
            <stop offset="100%" stop-color="#8CA3F5"/>
        </linearGradient>
        <linearGradient id="k" x1="-19.354%" x2="125.979%" y1="43.317%" y2="59.967%">
            <stop offset="0%" stop-color="#5181E5"/>
            <stop offset="100%" stop-color="#8CA3F5"/>
        </linearGradient>
        <linearGradient id="l" x1="131.734%" x2="-5.788%" y1="21.59%" y2="73.605%">
            <stop offset="0%" stop-color="#C0D0FB"/>
            <stop offset="100%" stop-color="#8CA3F5"/>
        </linearGradient>
    </defs>
    <g fill="none" fill-rule="evenodd">
        <path fill="#9EEFE7" d="M233.138 355H306V3h-73.105L142 66.18v66.35l89.676-61.96h1.462z" opacity=".184"/>
        <path fill="#FFEBDF" d="M33.34 99.819s-15.209 41.92-20.683 64.057c-5.473 22.137-2.867 28.874 0 36.572 2.868 7.7 20.684 38.819 20.684 38.819l8.81-20.851s-13.473-25.28-12.51-35.097c.962-9.818 12.51-43.505 12.51-43.505M91.007 438.305v-.003c1.512-7.593 20.72-101.098 22.135-129.39 1.408-28.139-41.706-.758-45.666 1.815a.492.492 0 0 0-.217.53c.923 4.397 10.381 50.593 8.373 90.1l-.803 35.874c-.01.075-.019.152-.024.232-.2 3.106-2.337 9.358-6.408 18.755 0 0-1.395 5.27 6.248 5.685 6.527.358 38.899 1.816 48.206 2.235a2.756 2.756 0 0 0 2.853-2.372 4.369 4.369 0 0 0-3.031-4.773l-5.608-1.738c-9.818-3.042-27.957-9.41-26.058-16.95z"/>
        <path fill="#FFE2D1" d="M103.517 296.32c-12.596-.534-33.351 12.66-36.041 14.407a.492.492 0 0 0-.217.53c.648 3.088 5.506 26.792 7.646 54.317 7.608-9.815 17.288-24.064 26.317-32.856 2.813-2.739 6.304-5.731 10.472-8.977.744-5.905 1.256-10.977 1.448-14.83.2-4.003-.5-6.882-1.861-8.869l-7.764-3.722z"/>
        <path fill="url(#a)" d="M36.993 110.695s-14.648 3.232-25.633-6.031C.373 95.4-5.012 83.984 6.19 61.366c11.2-22.619 16.422-19.174 19.627-30.804 3.207-11.633 7.488-24.338 24.936-28.433C68.2-1.96 84.588-.316 94.736 8.445c14.442 12.464 15.086 26.173 18.04 32.923 2.951 6.752 10.15 11.692 10.625 20.955.472 9.264-8.975 16.19-7.25 25.668 1.723 9.478 8.085 21.842-6.993 28.95-15.08 7.11-65.486 0-72.165-6.246"/>
        <path fill="url(#b)" d="M26.33 73.973c10.389-12.284 5.94-32.658 11.334-37.6 5.392-4.945 12.482.88 12.482.88l1.949 12.608 4.763 11.585 28.29-36.229s15.758 13.992 12.504 32.044c-2.395 13.284-13.49 20.774-17.535 24.435-4.046 3.66-4.623 15.408 0 23.883 4.622 8.474-36.404 2.312-36.404 2.312l.628-3.706-4.033 7.217c-1.242-.563-2.203-1.128-2.801-1.688 0 0-9.813 2.154-19.4-2.14-.751-1.638-1.543-3.709-2.316-6.335-2.996-10.187.15-14.98 10.539-27.266"/>
        <path fill="#FFEBDF" d="M48.415 85.186s7.05-10.56 0-24.776c-7.052-14.218-10.499-19.604-7.267-23.913 3.23-4.308 10.77 1.508 12.494 4.739 1.723 3.232 1.938 4.309 1.938 4.309s1.509-9.91 8.186-13.14c6.678-3.23 15.193-10.34 15.193-10.34s10.328 2.911 15.145 15.567c4.732 12.428 1.85 24.38-4.817 31.393-4.25 4.472-18.197 9.263-18.628 13.786-.43 4.525 1.955 11.924 1.955 11.924l-17.896 4.018s-8.132-9.562-6.303-13.567M40.177 377.588c-8.511 16.737-25.377 55.256-29.737 64.748-.605 1.32 1.467-1.961 2.876-1.609 9.677 5.016 14.516 7.14 14.516 6.373 0-1.151-.87-1.132-.951-2.318-.067-.972.604-1.979.95-2.446 8.095-10.895 52.073-71.994 57.2-120.235 5.647-53.16-36.88-10.965-36.88-10.965s1.993 46.848-7.974 66.452z"/>
        <path fill="url(#c)" d="M48.077 85.109s-.741 2.309 10.876 2.309c0 0 10.85.083 19.668 12.358 7.928 11.033 23.154 24.832 23.928 37.224.775 12.392-7.744 26.074 0 44.147 7.745 18.07 22.978 50.6 26.076 59.379 3.098 8.776 15.748 43.37 16.006 54.215.258 10.842-12.134 15.231-18.847 16.264-6.712 1.032-52.455 9.294-77.73 6.97-25.279-2.325-36.637-4.647-35.347-18.589 1.291-13.94 18.33-72.544 23.752-94.23 5.42-21.686 11.36-43.115 4.388-56.28-6.97-13.167-10.583-26.85-9.81-40.791.383-6.879 4.646-15.748 17.04-22.976"/>
        <path fill="#FFF" d="M141.078 255.502l-4.238 15.816c-.482 1.799-2.316 2.87-4.095 2.393l-38.212-10.239c-1.78-.477-2.832-2.321-2.35-4.12l4.238-15.815c.482-1.799 2.315-2.87 4.095-2.393l38.212 10.239c1.78.477 2.832 2.321 2.35 4.12z"/>
        <path fill="#FFEBDF" d="M12.265 440.254l13.21 3.383 7.68 8.98a42.677 42.677 0 0 0 8.412 7.54l11.735 7.99c2.464 1.884 2.261 5.729-.385 7.329a16.224 16.224 0 0 1-16.137.41l-29.803-16.05c-3.778-1.523-5.038-6.36-2.502-9.606l7.79-9.976zM60.116 157.099s-9.915-34.331-11.46-43.954c-1.544-9.622 2.587-18.597 9.379-20.287 6.792-1.69 16.626 1.822 21.186 15.086 4.563 13.265 3.788 42.133 6.905 50.975 3.118 8.843 20.543 43.693 26.007 53.318 5.46 9.622 12.484 24.186 14.824 30.688 2.34 6.503 4.421 14.045 3.641 18.986-.78 4.942-3.795 3.054-3.902 1.82l-.491-6.058s-3.311 11.761-10.103 14.602c-6.018 2.516-13.333 2.9-12.812-4.642.52-7.542 10.143-26.009 6.241-34.33-3.9-8.323-33.81-41.093-33.81-41.093s-10.143-9.364-15.605-35.111"/>
        <g>
            <path fill="url(#d)" d="M146.577 83.045l-18.084 78.058-94.16-31.099 2.183-49.759 55.186-4.976z" transform="translate(165 152)"/>
            <path fill="url(#e)" d="M10.564 59.596l68.353-21.301 2.955 41.67-2.955 3.11-44.898 46.335z" transform="translate(165 152)"/>
            <path fill="url(#f)" d="M178.229 45.742s2.466-32.838-31.148-42.727c-33.614-9.889-54.231 6.57-64.276 20.168-10.043 13.597 64.276 46.046 64.276 46.046l10.178 3.4 20.97-26.887z" transform="translate(165 152)"/>
            <path fill="url(#g)" d="M79.58 83.852s-13.66-46.151 7.653-64.86c21.315-18.71 48.003-8.307 62.61 12.784 14.606 21.09 2.774 63.3 2.774 63.3L79.58 83.853z" transform="translate(165 152)"/>
            <path fill="url(#h)" d="M193.975 92.436l2.781 74.668-28.408 40.217-15.169-49.822z" transform="translate(165 152)"/>
            <path fill="url(#i)" d="M121.487 103.785l56.665-58.164s18.552-6.194 26.9 17.657c8.347 23.851-41.176 88.581-41.176 88.581l-42.389-48.074z" transform="translate(165 152)"/>
            <path fill="url(#j)" d="M63.063 176.949l-45.47-13.702-3.449-57.3S-6.058 87.014 1.825 70.072c7.885-16.94 33.016-14.948 39.42 0 6.407 14.948 5.914 46.837 5.914 46.837 5.897 25.22 11.129 38.568 15.695 40.043 11.201 3.618 11.271 10.284.21 19.997z" transform="translate(165 152)"/>
            <path fill="url(#k)" d="M118.54 139.241l2.947 54.874-72.728-22.013-1.22-55.897z" transform="translate(165 152)"/>
            <path fill="url(#l)" d="M169.757 114.288c-6.475-11.406-21.868-23.503-41.289-15.072-19.42 8.43-9.958 40.166-9.958 40.166l2.975 54.339 45.825 13.6-3.19-54.766s15.372-22.62 5.637-38.267" transform="translate(165 152)"/>
        </g>
    </g>
</svg>
