<svg xmlns="http://www.w3.org/2000/svg" width="308" height="399" viewBox="0 0 307 399">
    <defs>
        <linearGradient id="a" x1="50%" x2="50%" y1="3.074%" y2="97.816%">
            <stop offset="0%" stop-color="#5380CE"/>
            <stop offset="100%" stop-color="#8CA3F5"/>
        </linearGradient>
        <linearGradient id="b" x1="50%" x2="50%" y1="3.074%" y2="97.816%">
            <stop offset="0%" stop-color="#6C9FF7"/>
            <stop offset="100%" stop-color="#8CA3F5"/>
        </linearGradient>
        <linearGradient id="c" x1="105.013%" x2="50%" y1="14.672%" y2="97.816%">
            <stop offset="0%" stop-color="#D3EEFF"/>
            <stop offset="100%" stop-color="#8CA3F5"/>
        </linearGradient>
        <linearGradient id="d" x1="83.316%" x2="-62.588%" y1="29.544%" y2="200.736%">
            <stop offset="0%" stop-color="#5F93EC"/>
            <stop offset="100%" stop-color="#8CA3F5"/>
        </linearGradient>
        <linearGradient id="e" x1="111.952%" x2="-28.772%" y1="28.158%" y2="87.346%">
            <stop offset="0%" stop-color="#C0DDFB"/>
            <stop offset="100%" stop-color="#8CA3F5"/>
        </linearGradient>
        <linearGradient id="f" x1="50%" x2="50%" y1="3.074%" y2="97.816%">
            <stop offset="0%" stop-color="#B6C8FA"/>
            <stop offset="100%" stop-color="#8CA3F5"/>
        </linearGradient>
        <linearGradient id="g" x1="-19.354%" x2="125.979%" y1="43.317%" y2="59.967%">
            <stop offset="0%" stop-color="#5181E5"/>
            <stop offset="100%" stop-color="#8CA3F5"/>
        </linearGradient>
        <linearGradient id="h" x1="110.737%" x2="0%" y1="54.819%" y2="50%">
            <stop offset="0%" stop-color="#FFEBDF"/>
            <stop offset="97.7%" stop-color="#FFEBDF"/>
        </linearGradient>
        <linearGradient id="i" x1="110.737%" x2="0%" y1="54.819%" y2="50%">
            <stop offset="0%" stop-color="#FAD6BE"/>
            <stop offset="100%" stop-color="#FFD7E3"/>
        </linearGradient>
        <linearGradient id="j" x1="151.03%" x2="0%" y1="44.728%" y2="50%">
            <stop offset="0%" stop-color="#FAD6BE"/>
            <stop offset="100%" stop-color="#FFB3CA"/>
        </linearGradient>
        <linearGradient id="k" x1="-57.357%" x2="112.291%" y1="44.935%" y2="44.935%">
            <stop offset="0%" stop-color="#5DC7FF"/>
            <stop offset="100%" stop-color="#CCD7FF"/>
        </linearGradient>
        <linearGradient id="l" x1="131.734%" x2="-5.788%" y1="21.59%" y2="73.605%">
            <stop offset="0%" stop-color="#C0D0FB"/>
            <stop offset="100%" stop-color="#8CA3F5"/>
        </linearGradient>
    </defs>
    <g fill="none" fill-rule="evenodd">
        <path fill="#6CC4F7" d="M30 118.736v1.22h68.293v-1.22c0-32.461 25.122-56.38 59.268-56.38 32.683 0 55.854 20.99 55.854 47.35 0 24.406-10.976 42.223-46.586 77.857L34.146 315.454V365H290v-58.576H131.22v-1.465l85.853-82.739c38.78-38.562 68.049-71.512 68.049-115.444C285.122 47.956 234.146 5 160 5 83.17 5 30 52.105 30 118.736z" opacity=".101"/>
        <path fill="url(#a)" d="M215.906 182.92l-26.664 115.383-138.828-45.97 3.218-73.552 81.365-7.355z"/>
        <path fill="url(#b)" d="M15.59 149.13l101.48-31.488 4.387 61.6-4.387 4.596-66.658 68.496z"/>
        <path fill="url(#c)" d="M265.093 127.754s4.596-52.406-45.51-67.116c-50.108-14.71-81.762 13.332-96.735 33.559-14.971 20.227 95.815 68.494 95.815 68.494l15.171 5.057 31.26-39.994z"/>
        <path fill="url(#d)" d="M117.07 183.839s-20.378-68.037 11.416-95.618c31.796-27.582 71.606-12.245 93.396 18.847 21.788 31.091 4.137 93.318 4.137 93.318L117.07 183.84z"/>
        <path fill="url(#b)" d="M286.699 196.25l4.137 110.788-42.255 59.672-22.562-73.923z"/>
        <path fill="url(#e)" d="M180.845 214.072l84.249-86.318s27.581-9.192 39.994 26.204c12.41 35.396-61.22 131.459-61.22 131.459l-63.023-71.345z"/>
        <path fill="url(#f)" d="M94.207 320.705l-67.925-20.243-5.153-84.65s-30.179-27.971-18.402-53c11.778-25.025 49.32-22.083 58.888 0 9.57 22.084 8.833 69.194 8.833 69.194 8.809 37.259 16.624 56.978 23.447 59.157 16.732 5.345 16.836 15.192.312 29.542z"/>
        <path fill="url(#g)" d="M176.444 265.865l4.4 80.658-108.573-32.356-1.822-82.162z"/>
        <path fill="#FFEBDF" d="M85.918 366.03s-1.536 10.287-1.877 12.675c-.33 2.303-1.424 8.144-8.664 10.759-7.24 2.613-12.87 10.658-21.918 9.451-9.05-1.208-11.463-6.035-7.441-10.458 4.021-4.425 18.506-11.404 23.057-18.759 3.015-4.87 4.825-7.93 4.825-7.93l12.018 4.262zM55.057 239.165c-.016 10.23 3.54 21.757 16.108 42.803 14.795 24.772 37.349 52.502 40.967 57.121.317.406 1.764 1.175 2.214.924l8.48-4.906c.49-.271.252-1.337 0-1.84-3.433-6.854-25.615-53.217-28.072-61.244-2.773-9.06-6.255-26.038-5.8-35.331.451-9.295-17.576-15.263-17.576-15.263s-16.3 4.697-16.32 17.736z"/>
        <path fill="#F9DBCA" d="M97.173 277.931c4.354 10.254 13.062 28.816 19.206 41.691-1.595 4.468-3.31 10.46-5.143 17.978-3.639-4.584-14.177-17.742-24.921-32.937 2.086-9.508 5.705-18.418 10.858-26.732z"/>
        <path fill="url(#h)" d="M116.355 263.528S99.129 280.073 93.009 297.3c-5.502 15.484-17.034 57.211-19.385 65.07-.228.764-.208 5.71.548 5.962l9.07-1.117c.676.225 2.177.048 2.52-.578 2.228-4.078 12.308-20.002 18.127-27.18 6.8-8.386 7.746-21.643 14.492-31.278 7.197-10.28 17.239-14.868 17.239-14.868l-19.265-29.783z"/>
        <path fill="url(#i)" d="M205.424 115.33s19.996 25.156 39.056 0c19.058-25.155-12.187-44.047-19.528-56.517-7.342-12.472-9.842-38.88-22.027-48.952-12.186-10.075-39.207-14.147-56.705.555-17.497 14.703-23.397 39.932-28.403 48.923-5.005 8.99-27.065 35.437-8.198 60.613 18.868 25.177 95.805-4.622 95.805-4.622"/>
        <path fill="url(#j)" d="M199.758 76.812c-8.016-10.773-2.052-32.502-10.44-37.269-8.39-4.77-13.562 5.644-13.562 5.644l-14.818 15.375-.86 11.39-7.232-44.436S138.796 38.13 136 54.203c-2.797 16.073 2.051 29.85 0 37.092-2.051 7.242-3.17 13.59-3.17 13.59l22.745-2.998 6.343-10.638 24.417 16.122s30.573 6.535 30.573-5.484c0-12.018-9.134-14.302-17.15-25.075"/>
        <path fill="#FFEBDF" d="M184.594 91.895s-11.966-2.037-9.88-9.62c2.085-7.583 12.473-13.088 15.974-20.935 3.501-7.847 4.68-16.34 1.398-20.88-4.29-5.929-10.244-4.755-12.904-.849l-1.924 2.826s2.239-8.725-5.554-14.12c-7.296-5.05-20.036-6.866-26.86 4.127-6.823 10.995-7.46 19.643-6.852 27.556.605 7.914 9.606 16.625 14.019 18.624 4.104 1.858 4.516 7.21 1.67 10.24-2.841 3.035-15.687 9.131-15.687 9.131l-2.89 21.957 51.145-1.705-1.655-26.352z"/>
        <path fill="url(#k)" d="M211.092 93.144l-26.498-1.248s-8.87 20.02-25.129 21.784c-16.259 1.767-19.369-14.056-19.369-14.056-.3-.971-.506-2.405-.506-2.405l-11.994 3.538s-1.904 21.16-1.904 28.222c0 6.35.151 8.15.151 8.15s.515 15.299.515 32.006c0 16.712-7.049 23.984-10.95 27.616-3.902 3.638-15.35 11.373-24.633 14.158-9.282 2.784-22.278 10.52-22.278 10.52s11.759 20.42 23.515 30.632c11.759 10.211 28.544 25.19 32.798 35.273 2.903 6.88 5.314 18.329 6.9 23.355.721 2.29 3.51 3.175 5.395 1.688.646-.508 23.893-20.402 32.255-38.656 8.362-18.257 15.517-33.077 16.89-49.8 1.372-16.726 6.632-51.607 11.273-63.407 4.641-11.8 13.237-43.853 13.569-67.37"/>
        <path fill="#FFEBDF" d="M122.473 332.649s8.722 8.943 12.02 15.178c3.857 7.296-3.307 8.803-4.607 17.66-1.09 7.413-1.555 18.168-7.12 18.664-5.084.45-12.235-.472-10.288-12.542 2.705-16.773 4.992-19.478 2.739-25.086-2.556-6.363-3.45-7.931-3.45-7.931l10.706-5.943z"/>
        <path fill="url(#l)" d="M252.08 228.599c-9.56-16.913-32.292-34.852-60.97-22.35-28.68 12.5-14.706 59.562-14.706 59.562l4.393 80.578 67.67 20.167-4.71-81.21s22.7-33.545 8.324-56.747"/>
        <path fill="#FFF" d="M164.582 233.524l-4.803 12.617c-.588 1.426-2.49 1.974-4.232 1.227l-35.332-15.64c-1.55-.71-2.012-2.38-1.047-3.733l8.104-11.975c.879-1.37 2.684-1.937 4.048-1.263l31.344 14.865c1.556.71 2.422 2.46 1.918 3.902z"/>
        <path fill="#FFEBDF" d="M245.385 167.729v-.007c0-.01-.004-.02-.006-.03l-.005-.026c-.045-.278-.114-.61-.2-.982-.022-.102-.036-.194-.06-.297-.007-.023-.017-.043-.025-.065-1.774-7.297-9.56-28.658-9.56-28.658s-10.917-30.195-15.824-38.222c-4.908-8.027-12.605-7.43-16.68-4.063-4.076 3.368-4.166 7.935-4.166 7.935s-2.586 20.254 7.735 34.519c7.913 10.934 12.353 20.608 16.318 27.304l-.22.045c-9.71 2.059-23.561 9.992-30.9 18.72-7.34 8.729-8.596 20.505-6.413 27.45 2.182 6.94 17.175 9.995 21.23 2.768 4.053-7.23-.215-18.302 5.537-23.063 5.754-4.76 10.561-7.593 14.253-8.771 4.36-1.392 9.196-2.503 13.644-4.17 4.364-1.636 6.431-4.19 5.342-10.387M127.595 100.756s-14.031 4.756-26.723 16.624c-6.143 5.745-12.509 12.377-18.911 15.253-6.95 3.126-30.734 17.52-30.734 17.52l-14.28 6.937s-13.723 8.572-13.723 18.442c0 3.212 6.095 10.987 11.337 7.654 5.428-3.451 9.205-10.653 9.205-10.653s-.441 6.168 2.887 5.74c2.867-.37 4.043-8.649 4.043-8.649s.457-3.202 4.362-6.49c7.164-4.825 33.509-13.601 43.819-20.987 7.755-5.552 26.222-10.343 26.991-12.545l1.727-28.846z"/>
        <path stroke="#FFF" stroke-linecap="round" d="M148.497 158.018c27.098-31.958-21.67-56.302-10.527-102.567"/>
        <path fill="#FFEBDF" d="M174.609 81.941c2.085-7.582 4.783-48.562-3.01-53.956-7.296-5.05-20.036-6.867-26.86 4.126-6.823 10.995-7.46 19.643-6.852 27.556.605 7.914 9.606 16.625 14.019 18.624 4.104 1.859 20.617 11.234 22.703 3.65z"/>
        <path stroke="#FFF" stroke-linecap="round" d="M123.91 221.75c-3.148-7.77-3.665-15.97-1.548-24.602 3.124-12.738 10.89-21.892 26.135-39.13 22.82-25.805 44.385-58.993 40.638-107.476"/>
    </g>
</svg>
