<?xml version="1.0" encoding="UTF-8"?>
<svg width="143px" height="40px" viewBox="0 0 143 40" version="1.1" xmlns="http://www.w3.org/2000/svg" xmlns:xlink="http://www.w3.org/1999/xlink">
    <!-- Generator: Sketch 46.1 (44463) - http://www.bohemiancoding.com/sketch -->
    <title>1-logo</title>
    <desc>Created with Sketch.</desc>
    <defs>
        <path d="M19.6851204,39.1475927 C7.60690829,39.1475927 2.70618343,35.1149834 0.576520442,22.5376729 C-1.5531432,9.96035359 4.78800663,2.28318232 11.7664994,0.82318232 C18.7449923,-0.63681768 23.8054586,-0.116662983 28.634895,2.08152486 C35.5769503,5.24130387 39.3054365,11.8183646 39.3054365,19.4799912 C39.3054365,32.4716066 31.763337,39.1475927 19.6851204,39.1475927 Z M19.4324994,36.9675735 C27.8954696,36.9675735 34.9456133,30.1539028 34.9456133,21.4954099 C34.9456133,17.2265635 33.1117569,13.8036243 30.2889061,10.8474696 C27.3908066,7.81250829 23.9054144,5.61239779 19.4324994,5.61239779 C10.9695337,5.61239779 4.10894365,12.6314917 4.10894365,21.2899823 C4.10894365,29.9484773 10.9695337,36.9675735 19.4324994,36.9675735 Z" id="path-1"></path>
        <linearGradient x1="27.1238096%" y1="23.0884558%" x2="27.1238096%" y2="176.611694%" id="linearGradient-3">
            <stop stop-color="#FFFFFF" offset="0%"></stop>
            <stop stop-color="#77F8FF" offset="100%"></stop>
        </linearGradient>
        <path d="M19.6851204,39.1475927 C7.60690829,39.1475927 2.70618343,35.1149834 0.576520442,22.5376729 C-1.5531432,9.96035359 4.78800663,2.28318232 11.7664994,0.82318232 C18.7449923,-0.63681768 23.8054586,-0.116662983 28.634895,2.08152486 C35.5769503,5.24130387 39.3054365,11.8183646 39.3054365,19.4799912 C39.3054365,32.4716066 31.763337,39.1475927 19.6851204,39.1475927 Z M19.4324994,36.9675735 C27.8954696,36.9675735 34.9456133,30.1539028 34.9456133,21.4954099 C34.9456133,17.2265635 33.1117569,13.8036243 30.2889061,10.8474696 C27.3908066,7.81250829 23.9054144,5.61239779 19.4324994,5.61239779 C10.9695337,5.61239779 4.10894365,12.6314917 4.10894365,21.2899823 C4.10894365,29.9484773 10.9695337,36.9675735 19.4324994,36.9675735 Z" id="path-4"></path>
        <linearGradient x1="35.5910603%" y1="33.8322129%" x2="70.4496496%" y2="26.5798546%" id="linearGradient-6">
            <stop stop-color="#FFFFFF" offset="0%"></stop>
            <stop stop-color="#77F8FF" offset="100%"></stop>
        </linearGradient>
        <path d="M36.2530608,21.6267669 C36.1870939,31.8138122 30.3369945,38.3748336 20.6520155,38.3748336 C15.0360751,38.3748336 8.46156685,36.6287476 4.60888177,31.3466983 C1.81741569,27.5195867 0.116048994,23.8337812 0.116048994,18.3077856 C0.116048994,11.375116 1.53857282,6.91496133 4.60888177,4.01387845 C7.3636221,1.41096133 11.5377061,0.0150718232 15.6533017,0.0150718232 C24.3559558,0.0150718232 36.3190276,11.4397127 36.2530608,21.6267669 Z M19.6192044,34.6403558 C28.1290387,34.6403558 35.2182541,27.9963956 35.2182541,19.553558 C35.2182541,15.3910497 33.374232,12.0533481 30.5357569,9.17082873 C27.6215912,6.21144751 24.116884,4.06614365 19.6192044,4.06614365 C11.1093613,4.06614365 4.21077127,10.9104088 4.21077127,19.3532464 C4.21077127,27.796084 11.1093613,34.6403558 19.6192044,34.6403558 Z" id="path-7"></path>
        <linearGradient x1="26.2733658%" y1="23.9982309%" x2="26.2733658%" y2="177.521469%" id="linearGradient-9">
            <stop stop-color="#FFFFFF" offset="0%"></stop>
            <stop stop-color="#6CE4FD" offset="100%"></stop>
        </linearGradient>
        <path d="M36.2530608,21.6267669 C36.1870939,31.8138122 30.3369945,38.3748336 20.6520155,38.3748336 C15.0360751,38.3748336 8.46156685,36.6287476 4.60888177,31.3466983 C1.81741569,27.5195867 0.116048994,23.8337812 0.116048994,18.3077856 C0.116048994,11.375116 1.53857282,6.91496133 4.60888177,4.01387845 C7.3636221,1.41096133 11.5377061,0.0150718232 15.6533017,0.0150718232 C24.3559558,0.0150718232 36.3190276,11.4397127 36.2530608,21.6267669 Z M19.6192044,34.6403558 C28.1290387,34.6403558 35.2182541,27.9963956 35.2182541,19.553558 C35.2182541,15.3910497 33.374232,12.0533481 30.5357569,9.17082873 C27.6215912,6.21144751 24.116884,4.06614365 19.6192044,4.06614365 C11.1093613,4.06614365 4.21077127,10.9104088 4.21077127,19.3532464 C4.21077127,27.796084 11.1093613,34.6403558 19.6192044,34.6403558 Z" id="path-10"></path>
        <linearGradient x1="18.6733391%" y1="40.264033%" x2="49.8445231%" y2="26.1092504%" id="linearGradient-12">
            <stop stop-color="#FFFFFF" offset="0%"></stop>
            <stop stop-color="#6CE4FD" offset="100%"></stop>
        </linearGradient>
        <path d="M22.0594917,1.46839779 C21.2622099,1.31118232 20.4302365,1.22746961 19.5605724,1.22746961 C11.1781878,1.22746961 4.38292155,8.15776796 4.38292155,16.7067227 C4.38292155,25.2556751 11.1781878,32.1859713 19.5605724,32.1859713 C27.9429613,32.1859713 34.925989,25.4585039 34.925989,16.9095514 C34.925989,12.7679779 33.1721547,9.43279558 30.4584972,6.54892818 C33.2890387,9.21093923 35.3285967,12.7153812 35.3285967,17.1100155 C35.3285967,24.1858011 33.1022099,31.6488552 29.0057901,33.6374356 C26.6380331,34.9431191 22.3191381,36.4373346 14.8069901,34.9632024 C7.29483315,33.4890696 0.301621657,26.8744354 0.164112486,17.6549856 C0.0558742541,10.3980331 1.15075006,7.38735912 3.41764862,4.97381215 C5.70542099,2.53801105 10.1545215,0.318209945 15.1674166,0.0476022099 C16.7378387,-0.0371712707 19.2903845,0.426651934 22.0594917,1.46839779 Z" id="path-13"></path>
        <linearGradient x1="26.8558797%" y1="25.8127436%" x2="26.8558797%" y2="179.335982%" id="linearGradient-15">
            <stop stop-color="#DBF1FF" offset="0%"></stop>
            <stop stop-color="#5EBCFF" offset="100%"></stop>
        </linearGradient>
        <path d="M22.0594917,1.46839779 C21.2622099,1.31118232 20.4302365,1.22746961 19.5605724,1.22746961 C11.1781878,1.22746961 4.38292155,8.15776796 4.38292155,16.7067227 C4.38292155,25.2556751 11.1781878,32.1859713 19.5605724,32.1859713 C27.9429613,32.1859713 34.925989,25.4585039 34.925989,16.9095514 C34.925989,12.7679779 33.1721547,9.43279558 30.4584972,6.54892818 C33.2890387,9.21093923 35.3285967,12.7153812 35.3285967,17.1100155 C35.3285967,24.1858011 33.1022099,31.6488552 29.0057901,33.6374356 C26.6380331,34.9431191 22.3191381,36.4373346 14.8069901,34.9632024 C7.29483315,33.4890696 0.301621657,26.8744354 0.164112486,17.6549856 C0.0558742541,10.3980331 1.15075006,7.38735912 3.41764862,4.97381215 C5.70542099,2.53801105 10.1545215,0.318209945 15.1674166,0.0476022099 C16.7378387,-0.0371712707 19.2903845,0.426651934 22.0594917,1.46839779 Z" id="path-16"></path>
        <linearGradient x1="26.8558797%" y1="56.5508996%" x2="69.2964931%" y2="37.8667841%" id="linearGradient-18">
            <stop stop-color="#DBF1FF" offset="0%"></stop>
            <stop stop-color="#5EBCFF" offset="100%"></stop>
        </linearGradient>
    </defs>
    <g id="landing" stroke="none" stroke-width="1" fill="none" fill-rule="evenodd">
        <g id="Home-" transform="translate(-119.000000, -15.000000)">
            <g id="Group-16" transform="translate(-39.000000, 0.000000)">
                <g id="Group-63" transform="translate(158.000000, 15.000000)">
                    <g id="Group-2">
                        <g id="patBot" style="mix-blend-mode: multiply;">
                            <g id="Group-7" transform="translate(0.662983, 0.000000)">
                                <g id="Group-3">
                                    <mask id="mask-2" fill="white">
                                        <use xlink:href="#path-1"></use>
                                    </mask>
                                    <g id="Clip-2"></g>
                                    <polygon id="Fill-1" fill="url(#linearGradient-3)" mask="url(#mask-2)" points="-22.320442 113.370166 60.5524862 113.370166 60.5524862 -34.0331492 -22.320442 -34.0331492"></polygon>
                                </g>
                                <g id="Group-6">
                                    <mask id="mask-5" fill="white">
                                        <use xlink:href="#path-4"></use>
                                    </mask>
                                    <g id="Clip-5"></g>
                                    <polygon id="Fill-4" fill="url(#linearGradient-6)" mask="url(#mask-5)" points="-22.320442 113.370166 60.5524862 113.370166 60.5524862 -34.0331492 -22.320442 -34.0331492"></polygon>
                                </g>
                            </g>
                            <g id="Group-14" transform="translate(0.000000, 1.325967)">
                                <g id="Group-10">
                                    <mask id="mask-8" fill="white">
                                        <use xlink:href="#path-7"></use>
                                    </mask>
                                    <g id="Clip-9"></g>
                                    <polygon id="Fill-8" fill="url(#linearGradient-9)" mask="url(#mask-8)" points="-21.6574586 112.044199 61.2154696 112.044199 61.2154696 -35.359116 -21.6574586 -35.359116"></polygon>
                                </g>
                                <g id="Group-13">
                                    <mask id="mask-11" fill="white">
                                        <use xlink:href="#path-10"></use>
                                    </mask>
                                    <g id="Clip-12"></g>
                                    <polygon id="Fill-11" fill="url(#linearGradient-12)" mask="url(#mask-11)" points="-21.6574586 112.044199 61.2154696 112.044199 61.2154696 -35.359116 -21.6574586 -35.359116"></polygon>
                                </g>
                            </g>
                            <g id="Group-21" transform="translate(0.441989, 3.977901)">
                                <g id="Group-17">
                                    <mask id="mask-14" fill="white">
                                        <use xlink:href="#path-13"></use>
                                    </mask>
                                    <g id="Clip-16"></g>
                                    <polygon id="Fill-15" fill="url(#linearGradient-15)" mask="url(#mask-14)" points="-22.0994475 109.392265 60.7734807 109.392265 60.7734807 -38.0110497 -22.0994475 -38.0110497"></polygon>
                                </g>
                                <g id="Group-20">
                                    <mask id="mask-17" fill="white">
                                        <use xlink:href="#path-16"></use>
                                    </mask>
                                    <g id="Clip-19"></g>
                                    <polygon id="Fill-18" fill="url(#linearGradient-18)" mask="url(#mask-17)" points="-22.0994475 109.392265 60.7734807 109.392265 60.7734807 -38.0110497 -22.0994475 -38.0110497"></polygon>
                                </g>
                            </g>
                        </g>
                        <path d="M55.0546875,14.7265625 L58.890625,14.7265625 C61.046875,14.7265625 62.5078125,16.140625 62.5078125,18.234375 C62.5078125,20.328125 61.03125,21.75 58.8828125,21.75 L56.1171875,21.75 L56.1171875,26 L55.0546875,26 L55.0546875,14.7265625 Z M56.1171875,15.6796875 L56.1171875,20.796875 L58.640625,20.796875 C60.375,20.796875 61.4140625,19.8359375 61.4140625,18.234375 C61.4140625,16.6328125 60.3828125,15.6796875 58.640625,15.6796875 L56.1171875,15.6796875 Z M72.3012153,26 L71.0512153,22.546875 L66.3168403,22.546875 L65.0668403,26 L63.9340278,26 L68.1527778,14.7265625 L69.2152778,14.7265625 L73.4262153,26 L72.3012153,26 Z M68.6605903,16.046875 L66.6371528,21.625 L70.7309028,21.625 L68.7074653,16.046875 L68.6605903,16.046875 Z M78.8914931,26 L78.8914931,15.6953125 L82.6180556,15.6953125 L82.6180556,14.7265625 L74.1024306,14.7265625 L74.1024306,15.6953125 L77.8211806,15.6953125 L77.8211806,26 L78.8914931,26 Z M86.8020834,15.6796875 L86.8020834,20.4375 L89.6302084,20.4375 C91.2708334,20.4375 92.2239584,19.5625 92.2239584,18.0546875 C92.2239584,16.5625 91.2317709,15.6796875 89.5911459,15.6796875 L86.8020834,15.6796875 Z M86.8020834,21.3828125 L86.8020834,26 L85.7395834,26 L85.7395834,14.7265625 L89.7161459,14.7265625 C91.9192709,14.7265625 93.3255209,16.015625 93.3255209,18.0234375 C93.3255209,19.6171875 92.4192709,20.8203125 90.9114584,21.2109375 L93.6458334,26 L92.3958334,26 L89.8020834,21.3828125 L86.8020834,21.3828125 Z M101.501736,14.546875 C104.642361,14.546875 106.626736,16.796875 106.626736,20.3671875 C106.626736,23.9375 104.650174,26.1796875 101.501736,26.1796875 C98.3611112,26.1796875 96.3845487,23.9375 96.3845487,20.3671875 C96.3845487,16.796875 98.3611112,14.546875 101.501736,14.546875 Z M101.501736,15.5390625 C99.0329862,15.5390625 97.4782987,17.40625 97.4782987,20.3671875 C97.4782987,23.3203125 99.0329862,25.1875 101.501736,25.1875 C103.970486,25.1875 105.532986,23.3203125 105.532986,20.3671875 C105.532986,17.40625 103.970486,15.5390625 101.501736,15.5390625 Z M111.115451,26 L111.115451,16.578125 L111.170139,16.578125 L117.802951,26 L118.834201,26 L118.834201,14.7265625 L117.779514,14.7265625 L117.779514,24.140625 L117.724826,24.140625 L111.115451,14.7265625 L110.060764,14.7265625 L110.060764,26 L111.115451,26 Z M123.783854,14.7265625 L122.721354,14.7265625 L122.721354,22.0625 C122.721354,24.4921875 124.369792,26.1796875 127.080729,26.1796875 C129.791667,26.1796875 131.447917,24.4921875 131.447917,22.0625 L131.447917,14.7265625 L130.377604,14.7265625 L130.377604,22 C130.377604,23.890625 129.151042,25.1875 127.080729,25.1875 C125.018229,25.1875 123.783854,23.890625 123.783854,22 L123.783854,14.7265625 Z M134.780382,22.9375 C134.89757,24.875 136.55382,26.1796875 138.913195,26.1796875 C141.405382,26.1796875 142.999132,24.8828125 142.999132,22.90625 C142.999132,21.3359375 142.046007,20.46875 139.780382,19.8984375 L138.561632,19.5859375 C136.905382,19.1640625 136.202257,18.59375 136.202257,17.625 C136.202257,16.3828125 137.358507,15.515625 138.921007,15.515625 C140.52257,15.515625 141.64757,16.359375 141.749132,17.6328125 L142.819445,17.6328125 C142.756945,15.84375 141.14757,14.546875 138.952257,14.546875 C136.733507,14.546875 135.092882,15.84375 135.092882,17.6640625 C135.092882,19.1484375 136.02257,20.03125 138.108507,20.5625 L139.506945,20.921875 C141.17882,21.34375 141.905382,21.96875 141.905382,23.0234375 C141.905382,24.2890625 140.694445,25.2109375 139.006945,25.2109375 C137.24132,25.2109375 135.967882,24.2890625 135.850695,22.9375 L134.780382,22.9375 Z" id="PATRONUS" fill="#5C5F6E"></path>
                    </g>
                </g>
            </g>
        </g>
    </g>
</svg>