<?xml version="1.0" encoding="UTF-8"?>
<svg width="138px" height="137px" viewBox="0 0 138 137" version="1.1" xmlns="http://www.w3.org/2000/svg" xmlns:xlink="http://www.w3.org/1999/xlink">
    <!-- Generator: Sketch 46.1 (44463) - http://www.bohemiancoding.com/sketch -->
    <title>patBot</title>
    <desc>Created with Sketch.</desc>
    <defs>
        <path d="M67.6976093,134.629526 C26.1603431,134.629526 9.3066308,120.761284 1.98266786,77.5076069 C-5.34129736,34.2538989 16.4660716,7.85191969 40.4652786,2.83094408 C64.4644856,-2.19003153 81.8675526,-0.401206845 98.4761024,7.15841477 C122.35,18.0249718 135.172355,40.6436443 135.172355,66.9921647 C135.172355,111.670647 109.234891,134.629526 67.6976093,134.629526 Z M66.8288396,127.132387 C95.9332004,127.132387 120.178816,103.700007 120.178816,73.9232391 C120.178816,59.2425722 113.87214,47.4710007 104.164287,37.3047126 C94.1976521,26.8674065 82.2113031,19.3011729 66.8288396,19.3011729 C37.7244939,19.3011729 14.1307574,43.4400081 14.1307574,73.2167685 C14.1307574,102.993544 37.7244939,127.132387 66.8288396,127.132387 Z" id="path-1"></path>
        <linearGradient x1="27.1238096%" y1="23.0884558%" x2="27.1238096%" y2="176.611694%" id="linearGradient-3">
            <stop stop-color="#FFFFFF" offset="0%"></stop>
            <stop stop-color="#77F8FF" offset="100%"></stop>
        </linearGradient>
        <path d="M67.6976093,134.629526 C26.1603431,134.629526 9.3066308,120.761284 1.98266786,77.5076069 C-5.34129736,34.2538989 16.4660716,7.85191969 40.4652786,2.83094408 C64.4644856,-2.19003153 81.8675526,-0.401206845 98.4761024,7.15841477 C122.35,18.0249718 135.172355,40.6436443 135.172355,66.9921647 C135.172355,111.670647 109.234891,134.629526 67.6976093,134.629526 Z M66.8288396,127.132387 C95.9332004,127.132387 120.178816,103.700007 120.178816,73.9232391 C120.178816,59.2425722 113.87214,47.4710007 104.164287,37.3047126 C94.1976521,26.8674065 82.2113031,19.3011729 66.8288396,19.3011729 C37.7244939,19.3011729 14.1307574,43.4400081 14.1307574,73.2167685 C14.1307574,102.993544 37.7244939,127.132387 66.8288396,127.132387 Z" id="path-4"></path>
        <linearGradient x1="35.5910603%" y1="33.8322129%" x2="70.4496496%" y2="26.5798546%" id="linearGradient-6">
            <stop stop-color="#FFFFFF" offset="0%"></stop>
            <stop stop-color="#77F8FF" offset="100%"></stop>
        </linearGradient>
        <path d="M124.67516,74.3749787 C124.448299,109.408476 104.329664,131.971989 71.0227849,131.971989 C51.7094291,131.971989 29.0995348,125.967156 15.8500568,107.80206 C6.25013689,94.64053 0.399095322,81.9649549 0.399095322,62.9609213 C0.399095322,39.1193014 5.29118945,23.7807207 15.8500568,13.8038259 C25.323676,4.85233041 39.6784526,0.0518323676 53.8320862,0.0518323676 C83.760726,0.0518323676 124.902022,39.341451 124.67516,74.3749787 Z M67.4709225,119.129028 C96.7364501,119.129028 121.116435,96.2802872 121.116435,67.2451629 C121.116435,52.9301954 114.774798,41.451758 105.013213,31.5387037 C94.9913257,21.3613195 82.9385522,13.9835672 67.4709225,13.9835672 C38.2053646,13.9835672 14.4809451,37.5211621 14.4809451,66.5562864 C14.4809451,95.5914108 38.2053646,119.129028 67.4709225,119.129028 Z" id="path-7"></path>
        <linearGradient x1="26.2733658%" y1="23.9982309%" x2="26.2733658%" y2="177.521469%" id="linearGradient-9">
            <stop stop-color="#FFFFFF" offset="0%"></stop>
            <stop stop-color="#6CE4FD" offset="100%"></stop>
        </linearGradient>
        <path d="M124.67516,74.3749787 C124.448299,109.408476 104.329664,131.971989 71.0227849,131.971989 C51.7094291,131.971989 29.0995348,125.967156 15.8500568,107.80206 C6.25013689,94.64053 0.399095322,81.9649549 0.399095322,62.9609213 C0.399095322,39.1193014 5.29118945,23.7807207 15.8500568,13.8038259 C25.323676,4.85233041 39.6784526,0.0518323676 53.8320862,0.0518323676 C83.760726,0.0518323676 124.902022,39.341451 124.67516,74.3749787 Z M67.4709225,119.129028 C96.7364501,119.129028 121.116435,96.2802872 121.116435,67.2451629 C121.116435,52.9301954 114.774798,41.451758 105.013213,31.5387037 C94.9913257,21.3613195 82.9385522,13.9835672 67.4709225,13.9835672 C38.2053646,13.9835672 14.4809451,37.5211621 14.4809451,66.5562864 C14.4809451,95.5914108 38.2053646,119.129028 67.4709225,119.129028 Z" id="path-10"></path>
        <linearGradient x1="18.6733391%" y1="40.264033%" x2="49.8445231%" y2="26.1092504%" id="linearGradient-12">
            <stop stop-color="#FFFFFF" offset="0%"></stop>
            <stop stop-color="#6CE4FD" offset="100%"></stop>
        </linearGradient>
        <path d="M75.86313,5.04985581 C73.1212586,4.50918798 70.2600815,4.22129794 67.2692855,4.22129794 C38.4420606,4.22129794 15.0729741,28.054763 15.0729741,57.4548267 C15.0729741,86.8548828 38.4420606,110.68834 67.2692855,110.68834 C96.0965255,110.68834 120.111328,87.5524157 120.111328,58.1523596 C120.111328,43.9093874 114.079849,32.4396141 104.747515,22.5219237 C114.481816,31.6766447 121.495906,43.7285061 121.495906,58.8417605 C121.495906,83.1755599 113.839307,108.841185 99.7516195,115.679961 C91.6088457,120.170239 76.7560604,125.308882 50.9215999,120.239306 C25.0871091,115.169727 1.03728424,92.4218387 0.564386843,60.7159262 C0.192152923,35.7590896 3.95745751,25.4053082 11.753377,17.1050613 C19.621082,8.7282819 34.9216473,1.09433176 52.1611155,0.163705161 C57.5618354,-0.127832907 66.3401029,1.46726641 75.86313,5.04985581 Z" id="path-13"></path>
        <linearGradient x1="26.8558797%" y1="25.8127436%" x2="26.8558797%" y2="179.335982%" id="linearGradient-15">
            <stop stop-color="#DBF1FF" offset="0%"></stop>
            <stop stop-color="#5EBCFF" offset="100%"></stop>
        </linearGradient>
        <path d="M75.86313,5.04985581 C73.1212586,4.50918798 70.2600815,4.22129794 67.2692855,4.22129794 C38.4420606,4.22129794 15.0729741,28.054763 15.0729741,57.4548267 C15.0729741,86.8548828 38.4420606,110.68834 67.2692855,110.68834 C96.0965255,110.68834 120.111328,87.5524157 120.111328,58.1523596 C120.111328,43.9093874 114.079849,32.4396141 104.747515,22.5219237 C114.481816,31.6766447 121.495906,43.7285061 121.495906,58.8417605 C121.495906,83.1755599 113.839307,108.841185 99.7516195,115.679961 C91.6088457,120.170239 76.7560604,125.308882 50.9215999,120.239306 C25.0871091,115.169727 1.03728424,92.4218387 0.564386843,60.7159262 C0.192152923,35.7590896 3.95745751,25.4053082 11.753377,17.1050613 C19.621082,8.7282819 34.9216473,1.09433176 52.1611155,0.163705161 C57.5618354,-0.127832907 66.3401029,1.46726641 75.86313,5.04985581 Z" id="path-16"></path>
        <linearGradient x1="26.8558797%" y1="56.5508996%" x2="69.2964931%" y2="37.8667841%" id="linearGradient-18">
            <stop stop-color="#DBF1FF" offset="0%"></stop>
            <stop stop-color="#5EBCFF" offset="100%"></stop>
        </linearGradient>
    </defs>
    <g id="landing" stroke="none" stroke-width="1" fill="none" fill-rule="evenodd">
        <g id="Home-(RU)---doc-Copy" transform="translate(-610.000000, -309.000000)">
            <g id="Group" transform="translate(610.000000, 309.000000)">
                <g id="patBot" style="mix-blend-mode: multiply;">
                    <g id="Group-7" transform="translate(2.280016, 0.000000)">
                        <g id="Group-3">
                            <mask id="mask-2" fill="white">
                                <use xlink:href="#path-1"></use>
                            </mask>
                            <g id="Clip-2"></g>
                            <polygon id="Fill-1" fill="url(#linearGradient-3)" mask="url(#mask-2)" points="-76.7605444 389.882765 208.241477 389.882765 208.241477 -117.04083 -76.7605444 -117.04083"></polygon>
                        </g>
                        <g id="Group-6">
                            <mask id="mask-5" fill="white">
                                <use xlink:href="#path-4"></use>
                            </mask>
                            <g id="Clip-5"></g>
                            <polygon id="Fill-4" fill="url(#linearGradient-6)" mask="url(#mask-5)" points="-76.7605444 389.882765 208.241477 389.882765 208.241477 -117.04083 -76.7605444 -117.04083"></polygon>
                        </g>
                    </g>
                    <g id="Group-14" transform="translate(0.000000, 4.560032)">
                        <g id="Group-10">
                            <mask id="mask-8" fill="white">
                                <use xlink:href="#path-7"></use>
                            </mask>
                            <g id="Clip-9"></g>
                            <polygon id="Fill-8" fill="url(#linearGradient-9)" mask="url(#mask-8)" points="-74.4805282 385.322733 210.521493 385.322733 210.521493 -121.600862 -74.4805282 -121.600862"></polygon>
                        </g>
                        <g id="Group-13">
                            <mask id="mask-11" fill="white">
                                <use xlink:href="#path-10"></use>
                            </mask>
                            <g id="Clip-12"></g>
                            <polygon id="Fill-11" fill="url(#linearGradient-12)" mask="url(#mask-11)" points="-74.4805282 385.322733 210.521493 385.322733 210.521493 -121.600862 -74.4805282 -121.600862"></polygon>
                        </g>
                    </g>
                    <g id="Group-21" transform="translate(1.520011, 13.680097)">
                        <g id="Group-17">
                            <mask id="mask-14" fill="white">
                                <use xlink:href="#path-13"></use>
                            </mask>
                            <g id="Clip-16"></g>
                            <polygon id="Fill-15" fill="url(#linearGradient-15)" mask="url(#mask-14)" points="-76.000539 376.202668 209.001482 376.202668 209.001482 -130.720927 -76.000539 -130.720927"></polygon>
                        </g>
                        <g id="Group-20">
                            <mask id="mask-17" fill="white">
                                <use xlink:href="#path-16"></use>
                            </mask>
                            <g id="Clip-19"></g>
                            <polygon id="Fill-18" fill="url(#linearGradient-18)" mask="url(#mask-17)" points="-76.000539 376.202668 209.001482 376.202668 209.001482 -130.720927 -76.000539 -130.720927"></polygon>
                        </g>
                    </g>
                </g>
            </g>
        </g>
    </g>
</svg>