<svg xmlns="http://www.w3.org/2000/svg" width="52" height="45" viewBox="0 0 52 45">
    <defs>
        <linearGradient id="a" x1="100%" x2="50%" y1="90.674%" y2="36.473%">
            <stop offset="0%" stop-color="#FFF7F1"/>
            <stop offset="100%" stop-color="#FFEBDF"/>
        </linearGradient>
        <linearGradient id="b" x1="68.45%" x2="31.384%" y1="-57.953%" y2="100%">
            <stop offset="0%" stop-color="#E1B89B"/>
            <stop offset="100%" stop-color="#8B7365"/>
        </linearGradient>
        <linearGradient id="c" x1="-64.941%" x2="162.192%" y1="74.4%" y2="67.131%">
            <stop offset="0%" stop-color="#313440"/>
            <stop offset="100%" stop-color="#535669"/>
        </linearGradient>
        <linearGradient id="d" x1="135.281%" x2="-10.597%" y1="-49.403%" y2="80.602%">
            <stop offset="0%" stop-color="#858AA1"/>
            <stop offset="100%" stop-color="#393C4B"/>
        </linearGradient>
    </defs>
    <g fill="none" fill-rule="evenodd">
        <path fill="#FBDDCB" d="M10.704 25.267c2.123 0 3.845 1.964 3.845 4.387 0 2.422-1.722 4.386-3.845 4.386S6.86 32.076 6.86 29.654c0-2.423 1.72-4.387 3.844-4.387M41.306 25.267c2.123 0 3.844 1.964 3.844 4.387 0 2.422-1.72 4.386-3.844 4.386-2.124 0-3.845-1.964-3.845-4.386 0-2.423 1.721-4.387 3.845-4.387"/>
        <path fill="url(#a)" d="M41.29 21.276c0-6.46-4.727-11.189-15.285-11.189S10.72 14.815 10.72 21.276c0 6.46-1.103 23.48 15.285 23.48s15.285-17.02 15.285-23.48"/>
        <path fill="url(#b)" d="M38.572 8.709s-5.673-7.21-17.463-4.491C9.318 6.936 8.435 14.028 8.789 20.926c.355 6.9 1.3 10.947 2.418 10.447 1.119-.5.537-5.055.655-6.106.118-1.05 1.182-5.803 8.353-5.094 7.17.709 13.213-1.891 13.213-1.891s2.433 3.074 4.033 3.664c3.2 1.177 2.15 9.025 3.403 9.025 1.254 0 7.4-18.126-2.292-22.262"/>
        <path fill="url(#c)" d="M27.615 9.065a3.949 3.949 0 0 1-2.53.011L8.643 7.188V18.24c0 3.88 7.928 7.027 17.707 7.027 9.78 0 17.708-3.146 17.708-7.027V7.01L27.615 9.066z"/>
        <path fill="url(#d)" d="M25.255 18.927L.736 10.757c-.981-.326-.981-1.715 0-2.042L25.847.348c.327-.108.681-.107 1.007.005l24.375 8.366c.969.332.969 1.703 0 2.035l-23.785 8.163a3.417 3.417 0 0 1-2.189.01"/>
    </g>
</svg>
