<svg xmlns="http://www.w3.org/2000/svg" width="36" height="50" viewBox="0 0 36 50">
    <defs>
        <linearGradient id="a" x1="117.922%" x2="-55.033%" y1="-35.304%" y2="125.169%">
            <stop offset="0%" stop-color="#FFFDE3"/>
            <stop offset="38.023%" stop-color="#FFEA8D"/>
            <stop offset="100%" stop-color="#FFCD00"/>
        </linearGradient>
        <linearGradient id="b" x1="66.372%" x2="-40.343%" y1="19.439%" y2="124.843%">
            <stop offset="0%" stop-color="#FFF4AA"/>
            <stop offset="100%" stop-color="#FFE671"/>
        </linearGradient>
        <linearGradient id="c" x1="169.795%" x2="-24.862%" y1="-125.292%" y2="161.258%">
            <stop offset="0%" stop-color="#DBDCDF"/>
            <stop offset="100%" stop-color="#B4B6BC"/>
        </linearGradient>
    </defs>
    <g fill="none" fill-rule="nonzero">
        <path fill="#868491" d="M19.958 44.52h-4.606a.767.767 0 0 0-.767.767v.768a3.073 3.073 0 0 0 3.07 3.07 3.073 3.073 0 0 0 3.07-3.07v-.768a.767.767 0 0 0-.767-.768z"/>
        <path fill="#5C546A" d="M17.654 44.52h-2.302a.767.767 0 0 0-.767.767v.768a3.073 3.073 0 0 0 3.07 3.07v-4.606z"/>
        <path fill="url(#a)" d="M29.741 4.787C26.154 1.416 21.455-.273 16.527.036 7.545.595.289 8.086.009 17.093a17.598 17.598 0 0 0 9.148 16.034 4.574 4.574 0 0 1 2.357 4.013v5.844a3.073 3.073 0 0 0 3.07 3.07h6.14a3.073 3.073 0 0 0 3.071-3.07V37.14c0-1.674.91-3.215 2.376-4.023a17.665 17.665 0 0 0 9.137-15.462c0-4.853-2.029-9.543-5.567-12.868z"/>
        <circle cx="17.654" cy="17.655" r="12.281" fill="url(#b)"/>
        <path fill="#FFF" d="M20.34 22.26c-1.021 0-1.543-.595-1.923-1.03-.335-.381-.468-.505-.767-.505-.298 0-.43.124-.764.505-.358.41-.9 1.03-1.92 1.03s-1.562-.62-1.92-1.03c-.334-.381-.466-.505-.764-.505a.767.767 0 1 1 0-1.535c1.02 0 1.561.62 1.92 1.03.333.381.466.505.763.505.298 0 .431-.124.765-.505.358-.41.9-1.03 1.92-1.03s1.541.595 1.922 1.03c.335.381.468.505.767.505.298 0 .432-.124.767-.505.359-.41.9-1.03 1.922-1.03a.767.767 0 1 1 0 1.535c-.3 0-.433.124-.768.506-.359.41-.9 1.03-1.92 1.03z"/>
        <path fill="#5C546A" d="M15.351 36.844a.769.769 0 0 1-.75-.604l-3.837-17.654a.769.769 0 0 1 1.5-.327l3.838 17.654a.769.769 0 0 1-.75.93zM19.958 36.844a.769.769 0 0 1-.751-.931l3.838-17.654a.769.769 0 0 1 1.5.327L20.709 36.24a.768.768 0 0 1-.75.604z"/>
        <path fill="url(#c)" d="M11.382 36.076c.082.345.132.7.132 1.064v5.844a3.073 3.073 0 0 0 3.07 3.07h6.14a3.073 3.073 0 0 0 3.071-3.07V37.14c0-.364.05-.719.133-1.064H11.382z"/>
        <path fill="#868491" d="M17.654 36.076h-6.272c.082.345.132.7.132 1.064v5.844a3.073 3.073 0 0 0 3.07 3.07h3.07v-9.978zM17.654 38.379h6.141v1.535h-6.141zM17.655 41.449h6.141v1.535h-6.141z"/>
        <path fill="#5C546A" d="M11.514 38.379h6.141v1.535h-6.141zM11.514 41.449h6.141v1.535h-6.141z"/>
    </g>
</svg>
