<svg xmlns="http://www.w3.org/2000/svg" width="47" height="49" viewBox="0 0 47 49">
    <defs>
        <linearGradient id="a" x1="120.284%" x2="0%" y1="-51.898%" y2="123.469%">
            <stop offset="0%" stop-color="#C99A81"/>
            <stop offset="100%" stop-color="#98614A"/>
        </linearGradient>
    </defs>
    <g fill="none" fill-rule="nonzero">
        <path fill="#ECF0F1" d="M46.565 48.74H9.139a4.352 4.352 0 0 1 0-8.703h37.426v8.704z"/>
        <g fill="#D1D4D1">
            <path d="M42.213 46.13c0 .48.39.87.87.87h3.482v-1.74h-3.482a.87.87 0 0 0-.87.87zM43.083 41.778a.87.87 0 0 0 0 1.74h3.482v-1.74h-3.482z"/>
        </g>
        <path fill="url(#a)" d="M44.039 0H7.313a2.526 2.526 0 0 0-2.526 2.526V44.388a4.352 4.352 0 0 1 4.352-4.351h37.426V2.526A2.526 2.526 0 0 0 44.039 0z"/>
        <circle cx="8.269" cy="29.593" r="1.741" fill="#38454F"/>
        <circle cx="8.269" cy="24.37" r="1.741" fill="#38454F"/>
        <circle cx="8.269" cy="19.148" r="1.741" fill="#38454F"/>
        <circle cx="8.269" cy="13.926" r="1.741" fill="#38454F"/>
        <path fill="#BDC3C7" d="M.435 13.926c0 .983.34 1.882.892 2.611a4.363 4.363 0 0 1 1.302-1.144 2.595 2.595 0 0 1-.453-1.467 2.614 2.614 0 0 1 2.611-2.611 2.614 2.614 0 0 1 2.611 2.61.87.87 0 1 0 1.74 0c0-2.399-1.951-4.35-4.351-4.35a4.357 4.357 0 0 0-4.352 4.35z"/>
        <path fill="#95A5A5" d="M2.629 17.682c.638.369 1.369.596 2.158.596v-1.741a2.61 2.61 0 0 0-2.158 1.145zM2.629 22.904c.638.369 1.369.596 2.158.596v-1.74a2.61 2.61 0 0 0-2.158 1.144z"/>
        <path fill="#BDC3C7" d="M2.629 15.393c-.508.292-.95.68-1.302 1.144a4.312 4.312 0 0 0-.892 2.611c0 .984.34 1.882.892 2.611a4.363 4.363 0 0 1 1.302-1.144 2.595 2.595 0 0 1-.453-1.467c0-.543.167-1.048.453-1.466a2.61 2.61 0 0 1 4.77 1.466.87.87 0 1 0 1.74 0c0-2.4-1.952-4.352-4.352-4.352-.79 0-1.52.227-2.158.597z"/>
        <path fill="#95A5A5" d="M2.629 28.126c.638.37 1.369.596 2.158.596v-1.74a2.61 2.61 0 0 0-2.158 1.144z"/>
        <path fill="#BDC3C7" d="M2.629 20.615c-.508.292-.95.68-1.302 1.144a4.312 4.312 0 0 0-.892 2.611c0 .984.34 1.882.892 2.611a4.363 4.363 0 0 1 1.302-1.144 2.595 2.595 0 0 1-.453-1.467c0-.543.167-1.048.453-1.466a2.61 2.61 0 0 1 4.77 1.466.87.87 0 1 0 1.74 0c0-2.4-1.952-4.351-4.352-4.351-.79 0-1.52.227-2.158.596z"/>
        <path fill="#BDC3C7" d="M2.629 25.837c-.508.292-.95.68-1.302 1.144a4.312 4.312 0 0 0-.892 2.612c0 2.4 1.952 4.351 4.352 4.351v-1.74a2.614 2.614 0 0 1-2.611-2.611c0-.544.167-1.048.453-1.467a2.61 2.61 0 0 1 4.77 1.467.87.87 0 1 0 1.74 0c0-2.4-1.952-4.352-4.352-4.352-.79 0-1.52.227-2.158.596z"/>
    </g>
</svg>
