<svg xmlns="http://www.w3.org/2000/svg" width="47" height="42" viewBox="0 0 47 42">
    <defs>
        <linearGradient id="a" x1="151.193%" x2="50%" y1="-205.623%" y2="100%">
            <stop offset="0%" stop-color="#C99D92"/>
            <stop offset="100%" stop-color="#996459"/>
        </linearGradient>
        <linearGradient id="b" x1="183.407%" x2="35.674%" y1="-214.902%" y2="100%">
            <stop offset="0%" stop-color="#DEB191"/>
            <stop offset="100%" stop-color="#BA7958"/>
        </linearGradient>
    </defs>
    <g fill="none" fill-rule="nonzero">
        <path fill="#7E5C62" d="M30.057 7.247c-.601 0-1.087-.324-1.087-.724v-2.9c0-.4.486-.724 1.087-.724.6 0 1.087.324 1.087.725v2.899c0 .4-.486.724-1.087.724zM16.287 7.247c-.601 0-1.087-.324-1.087-.724v-2.9c0-.4.486-.724 1.087-.724.6 0 1.087.324 1.087.725v2.899c0 .4-.486.724-1.087.724z"/>
        <path fill="url(#a)" d="M44.209 24.641H2.174c-.4 0-.725.325-.725.725v12.32a3.628 3.628 0 0 0 3.624 3.624H41.31a3.628 3.628 0 0 0 3.624-3.624v-12.32c0-.4-.324-.725-.725-.725z"/>
        <path fill="url(#b)" d="M42.76 6.523H3.623A3.628 3.628 0 0 0 0 10.146v12.611c0 1.458.875 2.772 2.23 3.35a53.32 53.32 0 0 0 18.787 4.233H25.396a53.297 53.297 0 0 0 18.757-4.233 3.644 3.644 0 0 0 2.23-3.35v-12.61a3.628 3.628 0 0 0-3.624-3.624z"/>
        <path fill="#7E5C62" d="M31.888 22.467c0-1.599-1.3-2.9-2.899-2.9H17.394a2.902 2.902 0 0 0-2.9 2.9v7.196c2.15.353 4.324.587 6.523.677H25.396a53.597 53.597 0 0 0 6.492-.676v-7.197z"/>
        <path fill="#FFCD00" d="M23.916 32.613h-1.45c-.8 0-1.449-.649-1.449-1.45v-2.898c0-.8.65-1.45 1.45-1.45h1.45c.8 0 1.449.65 1.449 1.45v2.899c0 .8-.65 1.45-1.45 1.45z"/>
        <path fill="#996459" d="M31.164 3.963c-.138 0-.279-.02-.418-.062-2.178-.656-4.79-1.002-7.554-1.002-2.765 0-5.377.346-7.555 1.002a1.449 1.449 0 1 1-.836-2.776C17.246.39 20.148 0 23.191 0c3.044 0 5.946.39 8.39 1.125a1.45 1.45 0 0 1-.417 2.838z"/>
        <path fill="#FFE671" d="M24.621 26.815h-2.899c-.4 0-.724.325-.724.725v1.45c0 .8.648 1.449 1.449 1.449h1.45c.8 0 1.449-.649 1.449-1.45V27.54c0-.4-.325-.725-.725-.725z"/>
    </g>
</svg>
