<svg xmlns="http://www.w3.org/2000/svg" width="47" height="45" viewBox="0 0 47 45">
    <defs>
        <linearGradient id="a" x1="30.343%" x2="71.081%" y1="124.373%" y2="0%">
            <stop offset="0%" stop-color="#5DC7FF" stop-opacity=".472"/>
            <stop offset="100%" stop-color="#CCD7FF" stop-opacity=".511"/>
        </linearGradient>
        <linearGradient id="b" x1="-57.357%" x2="112.291%" y1="44.935%" y2="44.935%">
            <stop offset="0%" stop-color="#5DC7FF"/>
            <stop offset="100%" stop-color="#CCD7FF"/>
        </linearGradient>
        <linearGradient id="c" x1="-13.806%" x2="112.291%" y1="44.935%" y2="44.935%">
            <stop offset="0%" stop-color="#5FC8FF"/>
            <stop offset="100%" stop-color="#AABDFF"/>
        </linearGradient>
    </defs>
    <g fill="none" fill-rule="nonzero">
        <path fill="url(#a)" d="M8.12 19.31c1.657.503-5.079 1.67-4.311 3.19.593.87.963 1.901 1.036 3.015h37.29a6.048 6.048 0 0 1 1.036-3.015c.77-1.524-5.962-2.691-4.301-3.192l.843-8.576C40.586 5.317 36.405.407 30.92.407H16.2c-5.485 0-9.667 4.91-8.793 10.325l.713 8.579z"/>
        <path fill="url(#b)" d="M46.938 24.613c-.314-2.82-2.57-5.143-5.384-5.52a6.294 6.294 0 0 0-7.159 6.234c0 .142.012.048.021.188H12.565c.008-.14.02-.046.02-.188 0-3.76-3.298-6.75-7.159-6.233-2.813.376-5.07 2.698-5.383 5.52-.225 2.027.454 3.886 1.705 5.177 2.396 2.475 3.925 5.659 3.925 9.104v.852a2.776 2.776 0 0 0 2.776 2.775h29.88a2.987 2.987 0 0 0 2.978-2.978v-.65c0-3.444 1.529-6.628 3.926-9.103 1.25-1.291 1.93-3.15 1.705-5.178z"/>
        <path fill="url(#c)" d="M35.556 32.804H11.423c-.939 0-1.701-.762-1.701-1.702v-2.401a3.186 3.186 0 0 1 3.186-3.186h21.164a3.186 3.186 0 0 1 3.186 3.186v2.401a1.7 1.7 0 0 1-1.702 1.702z"/>
        <path fill="#6FC6FF" d="M14.581 42.522c0 1.56-1.275 2.43-2.834 2.43-1.56 0-2.835-.87-2.835-2.43h5.67zM38.068 42.522c0 1.56-1.276 2.43-2.835 2.43s-2.834-.87-2.834-2.43h5.669z"/>
    </g>
</svg>
