<svg xmlns="http://www.w3.org/2000/svg" width="34" height="46" viewBox="0 0 34 46">
    <defs>
        <linearGradient id="a" x1="50%" x2="50%" y1="0%" y2="100%">
            <stop offset="0%" stop-color="#FACE93" stop-opacity=".625"/>
            <stop offset="100%" stop-color="#F3705A"/>
        </linearGradient>
        <linearGradient id="b" x1="50%" x2="50%" y1="0%" y2="100%">
            <stop offset="0%" stop-color="#FFE095" stop-opacity=".454"/>
            <stop offset="100%" stop-color="#FFEFC7"/>
        </linearGradient>
    </defs>
    <g fill="none" fill-rule="nonzero">
        <path fill="url(#a)" d="M6.815 40.964c-2.067-2.348-4.134-4.791-5.45-7.704C.05 30.16-.325 26.59.332 23.207c.658-3.382 2.16-6.577 4.322-9.302-.188 2.35.657 4.792 2.255 6.577-.94-4.51.563-9.395 3.57-12.966 3.006-3.57 7.14-5.919 11.462-7.516-2.16 2.255-2.442 5.825-1.597 8.832.846 3.006 2.631 5.637 4.228 8.362 1.597 2.724 3.1 5.543 3.195 8.644.845-1.598 1.785-3.195 2.349-4.98.563-1.785.845-3.664.375-5.45 1.692 2.068 2.631 4.135 3.101 6.765.47 2.631.376 5.356.094 7.987-.376 2.912-1.127 5.919-2.725 8.362-1.879 2.912-4.885 4.98-8.174 6.107-5.825 1.033-11.556.188-15.972-3.665z"/>
        <path fill="url(#b)" d="M13.955 44.44c7.705 3.007 15.315-6.106 11.087-13.153 0-.094-.094-.094-.094-.188.376 3.852-.564 6.67-2.349 8.268.94-2.255.282-4.885-.846-7.14-1.127-2.161-2.724-4.134-3.946-6.201-1.221-2.161-2.16-4.604-1.597-7.047-2.255 1.691-3.852 4.228-4.51 6.953-.657 2.724-.282 5.73.94 8.268-1.41-1.034-2.443-2.725-2.537-4.51-1.503 1.785-2.443 4.134-2.349 6.483 0 3.664 2.913 6.952 6.201 8.268z"/>
    </g>
</svg>
