<svg xmlns="http://www.w3.org/2000/svg" width="64" height="72" viewBox="0 0 64 72">
    <defs>
        <linearGradient id="a" x1="50%" x2="50%" y1="3.074%" y2="97.816%">
            <stop offset="0%" stop-color="#E6ECF2"/>
            <stop offset="100%" stop-color="#E7ECEE"/>
        </linearGradient>
        <linearGradient id="b" x1="50%" x2="50%" y1="3.074%" y2="97.816%">
            <stop offset="0%" stop-color="#F7B86C"/>
            <stop offset="100%" stop-color="#F5D88C"/>
        </linearGradient>
    </defs>
    <g fill="none" fill-rule="nonzero">
        <path fill="#F7B86C" d="M58.703 9.962c-.177-1.415-3.714-9.373-7.25-9.373-8.666-.176-19.807 14.855-17.508 18.038 3.537 4.775 23.874-3.36 24.758-8.665z"/>
        <ellipse cx="46.48" cy="14.787" fill="#D6981B" rx="11.494" ry="1.768" transform="rotate(154.773 46.48 14.787)"/>
        <path fill="#F7B86C" d="M5.297 9.962C5.474 8.547 9.011.589 12.547.589c8.666-.176 19.807 14.855 17.508 18.038-3.537 4.775-23.874-3.36-24.758-8.665z"/>
        <ellipse cx="17.29" cy="14.869" fill="#D6981B" rx="11.494" ry="1.768" transform="rotate(25.227 17.29 14.869)"/>
        <path fill="#D6981B" d="M37.305 20.042v-2.653c0-2.83-2.299-4.42-5.305-4.42-2.83 0-5.305 1.59-5.305 4.42v2.653h10.61z"/>
        <path fill="url(#a)" d="M54.99 71.325H9.01a3.547 3.547 0 0 1-3.536-3.536V32.42h53.052v35.368a3.547 3.547 0 0 1-3.537 3.536z"/>
        <path fill="#E2E7EB" d="M60.294 32.42H3.706a3.547 3.547 0 0 1-3.537-3.536V21.81a3.547 3.547 0 0 1 3.537-3.537h56.588a3.547 3.547 0 0 1 3.537 3.537v7.074a3.547 3.547 0 0 1-3.537 3.537z"/>
        <path fill="#D2D2D2" d="M5.474 32.421h53.052v3.537H5.474z"/>
        <path fill="url(#b)" d="M24.926 18.273h14.147v53.052H24.926z"/>
        <path fill="#D6981B" d="M24.926 32.421h14.147v3.537H24.926z"/>
    </g>
</svg>
