<svg xmlns="http://www.w3.org/2000/svg" width="179" height="186" viewBox="0 0 179 186">
    <defs>
        <linearGradient id="a" x1="50%" x2="50%" y1="3.074%" y2="97.816%">
            <stop offset="0%" stop-color="#95D3F7"/>
            <stop offset="100%" stop-color="#829BF4"/>
        </linearGradient>
        <linearGradient id="b" x1="50%" x2="50%" y1="3.074%" y2="97.816%">
            <stop offset="0%" stop-color="#E6ECF2"/>
            <stop offset="100%" stop-color="#E7ECEE"/>
        </linearGradient>
        <linearGradient id="c" x1="50%" x2="50%" y1="3.074%" y2="97.816%">
            <stop offset="0%" stop-color="#839EFF"/>
            <stop offset="100%" stop-color="#91C7F6"/>
        </linearGradient>
    </defs>
    <g fill="none" fill-rule="evenodd">
        <path fill="url(#a)" d="M32.545 0h113.91C164.429 0 179 14.622 179 32.659v119.75c0 18.037-14.571 32.659-32.545 32.659H32.545C14.571 185.068 0 170.446 0 152.408V32.66C0 14.622 14.571 0 32.545 0z"/>
        <g fill-rule="nonzero" transform="translate(34.354 23.587)">
            <path fill="#8CA3F5" d="M106.677 16.585C106.357 14.082 99.979.003 93.6.003 77.973-.31 57.88 26.283 62.026 31.915c6.379 8.447 43.056-5.944 44.65-15.33z"/>
            <ellipse cx="84.076" cy="25.401" fill="#798FDA" rx="20.793" ry="3.629" transform="rotate(154.773 84.076 25.401)"/>
            <path fill="#8CA3F5" d="M9.04 16.585C9.36 14.082 15.738.003 22.117.003c15.627-.313 35.72 26.28 31.574 31.912-6.379 8.447-43.056-5.944-44.65-15.33z"/>
            <ellipse cx="31.641" cy="25.401" fill="#798FDA" rx="20.793" ry="3.629" transform="rotate(25.227 31.641 25.401)"/>
            <path fill="#798FDA" d="M68.707 34.473v-4.762c0-5.08-4.31-7.938-9.944-7.938-5.304 0-9.945 2.857-9.945 7.938v4.762h19.89z"/>
            <path fill="url(#b)" d="M98.48 127.007H15.43c-3.514 0-6.389-2.894-6.389-6.433V56.246h95.829v64.328c0 3.539-2.875 6.433-6.389 6.433z"/>
            <path fill="#E2E7EB" d="M109.288 56.246H6.428C2.894 56.246 0 53.388 0 49.896V37.195c0-3.493 2.893-6.35 6.429-6.35h102.86c3.535 0 6.428 2.857 6.428 6.35v12.7c0 3.493-2.893 6.351-6.429 6.351z"/>
            <path fill="#D2D2D2" d="M9.04 56.246h95.828v7.258H9.04z"/>
            <path fill="url(#c)" d="M45.202 30.845h25.313v96.163H45.202z"/>
            <path fill="#798FDA" d="M45.202 56.246h25.313v7.258H45.202z"/>
        </g>
    </g>
</svg>
