<?xml version="1.0" encoding="UTF-8"?>
<svg width="304px" height="264px" viewBox="0 0 304 264" version="1.1" xmlns="http://www.w3.org/2000/svg" xmlns:xlink="http://www.w3.org/1999/xlink">
    <!-- Generator: Sketch 49.3 (51167) - http://www.bohemiancoding.com/sketch -->
    <title>1</title>
    <desc>Created with Sketch.</desc>
    <defs>
        <circle id="path-1" cx="131.991597" cy="131.991597" r="131.991597"></circle>
        <linearGradient x1="-3.5970303%" y1="19.0535577%" x2="103.59703%" y2="80.9530769%" id="linearGradient-3">
            <stop stop-color="#D3EEFF" offset="19.83%"></stop>
            <stop stop-color="#E1F3FF" offset="22.66%"></stop>
            <stop stop-color="#F2FAFF" offset="27.31%"></stop>
            <stop stop-color="#FCFEFF" offset="32.43%"></stop>
            <stop stop-color="#FFFFFF" offset="38.89%"></stop>
            <stop stop-color="#DAEFED" offset="44.47%"></stop>
            <stop stop-color="#BDE3DF" offset="48.46%"></stop>
            <stop stop-color="#C1E6E1" offset="52.52%"></stop>
            <stop stop-color="#CDEFE8" offset="56.54%"></stop>
            <stop stop-color="#DEFCF2" offset="60.09%"></stop>
            <stop stop-color="#E3FCF4" offset="63.65%"></stop>
            <stop stop-color="#F2FEFA" offset="67.96%"></stop>
            <stop stop-color="#FFFFFF" offset="70.68%"></stop>
            <stop stop-color="#F6FBFE" offset="73.61%"></stop>
            <stop stop-color="#DDF1FA" offset="78.4%"></stop>
            <stop stop-color="#B9E2F5" offset="83.93%"></stop>
        </linearGradient>
        <linearGradient x1="-17.5750359%" y1="50.123611%" x2="100.024602%" y2="50.123611%" id="linearGradient-4">
            <stop stop-color="#8CA3F5" offset="0%"></stop>
            <stop stop-color="#7F9FF2" offset="20.11%"></stop>
            <stop stop-color="#5F93EC" offset="56.24%"></stop>
        </linearGradient>
        <linearGradient x1="-0.49745914%" y1="50.0088578%" x2="509.314089%" y2="50.0088578%" id="linearGradient-5">
            <stop stop-color="#8CA3F5" offset="0%"></stop>
            <stop stop-color="#87A1F4" offset="3.091197%"></stop>
            <stop stop-color="#7199F0" offset="19.76%"></stop>
            <stop stop-color="#6495ED" offset="35.72%"></stop>
            <stop stop-color="#5F93EC" offset="50.09%"></stop>
        </linearGradient>
        <linearGradient x1="-387.893511%" y1="50.0398126%" x2="203.619524%" y2="50.0398126%" id="linearGradient-6">
            <stop stop-color="#FFBDDA" offset="0%"></stop>
            <stop stop-color="#FFC2AC" offset="100%"></stop>
        </linearGradient>
        <linearGradient x1="-105.023407%" y1="50.0452586%" x2="292.547338%" y2="50.0452586%" id="linearGradient-7">
            <stop stop-color="#FFBDDA" offset="0%"></stop>
            <stop stop-color="#FFC2AC" offset="100%"></stop>
        </linearGradient>
        <linearGradient x1="-0.0594335775%" y1="49.9754519%" x2="99.9971198%" y2="49.9754519%" id="linearGradient-8">
            <stop stop-color="#FFD7E3" offset="0%"></stop>
            <stop stop-color="#FED7DD" offset="31.48%"></stop>
            <stop stop-color="#FCD6CD" offset="71.86%"></stop>
            <stop stop-color="#FAD6BE" offset="100%"></stop>
        </linearGradient>
        <filter x="-34.3%" y="-33.5%" width="168.5%" height="177.7%" filterUnits="objectBoundingBox" id="filter-9">
            <feOffset dx="0" dy="6" in="SourceAlpha" result="shadowOffsetOuter1"></feOffset>
            <feGaussianBlur stdDeviation="13.5" in="shadowOffsetOuter1" result="shadowBlurOuter1"></feGaussianBlur>
            <feColorMatrix values="0 0 0 0 0.191410039   0 0 0 0 0.300729998   0 0 0 0 0.410049957  0 0 0 0.140200408 0" type="matrix" in="shadowBlurOuter1" result="shadowMatrixOuter1"></feColorMatrix>
            <feMerge>
                <feMergeNode in="shadowMatrixOuter1"></feMergeNode>
                <feMergeNode in="SourceGraphic"></feMergeNode>
            </feMerge>
        </filter>
    </defs>
    <g id="landing" stroke="none" stroke-width="1" fill="none" fill-rule="evenodd">
        <g id="How-ty" transform="translate(-863.000000, -1286.000000)">
            <g id="Group-26" transform="translate(120.000000, 1242.000000)">
                <g id="1" transform="translate(769.000000, 44.000000)">
                    <g id="Group-27">
                        <g id="Слой_2" transform="translate(14.016807, 0.000000)">
                            <g id="Group">
                                <g>
                                    <mask id="mask-2" fill="white">
                                        <use xlink:href="#path-1"></use>
                                    </mask>
                                    <use id="Oval-3" fill="#D8D8D8" xlink:href="#path-1"></use>
                                    <path d="M334.651261,-7.24201681 L-30.9537815,-7.24201681 C-36.4436975,-7.24201681 -40.8823529,-2.2698691 -40.8823529,3.87989253 L-40.8823529,253.795738 C-40.8823529,259.945499 -36.4436975,264.917647 -30.9537815,264.917647 L334.651261,264.917647 C340.141176,264.917647 344.579832,259.945499 344.579832,253.795738 L344.579832,3.87989253 C344.579832,-2.2698691 340.141176,-7.24201681 334.651261,-7.24201681 Z" id="Shape" fill="url(#linearGradient-3)" fill-rule="nonzero" opacity="0.69" mask="url(#mask-2)"></path>
                                    <path d="M136.547059,261.530252 C132.57563,260.595798 128.604202,259.077311 125.1,256.97479 C124.515966,256.62437 123.815126,256.157143 123.231092,255.806723 C122.763866,259.077311 122.763866,262.581513 121.595798,264.917647 L136.780672,264.917647 C136.547059,263.983193 136.430252,262.931933 136.547059,261.530252 Z" id="Shape" fill="#FFEBDF" fill-rule="nonzero" mask="url(#mask-2)"></path>
                                    <g mask="url(#mask-2)" fill-rule="nonzero" id="Shape">
                                        <g transform="translate(119.142857, 202.075630)">
                                            <path d="M114.704202,17.8714286 C112.368067,12.7319328 107.812605,9.34453782 103.023529,6.89159664 C103.023529,6.77478992 102.906723,6.77478992 102.906723,6.65798319 C102.556303,6.1907563 102.205882,6.07394958 101.855462,6.07394958 C101.037815,5.37310924 96.3655462,-0.467226891 95.8983193,0.934453782 C89.8243697,16.5865546 79.5453782,24.8798319 62.0243697,25.4638655 C44.3865546,26.0478992 37.1445378,23.0109244 30.4865546,7.94285714 C31.5378151,7.35882353 26.5151261,7.82605042 27.3327731,7.00840336 C27.6831933,6.65798319 27.4495798,5.84033613 26.8655462,5.84033613 C25.5806723,5.95714286 24.412605,6.42436975 23.1277311,7.00840336 C22.5436975,6.77478992 21.8428571,7.12521008 21.8428571,7.7092437 C21.0252101,8.17647059 20.207563,8.64369748 19.389916,9.22773109 C20.207563,14.7176471 21.2588235,23.0109244 22.0764706,26.5151261 C22.7773109,29.902521 23.4781513,33.4067227 22.7773109,36.7941176 C22.7773109,41.7 20.9084034,46.3722689 19.389916,50.9277311 C18.4554622,53.6142857 17.7546218,56.5344538 17.4042017,59.3378151 C17.4042017,60.7394958 17.4042017,61.7907563 17.5210084,62.7252101 L20.4411765,62.7252101 L105.12605,62.7252101 C107.228571,62.0243697 108.980672,60.7394958 110.265546,58.2865546 C111.667227,55.3663866 111.90084,51.7453782 112.484874,48.5915966 C113.302521,44.3865546 114.236975,40.1815126 115.171429,35.9764706 C116.456303,30.1361345 117.390756,23.7117647 114.704202,17.8714286 Z" fill="url(#linearGradient-4)"></path>
                                            <path d="M23.3613445,37.1445378 C23.4781513,35.7428571 23.8285714,25.5806723 23.3613445,23.1277311 C22.6605042,19.6235294 21.0252101,12.6151261 19.389916,9.34453782 C18.8058824,9.69495798 18.3386555,10.0453782 17.8714286,10.3957983 C15.8857143,11.9142857 12.9655462,14.3672269 12.6151261,17.0537815 C12.4983193,17.5210084 12.8487395,17.9882353 13.1991597,18.105042 C9.46134454,28.3840336 0.116806723,47.6571429 0.116806723,48.8252101 C0.116806723,51.394958 5.37310924,54.5487395 6.07394958,54.8991597 C9.57815126,57.0016807 13.5495798,58.5201681 17.5210084,59.4546218 C17.8714286,56.6512605 18.5722689,53.7310924 19.5067227,51.0445378 C20.4411765,47.7739496 22.7773109,42.1672269 23.3613445,37.1445378 Z" fill="url(#linearGradient-5)"></path>
                                        </g>
                                    </g>
                                    <path d="M210.018487,202.309244 C210.952941,197.870588 206.631092,193.782353 202.659664,194.833613 C202.192437,194.132773 201.491597,193.431933 200.790756,192.964706 C202.542857,190.394958 203.827731,187.591597 204.995798,184.671429 C205.463025,183.386555 205.463025,182.101681 204.995798,181.05042 C205.229412,179.064706 205.112605,176.962185 204.878992,174.859664 C206.981513,170.888235 208.85042,166.8 210.252101,162.361345 C210.719328,160.959664 210.602521,159.791597 210.135294,158.740336 C210.485714,158.039496 210.719328,157.338655 211.069748,156.637815 C212.471429,153.367227 211.069748,150.213445 208.733613,148.578151 C210.368908,144.256303 206.864706,141.219328 203.360504,140.985714 C201.842017,139.233613 199.973109,137.598319 198.221008,135.963025 C199.038655,132.108403 195.651261,128.954622 192.380672,129.071429 C189.694118,125.216807 187.357983,120.544538 187.82521,116.923529 C188.759664,110.966387 182.452101,106.761345 177.663025,110.966387 C175.210084,113.068908 173.57479,115.521849 172.406723,118.32521 C171.005042,118.442017 169.720168,119.142857 168.785714,120.778151 C167.734454,122.647059 166.8,124.632773 165.748739,126.501681 C165.164706,126.618487 164.580672,126.735294 163.996639,127.085714 C162.711765,126.501681 161.310084,126.268067 160.02521,126.735294 C150.797479,129.538655 147.643697,140.401681 144.957143,148.578151 C143.321849,153.717647 142.036975,159.090756 141.336134,164.463866 C140.752101,168.318487 139.70084,173.22437 143.438655,175.794118 C144.723529,176.611765 146.008403,176.962185 147.059664,176.962185 C147.293277,177.312605 147.643697,177.546218 147.877311,177.779832 C147.526891,179.765546 147.176471,181.868067 146.82605,183.853782 C145.891597,189.577311 152.9,193.081513 156.404202,187.942017 C156.521008,187.82521 156.637815,187.591597 156.637815,187.47479 C157.572269,189.110084 159.441176,189.810924 161.426891,189.694118 C160.258824,191.095798 159.090756,192.497479 158.039496,194.015966 C157.105042,195.30084 156.988235,196.819328 157.338655,198.221008 C157.105042,198.571429 156.871429,198.805042 156.637815,199.155462 C154.652101,198.571429 152.19916,199.272269 150.680672,200.67395 C150.447059,200.907563 150.096639,201.257983 149.863025,201.491597 C147.293277,199.739496 142.737815,200.440336 141.686555,204.061345 C141.569748,204.528571 141.452941,204.995798 141.452941,205.463025 C141.920168,205.930252 142.387395,206.280672 142.854622,206.747899 C144.139496,207.915966 145.541176,208.85042 146.242017,210.135294 C146.47563,210.368908 149.395798,211.069748 149.512605,211.420168 C152.9,222.984034 162.361345,231.744538 173.92521,233.847059 C181.05042,235.131933 189.226891,235.365546 195.417647,231.744538 C202.07563,227.773109 207.207536,222.421876 210.135294,215.413473 C213.063053,208.405069 212.479019,206.631092 213.179859,206.747899 C214.815153,203.944538 215.366896,205.346218 216.30135,202.309244 C217.586224,197.987395 213.873109,202.542857 210.018487,202.309244 Z" id="Shape" fill="#FFEBDF" fill-rule="nonzero" mask="url(#mask-2)"></path>
                                    <g mask="url(#mask-2)" fill-rule="nonzero" id="Shape">
                                        <g transform="translate(96.949580, 88.773109)">
                                            <path d="M113.068908,106.761345 C114.704202,101.271429 114.704202,95.5478992 114.120168,89.8243697 C113.302521,82.6991597 111.55042,75.807563 108.863866,69.1495798 C108.630252,71.7193277 108.046218,74.2890756 107.462185,76.6252101 C106.527731,80.5966387 105.359664,84.9184874 102.439496,87.9554622 C99.8697479,90.7588235 96.1319328,92.2773109 93.7957983,95.3142857 C86.5537815,104.542017 95.6647059,114.353782 104.308403,119.02605 C108.630252,116.222689 111.667227,111.667227 113.068908,106.761345 Z" fill="url(#linearGradient-6)"></path>
                                            <path d="M37.6117647,103.607563 C39.2470588,110.382353 44.8537815,115.638655 50.8109244,119.259664 C52.5630252,120.310924 54.4319328,121.362185 56.3008403,121.712605 C58.5201681,120.544538 60.7394958,119.376471 62.6084034,118.091597 C67.397479,114.704202 72.1865546,109.915126 71.8361345,103.607563 C71.4857143,98.3512605 67.6310924,95.197479 63.5428571,92.5109244 C59.9218487,90.1747899 56.3008403,88.3058824 53.7310924,84.5680672 C51.2781513,81.0638655 50.2268908,76.7420168 49.6428571,72.5369748 C49.4092437,70.9016807 49.4092437,69.1495798 49.4092437,67.5142857 C47.8907563,73.1210084 44.7369748,78.2605042 41.9336134,83.5168067 C38.7798319,89.707563 36.0932773,96.8327731 37.6117647,103.607563 Z" fill="url(#linearGradient-7)"></path>
                                            <path d="M135.612605,49.6428571 C135.378992,48.7084034 135.378992,47.6571429 135.612605,46.7226891 C135.612605,46.7226891 135.612605,46.6058824 135.612605,46.4890756 C138.182353,33.0563025 133.510084,18.6890756 122.413445,10.2789916 C112.484874,2.68655462 98.4680672,1.0512605 87.0210084,5.95714286 C85.502521,6.54117647 83.8672269,6.54117647 82.4655462,5.84033613 C71.602521,0.233613445 58.1697479,-0.934453782 47.189916,5.02268908 C34.6915966,11.797479 30.3697479,23.594958 30.7201681,37.2613445 C30.9537815,45.6714286 29.6689076,52.7966387 25.1134454,59.9218487 C21.2588235,65.7621849 16.3529412,70.7848739 12.0310924,76.1579832 C4.08823529,85.9697479 -0.700840336,96.0151261 1.28487395,108.980672 C3.27058824,121.712605 10.512605,135.028571 22.7773109,138.415966 C32.7058824,141.102521 33.8739496,132.92605 37.3781513,129.421849 C42.2840336,124.515966 49.8764706,124.983193 56.3008403,121.712605 C54.3151261,121.362185 52.4462185,120.310924 50.8109244,119.259664 C44.8537815,115.521849 39.2470588,110.382353 37.6117647,103.607563 C35.9764706,96.7159664 38.7798319,89.707563 42.0504202,83.5168067 C44.7369748,78.2605042 48.007563,73.1210084 49.5260504,67.5142857 C49.5260504,58.8705882 52.5630252,51.1613445 60.1554622,45.7882353 C65.5285714,41.9336134 72.4201681,38.7798319 77.910084,34.4579832 C80.7134454,32.2386555 84.6848739,33.4067227 86.0865546,36.6773109 C86.0865546,36.7941176 86.2033613,36.7941176 86.2033613,36.9109244 C89.2403361,43.4521008 94.6134454,47.4235294 100.103361,51.8621849 C102.906723,54.0815126 105.710084,56.5344538 107.345378,59.805042 C108.863866,62.7252101 109.097479,65.9957983 108.863866,69.2663866 C111.55042,75.9243697 113.302521,82.8159664 114.120168,89.9411765 C114.704202,95.5478992 114.704202,101.388235 113.068908,106.878151 C111.55042,111.784034 108.630252,116.339496 104.308403,119.142857 C105.710084,119.960504 107.111765,120.544538 108.513445,121.011765 C122.179832,125.917647 130.122689,113.652941 133.860504,102.322689 C139.70084,85.2689076 140.051261,66.8134454 135.612605,49.6428571 Z" fill="url(#linearGradient-8)"></path>
                                        </g>
                                    </g>
                                </g>
                            </g>
                        </g>
                        <g id="Group-31" filter="url(#filter-9)" transform="translate(0.000000, 59.571429)" fill="#FFFFFF">
                            <circle id="Oval-8" cx="103.092159" cy="93.7476212" r="8.47871366"></circle>
                            <circle id="Oval-8-Copy-8" cx="123.05611" cy="107.871236" r="3.91325246"></circle>
                            <circle id="Oval-8-Copy" cx="45.3285077" cy="71.4168574" r="14.022488"></circle>
                            <circle id="Oval-8-Copy-2" cx="69.1341268" cy="45.0024033" r="28.6971847"></circle>
                            <circle id="Oval-8-Copy-3" cx="28.6971847" cy="45.0024033" r="28.6971847"></circle>
                            <circle id="Oval-8-Copy-4" cx="51.5244907" cy="28.6971847" r="28.6971847"></circle>
                            <circle id="Oval-8-Copy-5" cx="76.0915541" cy="32.6971847" r="28.6971847"></circle>
                            <circle id="Oval-8-Copy-6" cx="97.8313115" cy="45.0024033" r="28.6971847"></circle>
                            <circle id="Oval-8-Copy-7" cx="66.5252918" cy="56.0899519" r="28.6971847"></circle>
                        </g>
                        <text id="?" font-family="SFProDisplay-Bold, SF Pro Display" font-size="60" font-weight="bold" line-spacing="55" fill="#E1ECF2">
                            <tspan x="45" y="131">?</tspan>
                        </text>
                    </g>
                </g>
            </g>
        </g>
    </g>
</svg>