<?xml version="1.0" encoding="UTF-8"?>
<svg width="270px" height="293px" viewBox="0 0 270 293" version="1.1" xmlns="http://www.w3.org/2000/svg" xmlns:xlink="http://www.w3.org/1999/xlink">
    <!-- Generator: Sketch 49.3 (51167) - http://www.bohemiancoding.com/sketch -->
    <title>2</title>
    <desc>Created with Sketch.</desc>
    <defs>
        <linearGradient x1="-54.8050193%" y1="105.157235%" x2="82.2497994%" y2="10.1837069%" id="linearGradient-1">
            <stop stop-color="#FFD85D" stop-opacity="0" offset="0%"></stop>
            <stop stop-color="#EFB789" stop-opacity="0.205644248" offset="100%"></stop>
        </linearGradient>
        <linearGradient x1="7.3541946%" y1="9.31804973%" x2="90.8969538%" y2="107.514456%" id="linearGradient-2">
            <stop stop-color="#FFFFFF" offset="0%"></stop>
            <stop stop-color="#F0F0F0" offset="100%"></stop>
        </linearGradient>
        <linearGradient x1="-0.100906754%" y1="50.0591108%" x2="99.8468619%" y2="50.0591108%" id="linearGradient-3">
            <stop stop-color="#CCD7FF" offset="0%"></stop>
            <stop stop-color="#C1D5FF" offset="3.573322%"></stop>
            <stop stop-color="#9DD0FF" offset="16.68%"></stop>
            <stop stop-color="#81CCFF" offset="29.9%"></stop>
            <stop stop-color="#6DC9FF" offset="43.11%"></stop>
            <stop stop-color="#61C8FF" offset="56.33%"></stop>
            <stop stop-color="#5DC7FF" offset="69.57%"></stop>
        </linearGradient>
        <linearGradient x1="-541.160152%" y1="49.857911%" x2="100.526384%" y2="49.857911%" id="linearGradient-4">
            <stop stop-color="#8CA3F5" offset="67.69%"></stop>
            <stop stop-color="#87A1F4" offset="76.13%"></stop>
            <stop stop-color="#789CF1" offset="86.3%"></stop>
            <stop stop-color="#6093EC" offset="97.33%"></stop>
            <stop stop-color="#5F93EC" offset="97.69%"></stop>
        </linearGradient>
        <linearGradient x1="-0.00169407855%" y1="49.9492318%" x2="103.08643%" y2="49.9492318%" id="linearGradient-5">
            <stop stop-color="#8CA3F5" offset="0%"></stop>
            <stop stop-color="#779BF1" offset="15.67%"></stop>
            <stop stop-color="#6595ED" offset="33.36%"></stop>
            <stop stop-color="#5F93EC" offset="46.32%"></stop>
        </linearGradient>
        <linearGradient x1="-14.2609444%" y1="49.8987764%" x2="186.955374%" y2="70.3959742%" id="linearGradient-6">
            <stop stop-color="#8CA3F5" offset="0%"></stop>
            <stop stop-color="#7F9EF2" offset="23.43%"></stop>
            <stop stop-color="#6D98EF" offset="30.1%"></stop>
            <stop stop-color="#6294ED" offset="37.18%"></stop>
            <stop stop-color="#5F93EC" offset="100%"></stop>
        </linearGradient>
        <linearGradient x1="3.22156678%" y1="72.9956468%" x2="100.046182%" y2="28.1256661%" id="linearGradient-7">
            <stop stop-color="#FFD7E3" offset="5.299162%"></stop>
            <stop stop-color="#FAD6BE" offset="100%"></stop>
        </linearGradient>
    </defs>
    <g id="landing" stroke="none" stroke-width="1" fill="none" fill-rule="evenodd">
        <g id="How-ty" transform="translate(-890.000000, -1676.000000)">
            <g id="Group-29" transform="translate(120.000000, 1645.000000)">
                <g id="Group-28">
                    <g id="2" transform="translate(770.000000, 31.000000)">
                        <circle id="Oval-2" fill="url(#linearGradient-1)" cx="135" cy="135" r="135"></circle>
                        <g id="Group-8" transform="translate(127.000000, 147.500000) scale(-1, 1) translate(-127.000000, -147.500000) translate(32.000000, 2.000000)" fill-rule="nonzero">
                            <path d="M6.47734108,213.16759 C9.59466563,212.994435 10.3153416,213.912916 14.036136,212.823583 C16.4213321,212.1946 18.6349486,210.989007 20.9086127,210.173138 C25.3844407,208.614328 29.9918166,207.372313 34.7107244,206.317184 C43.5164909,204.400636 52.3193682,203.5393 61.405357,203.44146 C70.6543621,203.327669 79.2827705,202.944936 87.5938142,199.428468 C87.8283306,199.339588 87.9913469,199.323637 88.174379,199.437594 C92.0896581,197.999566 96.7370658,197.017366 97.2860578,201.117434 C97.3746846,202.229625 96.8627308,203.202782 96.442293,204.232917 C95.0379793,207.469181 95.910219,208.834363 98.1122786,211.84962 C101.36961,216.344017 104.698442,220.765484 108.118789,225.243929 C114.107261,232.965546 121.940395,240.308869 126.521768,248.563765 C130.616981,255.8113 130.064787,264.041036 129.432529,271.75114 C129.381045,271.953977 129.401061,272.083885 129.329561,272.156814 C131.514494,273.986951 132.912925,276.619309 134.088292,278.877895 C134.909047,280.445914 136.684995,282.843534 135.132006,284.577884 C133.793519,286.093446 131.359728,285.870053 129.589454,285.120206 C128.093729,284.541294 126.792488,283.613687 125.419747,282.759009 C123.700958,281.806325 121.819152,280.869591 120.386364,279.62519 C120.294847,279.568212 120.294847,279.568212 120.274832,279.438304 C111.660765,278.303172 102.39164,282.045252 94.3895018,284.3447 C86.927897,286.393458 79.3347444,288.125422 71.5814648,288.818125 C63.9912014,289.494877 56.2808428,289.392182 48.7964372,288.608048 C39.9678699,287.691703 31.3452399,285.964011 22.4622991,286.305716 C22.2992828,286.321667 22.1362666,286.337618 22.0447505,286.280639 C19.5480225,286.722736 17.6204068,287.636612 15.3152742,288.785226 C14.0197076,289.505391 12.815657,290.282535 11.2055104,290.571949 C9.08629925,290.779308 7.42755758,290.216347 6.30078563,288.810136 C4.97096567,287.160062 5.28276073,284.887828 5.67461929,283.135225 C6.4497731,279.037459 8.49758845,275.144832 9.10972601,271.063017 C10.4684382,262.160968 6.1186925,254.872405 3.25899814,246.514981 C0.682415292,238.921052 1.03156155,230.447452 0.502689719,222.719094 C-0.738399062,218.423013 -0.0118403401,213.472872 6.47734108,213.16759 Z" id="Shape" fill="url(#linearGradient-2)"></path>
                            <g id="Слой_2" transform="translate(101.477273, 131.488636) scale(-1, 1) translate(-101.477273, -131.488636) translate(12.954545, 0.000000)">
                                <g id="Group">
                                    <path d="M11.0127831,244.611144 C9.19327977,244.706895 5.65003652,244.706895 4.11782323,246.143172 C1.43644996,248.824223 4.88392988,253.803316 6.41614317,256.101359 C9.57633309,260.601693 14.0772096,262.708233 19.4399562,262.899736 C26.4306793,263.186992 33.3256392,260.9847 40.4121256,260.9847 C45.6791088,260.9847 51.3291454,261.176204 55.8300219,258.016395 C56.3088386,257.633388 56.7876552,257.25038 57.1707085,256.963125 C60.9054785,249.78174 33.3256392,247.004938 20.3018262,244.515392 C17.2373996,244.41964 14.0772096,244.323888 11.0127831,244.611144 Z" id="Shape" fill="#FFEBDF"></path>
                                    <path d="M39.4544923,243.940881 C39.358729,243.940881 39.2629657,243.940881 39.1672023,243.940881 C37.1561724,243.653626 35.1451424,243.845129 33.0383492,244.132385 C28.9205259,244.611144 24.8027027,244.706895 20.6848795,244.611144 C20.5891161,244.611144 20.4933528,244.611144 20.3975895,244.611144 C33.4214025,247.10069 59.8520818,251.696776 57.2664719,257.058877 C65.693645,249.302982 44.6257122,244.802647 39.4544923,243.940881 Z" id="Shape" fill="#FFE2D1"></path>
                                    <path d="M161.935793,208.033958 C162.127319,207.267943 161.552739,206.597681 160.786633,206.501929 C160.690869,206.310426 160.595106,206.214674 160.499343,206.02317 C160.116289,205.544411 159.350183,206.118922 159.637473,206.693433 C159.637473,206.693433 159.637473,206.789185 159.733236,206.789185 C159.637473,206.884936 159.637473,206.884936 159.541709,206.980688 C157.626443,209.948994 155.711176,213.013051 153.317093,215.59835 C150.827246,218.375152 147.858583,218.853911 144.31534,219.428421 C137.324617,220.673195 130.23813,221.439209 123.151644,221.247706 C116.065157,221.056202 109.170197,219.90718 102.466764,217.513386 C97.4870709,215.789853 92.5073776,213.108803 87.2403944,212.247037 C87.2403944,211.959781 87.0488678,211.768278 86.6658145,211.672526 C72.3013148,207.746702 57.3622352,205.161404 42.7104456,202.193098 C31.4103725,199.799303 17.2373996,196.830998 6.32037984,202.193098 C-2.68137327,206.597681 -0.0957633309,215.789853 4.97969321,223.354245 C12.6407597,234.84446 23.1747261,238.674532 33.7086925,243.462122 C33.9002191,243.557874 72.3970782,255.814104 80.6327246,256.867373 C88.2937911,257.824891 109.361724,261.654963 132.344923,257.537636 C137.037327,256.67587 142.01702,256.005607 146.422133,253.994819 C150.444193,252.175535 153.987436,249.590237 158.105259,247.770953 C165.383272,244.515392 168.543462,238.674532 168.351936,230.727133 C167.968882,222.971238 166.245142,214.640832 161.935793,208.033958 Z" id="Shape" fill="url(#linearGradient-3)"></path>
                                    <path d="M162.223083,144.071759 C162.127319,143.497248 161.169686,143.593 161.169686,144.263262 C161.169686,144.933525 161.169686,145.508036 161.169686,146.178298 C160.116289,145.316532 158.775603,145.22078 157.339153,145.412284 C156.668809,145.029277 155.806939,145.029277 155.423886,145.891043 C155.328123,145.986795 155.328123,146.082546 155.232359,146.178298 C154.274726,146.657057 153.317093,147.32732 152.646749,148.189086 C152.455223,148.189086 152.263696,148.38059 152.263696,148.572093 C152.263696,148.667845 152.167933,148.763597 152.167933,148.859349 C152.167933,148.859349 152.167933,148.859349 152.167933,148.859349 C151.784879,148.859349 151.497589,149.050852 151.210299,149.433859 C150.539956,149.433859 149.77385,149.912618 149.77385,150.774384 C149.77385,152.880924 149.869613,154.891712 150.252666,156.902499 C149.007743,163.89238 148.62469,170.978013 149.295033,178.159398 C149.103506,179.691427 149.103506,181.223455 149.295033,182.851236 C149.390796,183.329995 149.678086,183.713002 150.06114,183.904506 C150.539956,184.479016 151.401826,184.862023 152.167933,184.191761 C157.147626,179.787178 161.361213,175.669851 162.318846,168.871474 C163.372243,160.924075 163.755296,151.923406 162.223083,144.071759 Z" id="Shape" fill="#FFE2D1"></path>
                                    <path d="M165.191746,143.688752 C164.425639,141.103453 163.851059,138.613906 163.563769,135.932856 C163.180716,131.528274 163.851059,127.219443 164.234112,122.910612 C164.329876,122.431853 163.851059,122.336101 163.468006,122.527605 C162.797663,118.123022 162.223083,113.622688 161.169686,109.313857 C160.499343,106.441303 158.967129,104.047508 157.147626,101.749465 C156.094229,103.664501 155.328123,105.771041 154.753543,107.87758 C153.891673,111.420397 153.508619,115.154717 153.221329,118.793285 C153.029803,121.570087 152.742513,124.251137 152.550986,127.027939 C151.976406,135.358345 151.880643,143.784503 152.167933,152.11491 C154.753543,152.402165 157.051863,151.157392 159.637473,150.104122 C161.361213,149.433859 164.808692,148.859349 165.670562,146.944313 C166.245142,146.082546 165.383272,144.359014 165.191746,143.688752 Z" id="Shape" fill="url(#linearGradient-4)"></path>
                                    <g transform="translate(76.610665, 84.261580)" id="Shape">
                                        <path d="M86.4742878,121.570087 C86.4742878,121.570087 86.4742878,121.474335 86.4742878,121.570087 C86.4742878,121.474335 86.4742878,121.474335 86.4742878,121.570087 C77.7598247,109.98412 74.4081081,95.8128541 74.5038714,81.5458367 C74.5038714,76.8539987 74.9826881,72.3536643 75.6530314,67.7575782 C75.7487947,67.7575782 75.7487947,67.7575782 75.8445581,67.7575782 C76.706428,59.6186756 77.0894814,50.7137587 77.6640614,42.3833525 C77.855588,39.6065505 76.706428,37.2127556 76.8979547,34.4359535 C77.1852447,30.7973853 77.4725347,27.0630653 78.430168,23.5202489 C79.004748,21.4137094 79.7708546,19.3071699 80.8242513,17.392134 C80.2496713,16.7218714 79.7708546,16.0516089 79.1962747,15.2855945 C73.1631848,8.0084581 66.268225,3.69962733 56.8834186,2.16759861 C43.3807889,-0.130444474 18.8653762,-3.09875012 12.0661797,12.7002961 C12.0661797,12.7960479 11.9704164,12.7960479 11.9704164,12.8917996 C11.9704164,12.8917996 11.9704164,12.8917996 11.9704164,12.8917996 C11.6831264,13.4663104 11.4915997,14.0408212 11.300073,14.7110838 C11.2043097,14.9983391 11.300073,15.1898427 11.4915997,15.3813463 C11.1085464,17.2963822 10.7254931,19.1156663 10.2466764,20.9349504 C10.3424397,20.8391986 10.5339664,20.8391986 10.6297297,20.7434468 C11.6831264,20.3604397 12.9280497,20.3604397 14.0772096,20.4561915 C17.2373996,20.5519432 20.4933528,20.647695 23.6535427,20.7434468 C26.4306793,20.8391986 29.2078159,20.9349504 31.7934259,21.605213 C34.3790358,22.2754756 37.0604091,23.7117525 38.5926224,25.9140438 C40.1248356,28.1163351 40.6994156,30.8931371 40.6036523,33.5741874 C40.507889,36.2552376 39.7417823,38.8405361 39.071439,41.5215864 C37.2519357,48.1284602 35.4324324,54.7353341 33.7086925,61.3422079 C32.3680058,66.1297977 30.9315559,71.2046428 27.196786,74.5559556 C24.323886,72.5451679 21.4509861,70.4386284 18.5780862,68.4278407 C15.6094229,66.3213013 12.5449963,64.11901 9.09751644,62.9699884 C8.81022644,62.8742366 8.42717312,62.682733 8.33140979,62.3954777 C8.23564646,62.1082223 8.33140979,61.8209669 8.42717312,61.5337115 C10.6297297,54.5438305 13.2153397,45.9261689 14.3644996,38.6490325 C14.6517896,36.7339966 16.6628196,31.9464069 16.2797663,30.031371 C15.9924763,28.2120868 14.2687363,26.8715617 13.4068663,25.2437812 C12.6407597,23.7117525 10.0551497,26.2970509 9.0017531,25.0522776 C7.18224982,30.8931371 5.07545654,36.6382448 3.16018992,42.5748561 C0.191526662,51.6712766 -0.861869978,60.6719454 2.58560993,69.8641177 C6.22461651,79.6308008 9.0017531,88.7272213 9.48056976,99.2599187 C9.86362308,108.452091 7.56530314,126.740684 7.66106647,126.836436 C7.66106647,127.315195 9.19327977,128.464216 10.9170197,130.091997 C11.3958364,130.475004 11.874653,130.858011 12.3534697,131.241018 C23.4620161,138.709658 36.2943024,141.677964 49.6054054,141.007701 C62.5334551,140.337439 80.6327246,135.932856 86.5700511,123.006364 C86.6658145,122.81486 86.6658145,122.623357 86.6658145,122.431853 C86.6658145,122.048846 86.6658145,121.761591 86.4742878,121.570087 Z" fill="url(#linearGradient-5)"></path>
                                        <path d="M15.3221329,27.0630653 C15.7051863,28.9781012 14.0772096,38.2660253 13.5026297,40.0853094 C10.5339664,49.0859782 7.66106647,57.7036397 7.66106647,61.5337115 C7.66106647,63.4487474 15.6094229,66.1297977 18.5780862,68.332089 C21.1636961,70.2471249 25.9518627,73.3111823 28.9205259,75.4177218 C29.3035793,75.7049772 29.9739226,75.5134736 30.1654492,75.0347146 C32.3680058,69.6726141 37.4434624,47.6497012 39.1672023,41.5215864 C39.8375457,38.9362879 40.6036523,36.3509894 40.6994156,33.5741874 C40.795179,30.7973853 40.3163623,28.1163351 38.6883857,25.9140438 C37.0604091,23.7117525 34.4747991,22.2754756 31.8891892,21.605213 C29.3035793,20.9349504 26.4306793,20.8391986 23.7493061,20.7434468 C20.5891161,20.647695 17.3331629,20.5519432 14.172973,20.4561915 C12.8322863,20.4561915 11.4915997,20.3604397 10.3424397,20.9349504 C10.3424397,20.9349504 10.3424397,20.9349504 10.3424397,20.9349504 C9.95938641,22.2754756 9.57633309,23.6160007 9.19327977,24.9565258 C10.0551497,26.2012992 15.034843,25.2437812 15.3221329,27.0630653 Z" fill="url(#linearGradient-6)"></path>
                                    </g>
                                    <path d="M103.903214,158.051521 C103.903214,157.955769 102.562527,157.094003 102.562527,157.094003 C100.072681,155.466222 97.6785975,153.838442 95.1887509,152.11491 C93.465011,150.870136 88.0065011,148.093334 87.3361578,147.997582 C86.9531045,150.870136 86.6658145,153.74269 86.3785245,156.615244 C92.5073776,157.668514 97.9658875,161.690089 103.137107,165.424409 C103.807451,161.402834 104.094741,158.338776 103.903214,158.051521 Z" id="Shape" fill="#FFE2D1"></path>
                                    <path d="M86.4742878,156.615244 C85.8997078,163.413621 85.6124178,170.211999 84.9420745,176.818873 C84.3674945,183.042739 85.4208912,190.990138 78.5259313,193.575437 C73.2589481,195.490473 67.5131483,195.969232 61.8631118,196.543742 C61.7673484,196.543742 61.7673484,196.543742 61.6715851,196.543742 C50.3715121,195.586225 38.9756757,193.862692 27.6756026,193.575437 C23.3662527,193.479685 18.7696129,193.76694 14.9390796,195.777728 C11.6831264,197.405509 10.2466764,200.086559 9.2890431,203.34212 C8.33140979,204.9699 7.85259313,207.172192 10.2466764,207.746702 C12.0661797,208.225461 14.9390796,205.927418 16.3755296,205.448659 C20.1102995,204.203886 23.8450694,204.9699 27.484076,205.831667 C33.2298758,207.267943 37.3476991,207.650951 43.0934989,206.310426 C49.5096421,204.778397 55.1596786,206.597681 61.0970051,208.033958 C61.2885318,208.225461 61.4800584,208.321213 61.7673484,208.416965 C69.0453616,210.236249 76.4191381,210.906512 83.8886779,209.853242 C88.9641344,209.182979 94.7099343,207.746702 97.3913075,202.863361 C100.551497,197.214005 100.168444,188.309088 100.934551,182.085221 C101.509131,177.872142 102.466764,170.78651 103.137107,165.328657 C98.0616508,161.690089 92.6989043,157.668514 86.4742878,156.615244 Z" id="Shape" fill="#FFEBDF"></path>
                                    <path d="M122.385537,3.79537912 C113.00073,1.21008066 101.509131,1.21008066 92.9861943,5.61466323 C91.166691,6.47642938 89.5387144,7.52969913 87.9107378,8.77447246 C78.3344047,16.0516089 73.3547115,29.7441156 77.9513514,40.8513238 C80.153908,46.1176725 84.3674945,51.0967659 83.6013879,56.8418736 C82.7395179,63.7360028 75.3657414,67.5660746 71.2479182,73.0239269 C65.2148283,81.0670777 66.555515,92.8445485 71.6309715,101.46221 C74.1208181,105.675289 77.6640614,109.505361 82.3564646,111.133141 C86.7615778,112.66517 92.315851,112.473666 94.8056976,116.303738 C95.6675676,117.644263 95.9548576,119.367796 96.5294375,120.899824 C98.0616508,125.304407 101.796421,128.65572 105.626954,131.241018 C112.521914,135.932856 121.810957,138.996914 129.08897,134.783835 C131.578817,133.347558 133.68561,131.145266 136.462747,130.475004 C140.389043,129.613238 144.219576,132.294288 148.241636,132.964551 C152.646749,133.634813 157.147626,131.815529 160.786633,129.325982 C173.618919,120.804073 179.939299,103.472998 175.246896,88.8229731 C174.097736,85.1844049 172.278232,81.6415885 170.650256,78.098772 C167.585829,54.7353341 178.119795,28.8823494 158.967129,10.6895084 C150.34843,3.02936476 138.85683,-1.75822499 127.07794,1.21008066 C124.49233,1.88034322 121.90672,2.93361297 119.416874,4.46564169 L122.385537,3.79537912 Z" id="Shape" fill="url(#linearGradient-7)"></path>
                                </g>
                            </g>
                        </g>
                    </g>
                </g>
            </g>
        </g>
    </g>
</svg>