<?xml version="1.0" encoding="UTF-8"?>
<svg width="331px" height="322px" viewBox="0 0 331 322" version="1.1" xmlns="http://www.w3.org/2000/svg" xmlns:xlink="http://www.w3.org/1999/xlink">
    <!-- Generator: Sketch 49.3 (51167) - http://www.bohemiancoding.com/sketch -->
    <title>3</title>
    <desc>Created with Sketch.</desc>
    <defs>
        <linearGradient x1="-22.1225587%" y1="70.5837465%" x2="100%" y2="9.52993869%" id="linearGradient-1">
            <stop stop-color="#277B92" stop-opacity="0" offset="0%"></stop>
            <stop stop-color="#FFF5CC" stop-opacity="0.205644248" offset="100%"></stop>
        </linearGradient>
        <linearGradient x1="-0.0618715437%" y1="50.3251918%" x2="100.003236%" y2="50.3251918%" id="linearGradient-2">
            <stop stop-color="#FFD7E3" offset="5.299162%"></stop>
            <stop stop-color="#FAD6BE" offset="100%"></stop>
        </linearGradient>
        <linearGradient x1="-0.0971496155%" y1="50.1358434%" x2="100.015238%" y2="50.1358434%" id="linearGradient-3">
            <stop stop-color="#CCD7FF" offset="0%"></stop>
            <stop stop-color="#C1D5FF" offset="3.573322%"></stop>
            <stop stop-color="#9DD0FF" offset="16.68%"></stop>
            <stop stop-color="#81CCFF" offset="29.9%"></stop>
            <stop stop-color="#6DC9FF" offset="43.11%"></stop>
            <stop stop-color="#61C8FF" offset="56.33%"></stop>
            <stop stop-color="#5DC7FF" offset="69.57%"></stop>
        </linearGradient>
        <linearGradient x1="0%" y1="50%" x2="100%" y2="50%" id="linearGradient-4">
            <stop stop-color="#AEAEAE" offset="0%"></stop>
            <stop stop-color="#A8A8A8" offset="100%"></stop>
        </linearGradient>
        <linearGradient x1="0%" y1="49.9889447%" x2="99.8558233%" y2="49.9889447%" id="linearGradient-5">
            <stop stop-color="#AEAEAE" offset="0%"></stop>
            <stop stop-color="#A8A8A8" offset="100%"></stop>
        </linearGradient>
        <linearGradient x1="-0.0471036585%" y1="50.0039861%" x2="100.07622%" y2="50.0039861%" id="linearGradient-6">
            <stop stop-color="#C2C2C2" offset="0%"></stop>
            <stop stop-color="#D1D1D1" offset="100%"></stop>
        </linearGradient>
        <linearGradient x1="-0.0459138187%" y1="50%" x2="100%" y2="50%" id="linearGradient-7">
            <stop stop-color="#C2C2C2" offset="0%"></stop>
            <stop stop-color="#D1D1D1" offset="100%"></stop>
        </linearGradient>
        <linearGradient x1="0%" y1="50.02723%" x2="100.061074%" y2="50.02723%" id="linearGradient-8">
            <stop stop-color="#F4F4F4" offset="0%"></stop>
            <stop stop-color="#D1D1D1" offset="100%"></stop>
        </linearGradient>
        <linearGradient x1="142.94658%" y1="128.424346%" x2="22.294535%" y2="8.87641075%" id="linearGradient-9">
            <stop stop-color="#EBEEF3" offset="0%"></stop>
            <stop stop-color="#FFFFFF" offset="100%"></stop>
        </linearGradient>
        <linearGradient x1="0.0559488932%" y1="50.1266586%" x2="99.9779104%" y2="50.1266586%" id="linearGradient-10">
            <stop stop-color="#8CA3F5" offset="0%"></stop>
            <stop stop-color="#86A1F4" offset="20.7%"></stop>
            <stop stop-color="#759BF0" offset="48.76%"></stop>
            <stop stop-color="#5F93EC" offset="74.02%"></stop>
        </linearGradient>
        <linearGradient x1="0%" y1="50%" x2="100%" y2="50%" id="linearGradient-11">
            <stop stop-color="#AA7050" offset="0%"></stop>
            <stop stop-color="#BB7F57" offset="7.210463%"></stop>
            <stop stop-color="#CC8E5E" offset="17.7%"></stop>
            <stop stop-color="#D79963" offset="30.76%"></stop>
            <stop stop-color="#DE9F66" offset="49.1%"></stop>
            <stop stop-color="#E0A167" offset="100%"></stop>
        </linearGradient>
    </defs>
    <g id="landing" stroke="none" stroke-width="1" fill="none" fill-rule="evenodd">
        <g id="How-ty" transform="translate(-829.000000, -2157.000000)">
            <g id="Group-22" transform="translate(120.000000, 2050.000000)">
                <g id="3" transform="translate(709.000000, 107.000000)">
                    <circle id="Oval-2" fill="url(#linearGradient-1)" cx="169" cy="173" r="135"></circle>
                    <path d="M271.853836,31.3529877 C269.689492,26.0468533 263.964452,22.2068877 258.797953,20.1821785 C255.097622,18.7858274 250.489663,18.5763747 249.372583,14.0382335 C248.674407,11.3153487 248.395137,8.9415518 246.370428,6.91684264 C241.832286,2.37870141 234.710895,2.86742431 228.846221,3.84487011 C225.285525,4.47322813 221.864465,5.52049149 218.513222,6.91684264 C216.488513,7.75465332 214.324169,8.73209913 212.090007,9.22082203 C210.693656,9.56990982 209.227487,9.15100447 208.319859,8.03392355 C202.245731,0.982350262 192.331638,-1.67071692 183.394991,2.09943118 C178.437944,4.1939579 174.737614,8.10374111 171.805276,12.5022472 C170.758013,14.108051 169.920202,15.9233075 168.384216,17.110206 C166.708595,18.366922 164.614068,18.7858274 162.659176,19.4141854 C159.657021,20.3916312 156.724684,21.4388946 153.862164,22.8352457 C143.738618,27.9319274 137.734308,38.9631015 142.55172,50.1339106 C144.436794,54.5324167 148.765482,57.325119 153.582894,56.9062137 C156.515231,56.6269435 159.168298,55.0211396 162.100636,54.9513221 C166.150054,54.9513221 169.431479,57.9534771 172.922357,59.5592809 C177.320863,61.58399 181.719369,61.58399 185.070612,57.7440244 C186.885869,55.7193152 188.142585,53.2757007 189.957841,51.2509916 C192.261821,48.7375595 195.054523,46.6430328 198.126495,45.1768641 C202.175914,43.29179 206.993325,42.5237969 211.182379,44.4088709 C215.301615,46.2241274 216.27906,49.4357351 217.884864,53.2757007 C219.630303,57.6742068 223.819357,60.7461793 228.078228,62.4916183 C232.546551,64.3068748 237.922503,64.7955977 242.251192,62.4218007 C247.278056,59.6290984 248.953677,53.2058832 254.329629,51.1113564 C257.192149,49.9942755 260.264121,50.0640931 263.126641,48.9470122 C265.640073,47.9695664 267.944053,46.3637625 269.689492,44.2692358 C272.621829,40.9179931 273.669092,35.7514938 271.853836,31.3529877 Z" id="Shape" fill="url(#linearGradient-2)" fill-rule="nonzero"></path>
                    <g id="Group" transform="translate(175.715060, 25.069408)">
                        <path d="M33.3029749,36.3051298 C30.7895428,37.8411161 25.8324962,38.1902039 23.3190642,39.7960077 C19.0601932,42.4490749 21.5038077,47.1966688 24.7154153,50.5479115 C25.9023138,50.1988237 27.0892122,49.7799184 28.2062932,49.2911955 C32.814252,47.3363039 39.8658252,45.102142 41.4716291,39.7960077 C42.6585275,35.8164069 41.7508993,31.1386306 41.3319939,27.0892122 C40.0752779,30.440455 37.6316634,33.7218802 33.3029749,36.3051298 Z" id="Shape"></path>
                        <path d="M14.1031466,50.0591886 C17.4543893,36.7240352 10.3329985,23.8077871 5.30613436,12.0086199 C5.16649924,11.7293496 5.58540459,11.4500794 5.7250397,11.7991672 C10.402816,22.6208886 16.1278557,33.5822451 15.2202275,45.7305001 C15.0107748,49.0119253 14.1729641,52.0838978 12.9162481,54.8766001 C16.4769435,52.8518909 20.7358145,51.8744451 24.7154153,50.6177291 C21.5038077,47.2664863 19.0601932,42.5188924 23.3190642,39.8658252 C25.9023138,38.2600214 30.7895428,37.9109336 33.3029749,36.3749474 C37.6316634,33.7916978 40.0054604,30.5102726 41.3319939,27.1590298 C41.3319939,26.9495771 41.2621764,26.6703069 41.2621764,26.4608542 C41.2621764,26.2514016 41.5414466,26.2514016 41.6112642,26.4608542 C43.5661558,20.4565443 42.1698046,14.3125993 41.3319939,11.3104443 C40.6338184,8.86682978 40.3545481,7.54029619 39.0978321,5.30613436 C37.701481,2.93233741 34.9087787,-5.44576947 21.0150848,5.51558703 C17.7336596,8.09883665 14.1729641,11.6595321 9.9839107,10.7519038 C8.09883665,8.37810688 7.67993131,3.56069542 3.70033054,4.88722901 C0.418905344,5.93449237 -0.209452672,10.2631809 0.279270229,13.3351535 C0.628358016,15.7089504 1.74543893,17.4543893 3.07197252,19.3394634 C5.02686413,22.1321657 6.63266795,24.924868 7.47047864,28.2761107 C9.14610001,35.0484138 7.19120841,41.960352 1.88507405,46.3588581 C1.81525649,46.4286756 1.81525649,46.4286756 1.74543893,46.4984932 C1.53598626,46.4984932 1.32653359,46.6381283 1.39635115,46.9173985 C1.88507405,52.2235329 3.35124275,58.0882077 6.56285039,62.2772612 C10.402816,59.2052886 12.9162481,54.736965 14.1031466,50.0591886 Z" id="Shape" fill="#FFEBDF" fill-rule="nonzero"></path>
                        <path d="M12.4275252,55.8540459 C11.0311741,58.4372955 9.21591757,60.7412749 6.84212062,62.4867138 C8.58755955,64.6510581 10.8915389,66.3266795 13.7540588,67.1644902 C16.8260313,68.0721184 19.9678214,67.0248551 23.0397939,65.6285039 C27.8572054,63.4641596 29.5328268,54.5275123 29.2535565,54.3878772 C29.183739,54.2482421 28.7648336,53.8293367 28.555381,53.6897016 C27.5779352,53.1311611 26.3212191,52.0838978 25.1343206,50.8969993 C24.0870573,51.2460871 22.9699764,51.6649924 21.8528954,51.9442627 C18.5714703,53.0613436 15.2202275,54.0387894 12.4275252,55.8540459 Z" id="Shape" fill="#FFEBDF" fill-rule="nonzero"></path>
                        <path d="M41.6112642,26.3212191 C41.5414466,26.5306718 41.4716291,26.809942 41.3319939,27.0193947 C41.7508993,31.1386306 42.6585275,35.8164069 41.4716291,39.7261901 C39.8658252,45.0323245 32.814252,47.2664863 28.2062932,49.2213779 C27.0892122,49.7101008 25.9023138,50.1290062 24.7154153,50.478094 C24.8550504,50.6177291 24.9946855,50.7573642 25.2041382,50.9668169 C28.555381,49.7799184 31.7669886,48.3137497 34.9785962,46.7777634 C38.1902039,45.1719596 40.9829062,43.5661558 42.0301695,39.9356428 C43.1472504,35.6069542 42.0999871,30.7197252 41.6112642,26.3212191 C41.6112642,26.3910367 41.6112642,26.3910367 41.6112642,26.3212191 Z" id="Shape" fill="#FFFFFF" fill-rule="nonzero"></path>
                        <path d="M41.2621764,26.3910367 C41.2621764,26.6004893 41.3319939,26.8797596 41.3319939,27.0892122 C41.4018115,26.8797596 41.5414466,26.6004893 41.6112642,26.3910367 C41.5414466,26.181584 41.2621764,26.181584 41.2621764,26.3910367 Z" id="Shape" fill="#FFEBDF" fill-rule="nonzero"></path>
                    </g>
                    <g id="Group" transform="translate(0.000000, 47.740654)" fill-rule="nonzero">
                        <path d="M138.641937,180.07894 C137.804126,177.984413 137.385221,176.099339 137.175768,173.865178 C137.455038,173.585907 137.10595,173.097184 136.687045,173.23682 C133.12635,174.772806 130.82237,177.914596 127.890033,180.288393 C126.004959,181.824379 123.910432,183.430183 121.746088,184.686899 C119.930831,185.734162 115.741778,187.549419 115.741778,187.689054 C111.133819,190.691209 109.528015,195.997343 107.712759,201.094025 C105.827685,206.330342 105.827685,211.566659 109.458198,216.1048 C109.66765,216.314252 109.877103,216.314252 110.086556,216.244435 C110.226191,216.244435 110.296008,216.314252 110.435643,216.244435 C112.53017,215.406624 113.158528,212.544104 113.996339,210.519395 C115.532325,206.609612 116.439953,202.280923 118.53448,198.580593 C120.559189,194.95008 124.678425,193.065006 128.169303,191.179932 C131.939451,189.155223 135.849234,187.689054 139.6892,185.873797 C139.6892,185.873797 139.759018,185.873797 139.759018,185.80398 C140.108105,185.734162 140.387376,185.454892 140.317558,185.035987 C139.96847,183.290548 139.340112,181.684744 138.641937,180.07894 Z" id="Shape" fill="#FFEBDF"></path>
                        <path d="M185.629153,194.461357 C183.744079,193.763181 181.719369,193.483911 180.043748,192.227195 C178.158674,190.900662 177.879404,188.94577 176.692505,187.130513 C176.483053,186.781426 175.854695,186.711608 175.645242,187.130513 C175.226337,188.038142 174.388526,190.202486 174.528161,190.272304 C173.201627,194.391539 172.084547,198.720228 170.26929,202.630011 C168.454034,206.609612 163.287534,213.870638 163.217717,214.010273 C160.355197,222.039292 158.819211,238.516236 169.571114,241.378756 C169.99002,241.448573 170.26929,241.23912 170.339108,240.95985 C170.827831,240.471127 170.967466,239.423864 171.037283,238.655871 C171.526006,233.489372 170.129655,228.462507 171.246736,223.296008 C173.201627,214.080091 179.345573,205.771801 184.86116,198.231505 C185.14043,198.37114 187.793497,195.299168 185.629153,194.461357 Z" id="Shape" fill="#FFEBDF"></path>
                        <path d="M206.57442,123.805989 C205.876244,113.19372 204.759163,102.232364 201.966461,91.9691828 C202.106096,91.5502775 202.036279,90.991737 201.477738,90.8521019 C198.266131,90.0142912 194.984705,90.0142912 191.773098,89.4557508 C188.84076,88.9670279 185.97824,88.1990347 183.115721,87.5008591 C177.111411,86.104508 170.26929,85.2666973 165.242426,81.4965492 C164.893338,81.2870965 164.54425,81.5663668 164.474433,81.845637 C157.283224,86.5234133 154.211252,96.0186011 153.722529,104.117438 C153.024353,116.265693 156.724684,128.6234 159.168298,140.35275 C159.168298,140.422568 159.238116,140.422568 159.238116,140.492385 C159.657021,143.564358 160.285379,146.845783 159.936292,149.917755 C159.447569,154.804984 155.677421,156.550423 152.186543,159.273308 C149.39384,161.437652 146.740773,163.671814 144.157524,166.045611 C141.085551,168.838313 138.083396,171.770651 134.592518,174.07463 C134.173613,174.3539 135.779417,184.617081 139.270295,186.222885 C139.549565,186.36252 140.457193,186.36252 140.736463,186.153068 C147.578584,181.824379 154.420705,177.635326 161.12319,173.167002 C166.708595,169.466671 173.480898,164.998348 176.901958,159.063855 C178.507762,156.271153 178.647397,153.199181 178.926667,150.057391 C179.275755,145.658884 179.624843,141.260378 179.904113,136.861872 C180.183383,132.184096 180.532471,127.50632 180.811741,122.758726 C181.440099,125.900516 182.347727,129.112123 182.976085,132.184096 C184.302619,138.397858 185.4197,144.681439 187.444409,150.685749 C187.723679,154.316262 188.072767,157.597687 186.397146,161.2282 C184.930977,164.36999 183.115721,167.372145 181.509917,170.444117 C178.577579,176.099339 174.597979,188.875952 174.597979,188.94577 C175.156519,193.553729 180.741924,197.184242 184.86116,198.09187 C185.000795,198.161688 185.838605,198.09187 185.97824,197.742782 C187.653862,194.182087 190.306929,191.040297 192.471273,187.758871 C194.635618,184.337811 196.730144,180.916751 198.685036,177.425873 C202.106096,171.351746 205.666792,165.137983 206.015879,158.08641 C206.155515,157.946775 206.29515,157.807139 206.29515,157.527869 C207.13296,146.496695 207.272595,135.116433 206.57442,123.805989 Z" id="Shape" fill="url(#linearGradient-3)"></path>
                        <path d="M278.346869,3.85942545 C275.833437,5.53504683 271.784018,12.3073499 269.829127,14.6113293 C267.525147,17.4738491 264.87208,19.4287407 262.079378,21.7327201 C256.214703,26.480314 250.908569,31.0184553 243.856996,33.9507927 C236.246882,37.0925827 228.28768,38.2794812 220.119026,37.1624003 C217.745229,34.7187858 209.297305,49.8691957 214.463804,49.3106553 C214.533621,49.3106553 214.603439,49.2408377 214.673257,49.2408377 C216.697966,49.7295606 218.86231,49.5899255 221.026654,49.520108 C224.517532,49.3804728 228.00841,49.1012026 231.499288,48.6822973 C236.665787,48.0539392 241.971921,47.4255812 246.789333,45.1914194 C246.928968,45.1216018 246.998786,45.0517843 247.068603,44.9121492 C247.487508,44.7026965 247.836596,44.3536087 248.185684,44.0743385 C248.744225,43.5856156 249.232947,43.1667102 249.791488,42.6081698 C251.327474,41.3514537 252.86346,40.0249202 254.399447,38.7682041 C257.401602,36.2547721 260.752844,33.74134 263.196459,30.6693675 C263.196459,30.6693675 263.196459,30.6693675 263.196459,30.6693675 C267.17606,27.6672125 270.59712,24.3159698 274.087998,20.7552743 C276.531612,18.2418423 278.626139,17.5436667 281.837747,16.4265858 C283.443551,15.8680453 289.028955,14.1924239 290.285671,13.0055255 C290.564941,12.7960728 290.983847,11.6091743 289.587496,11.6091743 C288.819502,11.6091743 284.420996,12.9357079 283.792638,13.0055255 C284.700267,12.446985 285.46826,11.6789919 286.375888,11.2600865 C289.517678,9.58446515 291.123482,7.14085064 292.03111,5.2557766 C293.008556,3.30088499 291.75184,0.996905598 289.657313,0.787452926 C286.515523,0.368547582 282.047199,1.41581094 278.346869,3.85942545 Z" id="Shape" fill="#FFEBDF"></path>
                        <path d="M158.470123,48.4728446 C158.121035,48.3332095 157.841765,47.9143041 157.771947,47.4953988 C157.632312,46.1688652 157.70213,44.7725141 157.562495,43.8648858 C157.42286,42.5383522 157.562495,40.0947377 156.934137,38.7682041 C156.585049,38.000211 156.096326,37.8605759 155.607603,38.0700285 C155.328333,37.8605759 154.979245,37.8605759 154.699975,38.1398461 C149.882563,44.3536087 143.668801,48.1935744 137.594673,52.8713507 C130.752553,58.2473026 123.561344,63.2741668 116.090866,67.6726729 C112.53017,69.7671996 108.969475,72.071179 105.199327,73.8166179 C100.591368,75.9111446 89.839464,74.0958881 84.8824174,74.3053408 C83.2766136,74.3751584 78.5988373,74.2355233 77.9006617,76.3998675 C77.6213915,77.3074958 77.2024861,78.4943943 79.2970128,79.8907454 C80.693364,81.2870965 88.2336602,81.7060019 90.0489167,82.1249072 C91.2358151,82.3343599 92.4227136,82.5438126 93.6096121,82.6136301 C93.469977,82.6834477 90.0489167,82.5438126 87.8845724,82.5438126 C86.5580388,82.5438126 86.2787686,84.4288866 87.5354846,84.7779744 C87.6053022,84.7779744 87.6053022,84.7779744 87.6053022,84.7779744 C91.09618,85.3365149 98.7761113,85.47615 103.174617,82.8929004 C106.176772,81.1474614 110.226191,80.3794683 113.437798,79.1925698 C113.507616,79.1227523 129.775107,71.3730034 137.455038,66.5555919 C141.015734,64.3214301 144.506611,61.8778156 147.857854,59.294566 C151.139279,56.7113164 154.071617,53.778979 157.213407,51.0560942 C157.353042,50.9164591 157.492677,50.8466415 157.632312,50.776824 C157.911582,50.7070064 158.190853,50.4277362 158.26067,50.148466 C158.400305,50.0786484 158.470123,49.9390133 158.609758,49.8691957 C159.377751,49.4502904 159.028663,48.7521148 158.470123,48.4728446 Z" id="Shape" fill="#FFEBDF"></path>
                        <path d="M126.563499,116.963868 L116.230501,114.310801 C115.532325,114.101348 115.11342,113.403173 115.322872,112.704997 L121.11773,90.363379 C121.327182,89.6652034 122.025358,89.2462981 122.723534,89.4557508 L133.056532,92.1088179 C133.754708,92.3182706 134.173613,93.0164462 133.96416,93.7146218 L128.169303,116.05624 C127.95985,116.684598 127.261675,117.103503 126.563499,116.963868 Z" id="Shape" fill="#FFFFFF"></path>
                        <g id="Group-5" transform="translate(0.000000, 112.778393)">
                            <polygon id="Shape" fill="url(#linearGradient-4)" points="45.4545873 52.363168 15.4330376 53.7595192 17.5275643 52.0838978 47.549114 50.2686413"></polygon>
                            <polygon id="Shape" fill="url(#linearGradient-5)" points="17.4577468 52.4329856 15.4330376 53.7595192 0.0731749985 13.2653359 1.67897882 12.0784374"></polygon>
                            <polygon id="Shape" fill="url(#linearGradient-6)" points="47.0603911 50.8271817 16.8293888 52.363168 1.26007347 12.0784374 30.7929002 15.3598626"></polygon>
                            <polygon id="Shape" fill="url(#linearGradient-7)" points="77.5706637 31.4179008 46.8509384 50.9668169 30.5834476 15.5693153 56.6253964 0"></polygon>
                            <polygon id="Shape" fill="url(#linearGradient-8)" points="74.4986911 30.5102726 47.8982018 47.4061214 32.887427 16.0580382 55.9272209 2.79270229"></polygon>
                            <polygon id="Shape" fill="url(#linearGradient-4)" points="41.2655338 47.475939 28.6983735 48.1741146 16.1312132 16.7562138 28.0001979 17.4543893"></polygon>
                            <polygon id="Shape" fill="url(#linearGradient-4)" points="22.4147933 36.3051298 14.0366865 36.3051298 9.84763303 25.1343206 17.5275643 25.8324962"></polygon>
                        </g>
                        <path d="M316.006046,228.730035 C314.609695,227.473319 313.841702,227.752589 312.584986,225.72788 C311.747175,224.471164 311.258452,222.935178 310.560276,221.608644 C309.163925,219.025395 307.558121,216.58178 305.812683,214.207983 C302.531257,209.809477 298.761109,206.039329 294.502238,202.618269 C290.17355,199.127391 286.263766,195.706331 283.959787,190.539831 C283.88997,190.400196 283.820152,190.330379 283.680517,190.330379 C282.493618,188.026399 280.748179,185.72242 278.583835,187.956582 C278.025295,188.58494 277.815842,189.352933 277.536572,190.120926 C276.698761,192.56454 275.651498,193.053263 273.207883,194.030709 C269.57737,195.496878 265.946857,196.893229 262.246527,198.28958 C255.823311,200.663377 248.701921,202.129546 242.697611,205.341153 C237.391476,208.133856 233.830781,213.230537 230.549356,218.047949 C230.479538,218.187584 230.409721,218.257402 230.409721,218.327219 C228.524647,218.606489 226.639573,219.653753 225.033769,220.561381 C223.916688,221.189739 221.961796,221.957732 221.891979,223.563536 C221.822161,224.959887 223.078877,225.72788 224.265776,225.937333 C225.243221,226.146786 226.290485,226.076968 227.337748,226.076968 C228.594464,226.146786 229.920998,226.286421 231.177714,226.076968 C231.247531,226.076968 231.247531,226.076968 231.317349,226.00715 C235.925308,228.520583 238.578375,234.175805 241.30126,238.504493 C243.884509,242.484094 246.677211,246.32406 250.028454,249.605485 C253.309879,252.817092 257.01021,255.609795 260.919993,257.913774 C265.527952,260.636659 270.415181,262.801003 274.464599,266.291881 C274.534417,266.361699 274.604234,266.431516 274.674052,266.431516 C275.651498,267.618415 276.140221,268.875131 276.698761,270.411117 C276.978031,271.318745 277.187484,272.226373 277.815842,272.994367 C278.72347,273.901995 279.770734,274.181265 280.957632,273.76236 C282.353983,273.273637 283.261612,271.807468 283.88997,270.62057 C285.425956,267.897685 286.263766,264.825712 287.86957,262.172645 C291.360448,256.377788 296.806218,253.654903 302.042534,249.74512 C306.790128,246.184425 310.560276,241.017925 314.400242,236.619419 C316.983492,234.524892 318.938383,231.313285 316.006046,228.730035 Z" id="Shape" fill="url(#linearGradient-9)"></path>
                        <path d="M221.864465,35.9755018 C221.72483,35.9755018 221.585195,35.9056843 221.515377,35.9056843 C221.44556,35.8358667 221.375742,35.8358667 221.305924,35.8358667 C217.605594,35.1376911 214.044899,34.0904278 210.623838,32.484624 C208.529311,31.5071782 203.43263,30.0410095 203.572265,30.5297324 C204.898799,34.0904278 202.245731,39.6758324 199.732299,41.9798118 C195.962151,45.4706896 191.005105,44.9121492 187.095321,42.0496293 C181.370282,37.8605759 176.413235,30.3202797 178.507762,23.3385239 C178.577579,23.1988888 178.85685,22.4308957 178.507762,22.6403484 C174.248891,25.0141453 169.152209,26.6897667 164.963156,29.2031988 C162.868629,30.4599148 160.84392,31.7864484 158.749393,33.0431644 C157.492677,33.8809751 154.769792,34.9282385 154.001799,36.3944072 C152.675266,38.7682041 153.862164,43.7950683 154.211252,46.3783179 C154.56034,49.1710202 155.258515,51.7542698 157.562495,53.5695263 C157.70213,53.7091614 157.911582,53.7091614 158.051218,53.7091614 C158.051218,53.7091614 158.051218,53.778979 158.121035,53.778979 C158.121035,53.778979 158.121035,53.778979 158.121035,53.778979 C158.330488,53.9186141 158.679576,53.778979 158.819211,53.5695263 C158.958846,53.3600736 160.355197,52.8015331 160.56465,52.661898 C161.12319,52.3826278 161.611913,52.03354 162.170453,51.7542698 C163.287534,51.1259118 164.404615,50.4975538 165.521696,49.7993782 C166.010419,49.4502904 166.56896,49.1012026 167.057682,48.6822973 C168.593669,53.9884316 170.54856,59.294566 170.26929,64.9497881 C170.059837,70.7446454 168.523851,77.6565836 163.427169,81.0776439 C162.938447,81.4267317 163.008264,81.9154546 163.287534,82.1947248 C166.918047,87.9895821 176.064147,90.9219195 182.417545,92.3182706 C188.701125,93.7146218 197.917043,95.0411553 203.502447,91.1313721 C204.130805,90.7124668 203.851535,89.8746561 203.43263,89.6652034 C203.43263,89.5255683 203.43263,89.3859332 203.362812,89.3161156 C200.989015,85.2666973 200.500292,80.5191034 201.826826,76.0507797 C202.455184,73.7468004 203.572265,71.8617263 204.759163,69.9766523 C207.202778,66.9744973 210.484203,64.6007003 212.090007,60.9701874 C213.486358,57.8283973 213.067453,54.2677019 211.810737,51.1259118 C212.997635,51.7542698 214.324169,52.03354 215.72052,52.1033576 C215.99979,52.1033576 216.558331,51.6146347 216.697966,51.405182 C218.443405,48.403027 219.909573,45.3310545 221.026654,42.0496293 C221.305924,40.8627308 222.423005,36.1151369 221.864465,35.9755018 Z" id="Shape" fill="url(#linearGradient-10)"></path>
                    </g>
                    <g id="Group-4" transform="translate(272.318560, 101.775623)" fill-rule="nonzero">
                        <polygon id="Shape" fill="url(#linearGradient-11)" points="45.9926613 55.6048227 0.0885311561 27.9446417 7.15070502 0.284460764 31.8683135 14.997323 58.3514655 36.1838446"></polygon>
                        <polygon id="Shape" fill="#E8E8E8" points="41.2845454 61.4899676 26.5716831 52.6033988 30.6912846 16.174352 54.2318641 36.7723591"></polygon>
                        <polygon id="Shape" fill="#EFEFEF" points="35.987915 63.8440255 25.9831687 53.2507647 30.6912846 16.174352 45.4041468 38.5379025"></polygon>
                        <polygon id="Shape" fill="#F5F5F5" points="29.3965527 63.0201053 24.2176252 53.8392792 30.6912846 16.174352 36.5764295 39.126417"></polygon>
                        <polygon id="Shape" fill="#FBFBFB" points="24.2176252 62.6669966 22.4520817 54.4277937 30.6912846 16.174352 33.633857 35.5953301"></polygon>
                        <polygon id="Shape" fill="#E8E8E8" points="17.7439658 28.5331562 0.0885311561 38.5379025 8.327734 5.58109116 30.6912846 16.174352"></polygon>
                        <polygon id="Shape" fill="#EFEFEF" points="18.9209948 36.7723591 1.26556013 46.7771054 8.91624849 13.2317795 30.6912846 16.174352"></polygon>
                        <polygon id="Shape" fill="#F5F5F5" points="20.6865383 39.126417 3.0311036 49.7196778 10.0932775 17.3513809 30.6912846 16.174352"></polygon>
                        <polygon id="Shape" fill="#FBFBFB" points="23.0405962 39.7149315 4.20813258 52.6622503 11.2703064 20.2939534 30.6912846 16.174352"></polygon>
                        <polygon id="Shape" fill="#FFFFFF" points="23.0405962 39.7149315 10.681792 57.9588806 17.1554513 25.5905838 30.6912846 16.174352"></polygon>
                        <polygon id="Shape" fill="#FCFCFC" points="21.2750527 59.7244241 22.4520817 39.7149315 30.6912846 16.174352 29.5142556 35.0068156"></polygon>
                    </g>
                    <path d="M179.485208,88.9524725 C174.597979,91.396087 168.803121,91.1866344 163.98571,93.9095191 C160.145744,96.0738634 158.679576,99.7043763 157.213407,103.61416 C155.188698,108.850476 153.163989,114.226428 149.812746,118.834387 C145.902963,124.280157 140.177923,126.444501 135.081241,130.563737 C131.869634,133.146986 129.565654,136.637864 129.844924,140.896735 C129.844924,141.315641 130.5431,141.315641 130.473282,140.896735 C129.844924,132.518628 138.641937,129.376838 144.227341,125.257602 C147.997489,122.4649 150.790192,118.76457 153.024353,114.645334 C155.39815,110.17701 156.934137,105.429416 158.889028,100.821457 C162.030818,93.3509786 168.942756,92.7924382 175.854695,90.8375466 C178.368127,90.139371 180.602289,89.0222901 182.487363,87.5561214 C182.417545,87.4164863 182.27791,87.3466687 182.208092,87.2070336 C181.440099,87.9052092 180.462653,88.4637496 179.485208,88.9524725 Z" id="Shape" fill="#FFFFFF" fill-rule="nonzero"></path>
                    <path d="M180.951376,37.776203 C182.976085,37.776203 182.976085,34.6344129 180.951376,34.6344129 C178.926667,34.7042305 178.926667,37.776203 180.951376,37.776203 Z" id="Shape" fill="#FFFFFF" fill-rule="nonzero"></path>
                    <path d="M188.631308,79.8761901 C189.957841,77.0834878 190.725834,73.9416977 190.935287,70.7300901 C191.773098,58.5818351 186.048058,47.6204786 181.440099,36.7987572 C181.300464,36.519487 180.881559,36.7289396 181.021194,37.0082099 C186.048058,48.807377 193.099631,61.7934427 189.818206,75.0587786 C188.631308,79.7365549 186.117876,84.2746962 182.27791,87.2070336 C182.347727,87.3466687 182.487363,87.4164863 182.55718,87.5561214 C184.86116,85.7408649 186.746234,83.506703 188.142585,80.9234534 C191.005105,79.0383794 194.356347,78.0609336 197.70759,77.0834878 C198.824671,76.7344 199.871934,76.3853122 200.989015,76.0362244 C200.84938,75.8965893 200.709745,75.7569542 200.500292,75.5475015 C196.450874,76.8740351 192.192003,77.8514809 188.631308,79.8761901 Z" id="Shape" fill="#FFFFFF" fill-rule="nonzero"></path>
                </g>
            </g>
        </g>
    </g>
</svg>