<?xml version="1.0" encoding="UTF-8"?>
<svg width="270px" height="304px" viewBox="0 0 270 304" version="1.1" xmlns="http://www.w3.org/2000/svg" xmlns:xlink="http://www.w3.org/1999/xlink">
    <!-- Generator: Sketch 49.3 (51167) - http://www.bohemiancoding.com/sketch -->
    <title>4</title>
    <desc>Created with Sketch.</desc>
    <defs>
        <linearGradient x1="-22.1225587%" y1="70.5837465%" x2="100%" y2="9.52993869%" id="linearGradient-1">
            <stop stop-color="#5D97FF" stop-opacity="0" offset="0%"></stop>
            <stop stop-color="#FFCCFB" stop-opacity="0.205644248" offset="100%"></stop>
        </linearGradient>
        <linearGradient x1="50%" y1="3.07428534%" x2="50%" y2="97.8156888%" id="linearGradient-2">
            <stop stop-color="#5380CE" offset="0%"></stop>
            <stop stop-color="#8CA3F5" offset="100%"></stop>
        </linearGradient>
        <linearGradient x1="50%" y1="3.07428534%" x2="50%" y2="97.8156888%" id="linearGradient-3">
            <stop stop-color="#6C9FF7" offset="0%"></stop>
            <stop stop-color="#8CA3F5" offset="100%"></stop>
        </linearGradient>
        <linearGradient x1="105.013225%" y1="14.6720674%" x2="50%" y2="97.8156888%" id="linearGradient-4">
            <stop stop-color="#D3EEFF" offset="0%"></stop>
            <stop stop-color="#8CA3F5" offset="100%"></stop>
        </linearGradient>
        <linearGradient x1="83.3160932%" y1="29.5442696%" x2="-62.5876608%" y2="200.736425%" id="linearGradient-5">
            <stop stop-color="#5F93EC" offset="0%"></stop>
            <stop stop-color="#8CA3F5" offset="100%"></stop>
        </linearGradient>
        <linearGradient x1="111.952393%" y1="28.1578366%" x2="-28.7715301%" y2="87.3459861%" id="linearGradient-6">
            <stop stop-color="#C0DDFB" offset="0%"></stop>
            <stop stop-color="#8CA3F5" offset="100%"></stop>
        </linearGradient>
        <linearGradient x1="50%" y1="3.07428534%" x2="50%" y2="97.8156888%" id="linearGradient-7">
            <stop stop-color="#B6C8FA" offset="0%"></stop>
            <stop stop-color="#8CA3F5" offset="100%"></stop>
        </linearGradient>
        <linearGradient x1="-19.3540163%" y1="43.317101%" x2="125.979489%" y2="59.9668802%" id="linearGradient-8">
            <stop stop-color="#5181E5" offset="0%"></stop>
            <stop stop-color="#8CA3F5" offset="100%"></stop>
        </linearGradient>
        <linearGradient x1="110.7372%" y1="54.8185155%" x2="0%" y2="50%" id="linearGradient-9">
            <stop stop-color="#FFEBDF" offset="0%"></stop>
            <stop stop-color="#FFEBDF" offset="97.7000957%"></stop>
        </linearGradient>
        <linearGradient x1="110.7372%" y1="54.8185155%" x2="0%" y2="50%" id="linearGradient-10">
            <stop stop-color="#FAD6BE" offset="0%"></stop>
            <stop stop-color="#FFD7E3" offset="100%"></stop>
        </linearGradient>
        <linearGradient x1="151.029577%" y1="44.7281969%" x2="0%" y2="50%" id="linearGradient-11">
            <stop stop-color="#FAD6BE" offset="0%"></stop>
            <stop stop-color="#FFB3CA" offset="100%"></stop>
        </linearGradient>
        <linearGradient x1="-57.3570179%" y1="44.9346937%" x2="112.290621%" y2="44.934693%" id="linearGradient-12">
            <stop stop-color="#5DC7FF" offset="0%"></stop>
            <stop stop-color="#CCD7FF" offset="100%"></stop>
        </linearGradient>
        <linearGradient x1="131.734154%" y1="21.5899968%" x2="-5.78817946%" y2="73.605159%" id="linearGradient-13">
            <stop stop-color="#C0D0FB" offset="0%"></stop>
            <stop stop-color="#8CA3F5" offset="100%"></stop>
        </linearGradient>
        <linearGradient x1="71.3573874%" y1="0%" x2="50%" y2="100%" id="linearGradient-14">
            <stop stop-color="#EAF1FA" offset="0%"></stop>
            <stop stop-color="#D1DEF4" offset="100%"></stop>
        </linearGradient>
        <linearGradient x1="104.444343%" y1="-23.9637159%" x2="-9.56748956%" y2="116.720073%" id="linearGradient-15">
            <stop stop-color="#B9D6FB" offset="0%"></stop>
            <stop stop-color="#83ACF5" offset="100%"></stop>
        </linearGradient>
    </defs>
    <g id="landing" stroke="none" stroke-width="1" fill="none" fill-rule="evenodd">
        <g id="How-ty" transform="translate(-871.000000, -2726.000000)">
            <g id="Group-23" transform="translate(120.000000, 2642.000000)">
                <g id="4" transform="translate(751.000000, 84.000000)">
                    <g id="Group-37" transform="translate(0.000000, 12.000000)">
                        <g id="h2">
                            <circle id="Oval-2" fill="url(#linearGradient-1)" cx="135" cy="135" r="135"></circle>
                            <polygon id="Fill-1" fill="url(#linearGradient-2)" points="187.610759 138.41536 168.764126 220.049464 70.6343314 187.526044 72.9091666 135.487297 130.421633 130.28355"></polygon>
                            <polygon id="Fill-2" fill="url(#linearGradient-3)" points="46.0202842 114.509595 117.749515 92.2318486 120.850522 135.813869 117.749515 139.065574 70.6335677 187.526426"></polygon>
                            <path d="M222.378693,99.3861092 C222.378693,99.3861092 225.627366,62.3087728 190.210207,51.9012782 C154.791775,41.4937837 132.417683,61.3340258 121.834035,75.6443308 C111.251659,89.9546358 189.559709,124.103909 189.559709,124.103909 L200.283386,127.681804 L222.378693,99.3861092 Z" id="Fill-3" fill="url(#linearGradient-4)"></path>
                            <path d="M117.74977,139.066084 C117.74977,139.066084 103.345875,90.9301473 125.819261,71.416095 C148.293919,51.9020428 176.433388,62.7529516 191.835308,84.7503789 C207.235954,106.747806 194.759368,150.773241 194.759368,150.773241 L117.74977,139.066084 Z" id="Fill-5" fill="url(#linearGradient-5)"></path>
                            <polygon id="Fill-7" fill="url(#linearGradient-3)" points="237.650258 147.847216 240.574319 226.229615 210.707401 268.44699 194.759368 216.147036"></polygon>
                            <path d="M162.828423,160.455855 L222.378947,99.3857269 C222.378947,99.3857269 241.874807,92.882317 250.648261,117.925032 C259.420443,142.967747 207.375474,210.932458 207.375474,210.932458 L162.828423,160.455855 Z" id="Fill-9" fill="url(#linearGradient-6)"></path>
                            <path d="M101.589062,235.898452 L53.5768868,221.576823 L49.9348592,161.686585 C49.9348592,161.686585 28.6033469,141.89731 36.9274359,124.190043 C45.2527978,106.484051 71.7882979,108.56606 78.5516998,124.190043 C85.3163746,139.814027 84.7957213,173.144003 84.7957213,173.144003 C91.0219929,199.504657 96.5462366,213.455922 101.368453,214.997798 C113.195546,218.779443 113.269083,225.746327 101.589062,235.898452 Z" id="Fill-12" fill="url(#linearGradient-7)"></path>
                            <polygon id="Fill-15" fill="url(#linearGradient-8)" points="159.717996 197.099716 162.827913 254.165099 86.0843702 231.273198 84.7961032 173.143875"></polygon>
                            <path d="M95.7303331,267.965987 C95.7303331,267.965987 94.6444717,275.244098 94.4038764,276.933659 C94.170919,278.563334 93.3969404,282.695497 88.2795161,284.545605 C83.1620917,286.394439 79.1827215,292.086197 72.787214,291.232497 C66.3904336,290.377523 64.6846255,286.962723 67.5272147,283.833339 C70.3698039,280.702681 80.6084715,275.765237 83.8253201,270.56149 C85.9563073,267.11611 87.2356633,264.951279 87.2356633,264.951279 L95.7303331,267.965987 Z" id="Fill-17" fill="#FFEBDF"></path>
                            <path d="M73.9167391,178.208992 C73.9052822,185.447603 76.4181666,193.602349 85.3023717,208.492405 C95.7599938,226.018738 111.701738,245.637499 114.259177,248.905768 C114.483223,249.192459 115.506279,249.736475 115.824527,249.559364 L121.818122,246.088528 C122.164376,245.896127 121.996341,245.142101 121.818122,244.786605 C119.391801,239.937079 103.712369,207.135405 101.97601,201.456389 C100.015603,195.045994 97.5549113,183.034308 97.8757051,176.459544 C98.1952259,169.883506 85.4525847,165.660876 85.4525847,165.660876 C85.4525847,165.660876 73.932015,168.983935 73.9167391,178.208992 Z" id="Fill-20" fill="#FFEBDF"></path>
                            <path d="M103.685942,205.636328 C106.763173,212.89083 112.918281,226.023652 117.261532,235.132626 C116.133971,238.293709 114.922144,242.533433 113.626051,247.851799 C111.053884,244.608534 103.605466,235.299678 96.0109571,224.548721 C97.4853073,217.822449 100.043635,211.518318 103.685942,205.636328 Z" id="Fill-20" fill="#F9DBCA"></path>
                            <path d="M117.244392,195.446086 C117.244392,195.446086 105.068232,207.151969 100.742608,219.339492 C96.8536205,230.294883 88.7019652,259.816876 87.0407118,265.377394 C86.8790419,265.917646 86.8932055,269.416847 87.4278618,269.595232 L93.8383292,268.804642 C94.3169739,268.963914 95.3773223,268.83875 95.6204636,268.395336 C97.1951536,265.510594 104.319713,254.244353 108.432748,249.165475 C113.239562,243.232897 113.907883,233.853665 118.676507,227.036807 C123.76338,219.763793 130.861579,216.517185 130.861579,216.517185 L117.244392,195.446086 Z" id="Fill-22" fill="url(#linearGradient-9)"></path>
                            <path d="M180.202205,90.5963124 C180.202205,90.5963124 194.336226,108.394045 207.808291,90.5963124 C221.279083,72.7985793 199.19396,59.432441 194.005248,50.6100252 C188.815263,41.7863352 187.048352,23.1030477 178.435294,15.9765642 C169.822236,8.84880658 150.722277,5.96788773 138.353895,16.3690114 C125.986786,26.7714092 121.816467,44.6213836 118.277552,50.9820855 C114.73991,57.3427873 99.1470413,76.0541068 112.482896,93.8658558 C125.820024,111.678879 180.202205,90.5963124 180.202205,90.5963124" id="Fill-24" fill="url(#linearGradient-10)"></path>
                            <path d="M176.196739,63.3445529 C170.530655,55.7224138 174.746802,40.3494435 168.817209,36.9766915 C162.887617,33.6013912 159.231586,40.9699687 159.231586,40.9699687 L148.757415,51.8476353 L148.150198,59.9055437 L143.037866,28.4677238 C143.037866,28.4677238 133.107262,35.976461 131.130307,47.3485091 C129.153352,58.7205571 132.580244,68.4680269 131.130307,73.5915009 C129.68037,78.7149749 128.889843,83.2064561 128.889843,83.2064561 L144.966447,81.084948 L149.449922,73.5583723 L166.709136,84.9648232 C166.709136,84.9648232 188.319433,89.588819 188.319433,81.084948 C188.319433,72.5823511 181.862822,70.9666921 176.196739,63.3445529" id="Fill-26" fill="url(#linearGradient-11)"></path>
                            <path d="M165.478154,74.0158025 C165.478154,74.0158025 157.0204,72.574706 158.494524,67.209138 C159.968648,61.8448442 167.311261,57.9496788 169.785956,52.3980807 C172.26065,46.8464825 173.094459,40.8374541 170.773797,37.6252487 C167.741532,33.4306512 163.533023,34.261416 161.652815,37.0251103 L160.293261,39.0242973 C160.293261,39.0242973 161.875589,32.8508997 156.367356,29.0347335 C151.210469,25.4619354 142.20533,24.1762887 137.381966,31.9538777 C132.558603,39.7327408 132.107964,45.8513487 132.538235,51.4500914 C132.96596,57.0488342 139.32837,63.2120383 142.447198,64.6263771 C145.348345,65.9413299 145.63986,69.7269158 143.628534,71.8713592 C141.619754,74.0183509 132.539508,78.331447 132.539508,78.331447 L130.49763,93.8662381 L166.648032,92.6595905 L165.478154,74.0158025 Z" id="Fill-28" fill="#FFEBDF"></path>
                            <path d="M184.208181,74.8993183 C184.205635,74.8993183 165.478663,74.0163122 165.478663,74.0163122 C165.478663,74.0163122 159.209181,88.1800866 147.716618,89.4287821 C136.224054,90.6787518 134.025598,79.4838146 134.025598,79.4838146 C133.813008,78.797032 133.667887,77.7827855 133.667887,77.7827855 L125.189767,80.2852732 C125.189767,80.2852732 123.844215,95.2568771 123.844215,100.252933 C123.844215,104.745689 123.951146,106.018593 123.951146,106.018593 C123.951146,106.018593 124.315222,116.842745 124.315222,128.663304 C124.315222,140.486411 119.332734,145.631546 116.575436,148.201565 C113.816864,150.775407 105.724459,156.248006 99.1634629,158.217887 C92.6024666,160.187768 83.4165627,165.660367 83.4165627,165.660367 C83.4165627,165.660367 91.7279217,180.108283 100.038008,187.332878 C108.349367,194.557474 120.213644,205.154821 123.220449,212.288949 C125.272511,217.156313 126.977046,225.25627 128.097278,228.812503 C128.607748,230.431985 130.578338,231.058881 131.91116,230.006409 C132.368164,229.647091 148.799933,215.572509 154.710431,202.65743 C160.620929,189.741077 165.678522,179.255857 166.648542,167.423831 C167.618561,155.59053 171.336968,130.91223 174.617466,122.563808 C177.897964,114.215387 183.973951,91.5375484 184.208181,74.8993183" id="Fill-30" fill="url(#linearGradient-12)"></path>
                            <path d="M121.568743,244.348823 C121.568743,244.348823 127.733839,250.676397 130.064686,255.087605 C132.791433,260.249304 127.727474,261.315792 126.808375,267.582204 C126.038215,272.826725 125.709783,280.436123 121.776241,280.786522 C118.182587,281.105067 113.127539,280.452687 114.503643,271.913139 C116.415675,260.046709 118.032374,258.132893 116.439862,254.165099 C114.633488,249.663424 114.002084,248.553614 114.002084,248.553614 L121.568743,244.348823 Z" id="Fill-32" fill="#FFEBDF"></path>
                            <path d="M213.180869,170.733724 C206.422873,158.76789 190.355319,146.076006 170.083761,154.921164 C149.812204,163.765106 159.689181,197.061235 159.689181,197.061235 L162.794797,254.070123 L210.626876,268.338155 L207.297694,210.881719 C207.297694,210.881719 223.342163,187.149501 213.180869,170.733724" id="Fill-34" fill="url(#linearGradient-13)"></path>
                            <path d="M151.412899,171.101889 L149.781982,180.51264 C149.565758,181.582696 148.319961,182.220111 147.010679,181.936346 L120.386174,175.844128 C119.215212,175.560364 118.669504,174.462875 119.15604,173.39282 L123.164253,163.982069 C123.58923,162.912013 124.765429,162.274598 125.802629,162.558363 L149.555349,168.65058 C150.730868,168.934345 151.567564,170.031833 151.412899,171.101889 Z" id="Rectangle-10" fill="#FFFFFF" transform="translate(135.204815, 172.247354) rotate(11.000000) translate(-135.204815, -172.247354) "></path>
                            <path d="M208.447842,127.66817 C208.447842,127.666896 208.447842,127.664347 208.447842,127.663073 C208.447842,127.656702 208.445296,127.649057 208.444023,127.642686 C208.44275,127.636315 208.441477,127.629944 208.440204,127.623574 C208.408379,127.42735 208.360005,127.191627 208.298902,126.929146 C208.283626,126.856518 208.273442,126.791535 208.256893,126.718906 C208.251801,126.702342 208.244163,126.688326 208.239071,126.673036 C206.985175,121.510062 201.480761,106.397025 201.480761,106.397025 C201.480761,106.397025 193.765162,85.0341385 190.296261,79.3551225 C186.82736,73.6761064 181.386596,74.0978597 178.505817,76.4805745 C175.625039,78.8632894 175.561389,82.0946074 175.561389,82.0946074 C175.561389,82.0946074 173.733374,96.4240251 181.028886,106.516797 C186.622409,114.252338 189.760332,121.097228 192.563458,125.834626 C192.509993,125.84482 192.462892,125.855013 192.408154,125.866481 C185.544185,127.322867 175.753611,132.935626 170.566172,139.110298 C165.37746,145.286244 164.490185,153.6181 166.03305,158.531335 C167.575916,163.442021 178.173567,165.603029 181.03907,160.489748 C183.904573,155.375193 180.887584,147.541541 184.953518,144.172611 C189.020724,140.804956 192.418337,138.800672 195.027969,137.967359 C198.109881,136.982419 201.527862,136.19625 204.67215,135.017635 C207.756608,133.859406 209.218001,132.05262 208.447842,127.66817" id="Fill-36" fill="#FFEBDF"></path>
                            <path d="M125.189385,80.2846361 C125.189385,80.2846361 115.271511,83.649743 106.300742,92.046583 C101.95857,96.1112142 97.4585459,100.802741 92.9330624,102.837605 C88.0205897,105.04958 71.2094688,115.232819 71.2094688,115.232819 L61.1159222,120.140957 C61.1159222,120.140957 51.4157298,126.206049 51.4157298,133.188551 C51.4157298,135.461686 55.7235318,140.962317 59.4292089,138.603812 C63.2660042,136.162484 65.9354666,131.067042 65.9354666,131.067042 C65.9354666,131.067042 65.6235838,135.431106 67.9760714,135.127851 C70.0026733,134.866644 70.8339365,129.009243 70.8339365,129.009243 C70.8339365,129.009243 71.1572762,126.743753 73.917121,124.417102 C78.9810797,121.003576 97.6023939,114.794502 104.890268,109.569093 C110.371768,105.640799 123.425019,102.251483 123.968586,100.693162 L125.189385,80.2846361 Z" id="Fill-38" fill="#FFEBDF"></path>
                            <path d="M139.96356,120.797537 C159.117552,98.187502 124.647031,80.964049 132.522968,48.231679" id="Path-4" stroke="#FFFFFF" stroke-linecap="round"></path>
                            <path d="M158.420347,66.9735931 C159.89447,61.6092993 161.801411,32.6153548 156.293178,28.7991885 C151.136291,25.2263905 142.131152,23.9407438 137.307789,31.7183328 C132.484425,39.4971959 132.033787,45.6158037 132.464058,51.2145465 C132.891783,56.8132893 139.254192,62.9764934 142.37302,64.3908322 C145.274167,65.7057849 156.946223,72.3391611 158.420347,66.9735931 Z" id="Fill-28" fill="#FFEBDF"></path>
                            <path d="M122.584926,165.888581 C120.359141,160.39123 119.994334,154.58909 121.490506,148.482163 C123.698457,139.469964 129.188331,132.993478 139.96356,120.797537 C156.093598,102.540755 171.336984,79.0604366 168.6882,44.7583085" id="Path-4" stroke="#FFFFFF" stroke-linecap="round"></path>
                        </g>
                    </g>
                    <g id="time" transform="translate(4.000000, 0.000000)" fill-rule="nonzero">
                        <path d="M39,78 C54.7937177,78 68.394716,68.6118522 74.5268906,55.1116608 C76.7576332,50.2006048 78,44.7453876 78,39 C78,28.8170924 74.0973933,19.5456873 67.7062653,12.5998705 C60.578742,4.85374615 50.3561976,0 39,0 C17.4608948,0 0,17.4608948 0,39 C0,46.7220134 2.24425543,53.9198529 6.11609758,59.9768498 C13.0440314,70.8147073 25.1829082,78 39,78 Z" id="Oval" fill="url(#linearGradient-14)"></path>
                        <path d="M0,39 C0,39.3967241 0.0174827586,39.788069 0.0295862069,40.1821034 L39,40.1821034 L39,0 C17.4612414,0 0,17.4612414 0,39 Z" id="Shape" fill="url(#linearGradient-15)"></path>
                    </g>
                </g>
            </g>
        </g>
    </g>
</svg>