<?xml version="1.0" encoding="UTF-8"?>
<svg width="281px" height="346px" viewBox="0 0 281 346" version="1.1" xmlns="http://www.w3.org/2000/svg" xmlns:xlink="http://www.w3.org/1999/xlink">
    <!-- Generator: Sketch 49.3 (51167) - http://www.bohemiancoding.com/sketch -->
    <title>Group 32</title>
    <desc>Created with Sketch.</desc>
    <defs>
        <linearGradient x1="36.3582224%" y1="100%" x2="62.9753164%" y2="-17.8258299%" id="linearGradient-1">
            <stop stop-color="#E3EFFD" offset="0%"></stop>
            <stop stop-color="#F7F9FE" offset="100%"></stop>
        </linearGradient>
        <linearGradient x1="49.898847%" y1="0.0151187228%" x2="49.898847%" y2="99.8263104%" id="linearGradient-2">
            <stop stop-color="#CCD7FF" offset="0%"></stop>
            <stop stop-color="#BDD5FF" offset="9.232128%"></stop>
            <stop stop-color="#94CFFF" offset="37.23%"></stop>
            <stop stop-color="#76CBFF" offset="62.67%"></stop>
            <stop stop-color="#63C8FF" offset="84.44%"></stop>
            <stop stop-color="#5DC7FF" offset="100%"></stop>
        </linearGradient>
        <linearGradient x1="-0.0542958288%" y1="50.0463114%" x2="99.9492366%" y2="50.0463114%" id="linearGradient-3">
            <stop stop-color="#FFD7E3" offset="5.299162%"></stop>
            <stop stop-color="#FAD6BE" offset="100%"></stop>
        </linearGradient>
        <linearGradient x1="49.9663505%" y1="100.034348%" x2="49.9663505%" y2="0.000669688283%" id="linearGradient-4">
            <stop stop-color="#FFEBDF" offset="0%"></stop>
            <stop stop-color="#FFE2D1" offset="100%"></stop>
        </linearGradient>
        <linearGradient x1="0.113744223%" y1="49.996373%" x2="100.00764%" y2="49.996373%" id="linearGradient-5">
            <stop stop-color="#8CA3F5" offset="0%"></stop>
            <stop stop-color="#7F9FF2" offset="30.02%"></stop>
            <stop stop-color="#5F93EC" offset="83.59%"></stop>
        </linearGradient>
        <linearGradient x1="-0.00518165011%" y1="49.7894118%" x2="100%" y2="49.7894118%" id="linearGradient-6">
            <stop stop-color="#5DC7FF" offset="0%"></stop>
            <stop stop-color="#6BC9FF" offset="18.26%"></stop>
            <stop stop-color="#90CEFF" offset="52.82%"></stop>
            <stop stop-color="#CCD7FF" offset="99.74%"></stop>
            <stop stop-color="#CCD7FF" offset="100%"></stop>
        </linearGradient>
        <linearGradient x1="0.127739427%" y1="49.9824396%" x2="100.085673%" y2="49.9824396%" id="linearGradient-7">
            <stop stop-color="#CCD7FF" offset="0%"></stop>
            <stop stop-color="#C1D5FF" offset="5.136102%"></stop>
            <stop stop-color="#9DD0FF" offset="23.97%"></stop>
            <stop stop-color="#81CCFF" offset="42.97%"></stop>
            <stop stop-color="#6DC9FF" offset="61.97%"></stop>
            <stop stop-color="#61C8FF" offset="80.97%"></stop>
            <stop stop-color="#5DC7FF" offset="100%"></stop>
        </linearGradient>
        <path d="M66.4641417,28.3349376 C66.3920554,28.4070239 66.3199691,28.4070239 66.2478828,28.4791102 C52.046881,20.2612716 38.1342244,11.7550877 26.5283295,0.0050202488 C26.6004158,-0.211238662 22.4914965,6.63696018 0.144742392,5.55566563 C0.0726560884,5.55566563 0.00056978474,5.48357933 0.00056978474,5.55566563 C-0.143602823,5.55566563 27.10502,30.6416993 44.4057328,36.9132077 C44.1173876,36.985294 66.752487,28.190765 66.4641417,28.3349376 Z" id="path-8"></path>
        <path d="M69.4364674,21.9656683 C69.3643811,22.0377546 69.2922948,22.0377546 69.2202085,22.1098409 C55.0192067,13.8920023 41.1065501,5.38581845 29.5006552,-6.36424905 C29.5727415,-6.58050796 25.4638222,0.267690889 3.11706806,-0.813603665 C3.04498176,-0.813603665 2.97289546,-0.885689969 2.97289546,-0.813603665 C2.82872285,-0.813603665 30.0773456,24.27243 47.3780585,30.5439384 C47.0897133,30.6160247 69.7248126,21.8214957 69.4364674,21.9656683 Z" id="path-10"></path>
        <filter x="-65.4%" y="-101.6%" width="230.9%" height="335.7%" filterUnits="objectBoundingBox" id="filter-11">
            <feOffset dx="0" dy="6" in="SourceAlpha" result="shadowOffsetOuter1"></feOffset>
            <feGaussianBlur stdDeviation="13.5" in="shadowOffsetOuter1" result="shadowBlurOuter1"></feGaussianBlur>
            <feColorMatrix values="0 0 0 0 0.191410039   0 0 0 0 0.300729998   0 0 0 0 0.410049957  0 0 0 0.140200408 0" type="matrix" in="shadowBlurOuter1"></feColorMatrix>
        </filter>
        <path d="M66.4641417,28.3349376 C66.3920554,28.4070239 66.3199691,28.4070239 66.2478828,28.4791102 C52.046881,20.2612716 38.1342244,11.7550877 26.5283295,0.0050202488 C26.6004158,-0.211238662 22.4914965,6.63696018 0.144742392,5.55566563 C0.0726560884,5.55566563 0.00056978474,5.48357933 0.00056978474,5.55566563 C-0.143602823,5.55566563 27.10502,30.6416993 44.4057328,36.9132077 C44.1173876,36.985294 66.752487,28.190765 66.4641417,28.3349376 Z" id="path-12"></path>
        <path d="M68.5872315,22.3902862 C68.5151452,22.4623725 68.4430589,22.4623725 68.3709726,22.5344588 C54.1699708,14.3166202 40.2573142,5.8104364 28.6514193,-5.93963109 C28.7235056,-6.15589 24.6145863,0.692308842 2.26783216,-0.388985712 C1.97948694,-0.388985712 29.2281097,24.697048 46.5288226,30.9685564 C46.2404774,31.0406427 68.8755767,22.2461136 68.5872315,22.3902862 Z" id="path-14"></path>
        <filter x="-65.6%" y="-101.6%" width="231.2%" height="335.7%" filterUnits="objectBoundingBox" id="filter-15">
            <feOffset dx="0" dy="6" in="SourceAlpha" result="shadowOffsetOuter1"></feOffset>
            <feGaussianBlur stdDeviation="13.5" in="shadowOffsetOuter1" result="shadowBlurOuter1"></feGaussianBlur>
            <feColorMatrix values="0 0 0 0 0.191410039   0 0 0 0 0.300729998   0 0 0 0 0.410049957  0 0 0 0.140200408 0" type="matrix" in="shadowBlurOuter1"></feColorMatrix>
        </filter>
        <path d="M37.7307613,0.376231256 C33.2614105,3.90846013 28.7199734,5.78270403 23.0972417,7.0802575 C20.2858758,7.72903423 17.7628552,8.23363835 14.8794031,7.87320684 C12.1401235,7.51277532 6.22904662,5.85479033 6.22904662,6.07104924 C6.01278771,6.07104924 5.8686151,6.21522185 6.01278771,6.43148076 C9.7612755,13.0634207 9.25667138,21.4975182 7.95911791,28.7061486 C6.66156444,35.914779 4.13854382,42.8350641 0.46214233,49.1786588 C0.46214233,49.1786588 0.0296245083,49.467004 0.245883419,49.683263 C0.173797116,49.9716082 22.7368102,50.2599534 33.4055831,49.7553493 C33.621842,49.7553493 33.621842,49.6111766 33.621842,49.467004 C33.6939283,49.467004 33.6939283,49.3949177 33.7660146,49.3228314 C39.9654367,33.7521898 37.7307613,0.0878860414 37.7307613,0.376231256 Z" id="path-16"></path>
        <path d="M29.4408364,14.2888879 C24.5389677,17.1002537 19.7091854,18.2536346 13.9422811,18.6861524 C11.058829,18.9024113 8.46372204,19.0465839 5.7244425,18.1815483 C3.05724926,17.3885989 -2.49339612,14.8655783 -2.49339612,15.0097509 C-2.70965503,15.0097509 -2.85382764,15.0818372 -2.78174133,15.2980961 C-0.114548099,22.3625539 -1.91670569,30.6524788 -4.22346741,37.5727639 C-6.60231543,44.5651354 -10.2066306,50.9087301 -14.820154,56.6756344 C-14.820154,56.6756344 -15.3247582,56.8918933 -15.1084993,57.1081522 C-15.1805856,57.3964974 7.02199596,61.0728989 17.6186826,62.2262798 C17.8349415,62.2262798 17.9070278,62.0821072 17.9070278,61.9379346 C17.9791141,61.9379346 17.9791141,61.8658483 18.0512004,61.793762 C26.4852979,47.6648464 29.4408364,14.0726289 29.4408364,14.2888879 Z" id="path-18"></path>
        <filter x="-97.5%" y="-78.2%" width="295.1%" height="281.5%" filterUnits="objectBoundingBox" id="filter-19">
            <feOffset dx="0" dy="6" in="SourceAlpha" result="shadowOffsetOuter1"></feOffset>
            <feGaussianBlur stdDeviation="13.5" in="shadowOffsetOuter1" result="shadowBlurOuter1"></feGaussianBlur>
            <feColorMatrix values="0 0 0 0 0.191410039   0 0 0 0 0.300729998   0 0 0 0 0.410049957  0 0 0 0.140200408 0" type="matrix" in="shadowBlurOuter1"></feColorMatrix>
        </filter>
        <path d="M44.7270827,0.276495411 C39.8252141,3.08786125 34.9954317,4.24124211 29.2285274,4.67375993 C26.3450753,4.89001884 23.7499683,5.03419145 21.0106888,4.16915581 C18.3434956,3.37620647 12.7928502,0.85318584 12.7928502,0.997358448 C12.5765913,0.997358448 12.4324187,1.06944475 12.504505,1.28570366 C15.1716982,8.35016142 13.3695406,16.6400863 11.0627789,23.5603715 C8.68393088,30.5527429 5.0796157,36.8963377 0.466092265,42.663242 C0.466092265,42.663242 -0.0385118609,42.8795009 0.17774705,43.0957598 C0.105660746,43.384105 22.3082423,47.0605065 32.9049289,48.2138873 C33.1211878,48.2138873 33.1932741,48.0697147 33.1932741,47.9255421 C33.2653604,47.9255421 33.2653604,47.8534558 33.3374467,47.7813695 C41.7715443,33.652454 44.7270827,0.0602365003 44.7270827,0.276495411 Z" id="path-20"></path>
        <path d="M38.8880921,5.9713134 C33.8420509,8.63850663 29.0843548,9.64771489 23.3174505,9.9360601 C20.4339984,10.0802327 17.8388914,10.152319 15.0996119,9.21519706 C12.4324187,8.35016142 7.0259459,5.68296818 6.95385959,5.82714079 C6.73760068,5.82714079 6.59342807,5.8992271 6.66551438,6.11548601 C9.1164487,13.2520301 7.0980322,21.541955 4.57501157,28.3901538 C1.97990464,35.310439 -1.76858315,41.5819474 -6.52627919,47.2046791 C-6.52627919,47.2046791 -7.03088331,47.420938 -6.8146244,47.6371969 C-6.88671071,47.8534558 15.1716982,52.2507203 25.7683848,53.6924464 C25.9846438,53.6924464 26.0567301,53.5482738 26.0567301,53.4041012 C26.1288164,53.4041012 26.1288164,53.3320149 26.2009027,53.2599286 C34.9954317,39.2030994 38.9601784,5.75505449 38.8880921,5.9713134 Z" id="path-22"></path>
        <filter x="-95.1%" y="-78.3%" width="290.1%" height="281.7%" filterUnits="objectBoundingBox" id="filter-23">
            <feOffset dx="0" dy="6" in="SourceAlpha" result="shadowOffsetOuter1"></feOffset>
            <feGaussianBlur stdDeviation="13.5" in="shadowOffsetOuter1" result="shadowBlurOuter1"></feGaussianBlur>
            <feColorMatrix values="0 0 0 0 0.191410039   0 0 0 0 0.300729998   0 0 0 0 0.410049957  0 0 0 0.140200408 0" type="matrix" in="shadowBlurOuter1"></feColorMatrix>
        </filter>
        <linearGradient x1="0%" y1="-87.0342213%" x2="50%" y2="100%" id="linearGradient-24">
            <stop stop-color="#F6F7FA" offset="0%"></stop>
            <stop stop-color="#FFFFFF" offset="100%"></stop>
        </linearGradient>
        <path d="M35.3346249,4.59167382 C32.2276813,6.20939133 29.1671101,7.78088835 26.0137942,9.30616487 C19.6607902,12.4029384 13.2150416,15.1761684 6.49105928,17.3023115 C6.49105928,17.2098705 6.81566533,24.55893 5.28537969,27.8405856 C4.03332781,30.5213746 0.0916829931,35.4207477 0.184427577,35.3283066 C0.184427577,35.3283066 0.184427577,35.3283066 0.230799869,35.2820861 C6.44468699,35.9291732 12.6585741,33.2946046 18.5478552,31.6306666 C24.9008592,29.7818466 30.3264174,26.3153091 35.983837,23.0336535 C35.983837,23.0336535 36.0302093,22.987433 36.0302093,22.987433 C36.0302093,23.079874 42.336841,8.19687286 43.9134989,0.154505769 C44.0526158,0.0158442676 38.1633347,3.1588383 35.3346249,4.59167382 Z" id="path-25"></path>
        <path d="M25.1054105,-6.92461432 C21.9984669,-5.3068968 18.9378956,-3.73539979 15.7845798,-2.21012327 C9.43157579,0.886650263 2.9858272,3.65988029 -3.73815513,5.78602332 C-3.73815513,5.69358231 -3.41354909,13.0426419 -4.94383472,16.3242974 C-6.19588661,19.0050865 -10.1375314,23.9044595 -10.0447868,23.8120185 C-10.0447868,23.8120185 -10.0447868,23.8120185 -9.99841455,23.765798 C-3.78452742,24.412885 2.4293597,21.7783165 8.31864078,20.1143785 C14.6716448,18.2655585 20.0972029,14.7990209 25.7546226,11.5173654 C25.7546226,11.5173654 25.8009948,11.4711449 25.8009948,11.4711449 C25.8009948,11.5635859 32.1076266,-3.31941528 33.6842845,-11.3617824 C33.8234014,-11.5004439 27.9341203,-8.35744984 25.1054105,-6.92461432 Z" id="path-27"></path>
        <filter x="-99.5%" y="-106.4%" width="298.9%" height="346.9%" filterUnits="objectBoundingBox" id="filter-28">
            <feOffset dx="0" dy="6" in="SourceAlpha" result="shadowOffsetOuter1"></feOffset>
            <feGaussianBlur stdDeviation="13.5" in="shadowOffsetOuter1" result="shadowBlurOuter1"></feGaussianBlur>
            <feColorMatrix values="0 0 0 0 0.191410039   0 0 0 0 0.300729998   0 0 0 0 0.410049957  0 0 0 0.140200408 0" type="matrix" in="shadowBlurOuter1"></feColorMatrix>
        </filter>
        <path d="M35.3840933,4.45305301 C32.2771498,6.06869972 29.2165785,7.63818509 26.0632626,9.16150913 C19.7102586,12.2543185 13.2645101,15.0239986 6.54052773,17.14742 C6.54052773,17.0550973 6.86513377,24.3947495 5.33484814,27.6722042 C4.08279626,30.3495616 0.14115144,35.2426631 0.233896024,35.1503404 C0.233896024,35.1503404 0.233896024,35.1503404 0.280268315,35.1041791 C6.49415544,35.7504378 12.7080426,33.1192417 18.5973236,31.4574337 C24.9503276,29.6109803 30.3758858,26.1488802 36.0333054,22.8714255 C36.0333054,22.8714255 36.0796777,22.8252641 36.0796777,22.8252641 C36.0796777,22.9175868 42.3863094,8.0536371 43.9629673,0.0215649001 C44.1020842,-0.116919103 38.2128031,3.02205164 35.3840933,4.45305301 Z" id="path-29"></path>
        <path d="M29.0607354,-2.38535709 C25.9537918,-0.769710379 22.8932206,0.799774993 19.7399047,2.32309903 C13.3869007,5.41590844 6.94115212,8.18558851 0.217169786,10.3090099 C0.217169786,10.2166872 0.54177583,17.5563394 -0.988509805,20.8337942 C-2.24056169,23.5111516 -6.1822065,28.404253 -6.08946192,28.3119303 C-6.08946192,28.3119303 -6.08946192,28.3119303 -6.04308963,28.265769 C0.170797494,28.9120277 6.38468462,26.2808316 12.2739657,24.6190236 C18.6269697,22.7725702 24.0525279,19.3104701 29.7099475,16.0330154 C29.7099475,16.0330154 29.7563198,15.986854 29.7563198,15.986854 C29.7563198,16.0791767 36.0629515,1.215227 37.6396094,-6.81684519 C37.7787263,-6.9553292 31.8894452,-3.81635845 29.0607354,-2.38535709 Z" id="path-31"></path>
        <filter x="-99.5%" y="-106.6%" width="298.9%" height="347.2%" filterUnits="objectBoundingBox" id="filter-32">
            <feOffset dx="0" dy="6" in="SourceAlpha" result="shadowOffsetOuter1"></feOffset>
            <feGaussianBlur stdDeviation="13.5" in="shadowOffsetOuter1" result="shadowBlurOuter1"></feGaussianBlur>
            <feColorMatrix values="0 0 0 0 0.191410039   0 0 0 0 0.300729998   0 0 0 0 0.410049957  0 0 0 0.140200408 0" type="matrix" in="shadowBlurOuter1"></feColorMatrix>
        </filter>
        <path d="M0.429555371,28.8493337 C8.07070356,38.5088984 12.7563133,50.1147933 13.9096942,62.3694649 C13.9096942,62.3694649 13.9096942,62.3694649 13.9096942,62.3694649 C13.6934352,62.5857238 26.3085384,49.5381029 31.4987522,41.6806958 C34.1659455,37.5717765 36.6168798,33.3907708 38.7794689,28.9935063 C39.3561593,27.7680392 41.6629211,25.0287596 40.0049361,23.9474651 C39.9328498,23.8753788 33.589255,14.7925045 31.6429249,9.60229064 C30.3453714,6.28632067 29.1919905,3.04243701 26.7410562,0.375243772 C26.5968836,0.158984861 26.3085384,0.303157469 26.3085384,0.51941638 C26.2364521,0.51941638 26.1643658,0.591502683 26.0922795,0.663588987 C20.1812026,12.2694839 15.3514202,26.1100542 0.645814282,28.0563844 C0.429555371,28.0563844 0.357469067,28.3447296 0.429555371,28.4889022 C0.357469067,28.5609885 0.285382764,28.7051611 0.429555371,28.8493337 Z" id="path-33"></path>
        <path d="M-7.49993803,26.6867446 C0.141210156,36.3463093 4.82681989,47.9522042 5.98020075,60.2068758 C5.98020075,60.2068758 5.98020075,60.2068758 5.98020075,60.2068758 C5.76394184,60.4231347 18.379045,47.3755138 23.5692588,39.5181067 C26.2364521,35.4091873 28.6873864,31.2281817 30.8499755,26.8309172 C31.4266659,25.60545 33.7334277,22.8661705 32.0754427,21.784876 C32.0033564,21.7127897 25.6597616,12.6299154 23.7134314,7.43970153 C22.415878,4.12373156 21.2624971,0.879847898 18.8115628,-1.78734534 C18.6673902,-2.00360425 18.379045,-1.85943164 18.379045,-1.64317273 C18.3069587,-1.64317273 18.2348724,-1.57108643 18.1627861,-1.49900012 C12.2517092,10.1068948 7.42192682,23.9474651 -7.28367912,25.8937953 C-7.49993803,25.8937953 -7.57202433,26.1821405 -7.49993803,26.3263131 C-7.57202433,26.3983994 -7.64411064,26.542572 -7.49993803,26.6867446 Z" id="path-35"></path>
        <filter x="-108.1%" y="-60.4%" width="316.2%" height="240.1%" filterUnits="objectBoundingBox" id="filter-36">
            <feOffset dx="0" dy="6" in="SourceAlpha" result="shadowOffsetOuter1"></feOffset>
            <feGaussianBlur stdDeviation="13.5" in="shadowOffsetOuter1" result="shadowBlurOuter1"></feGaussianBlur>
            <feColorMatrix values="0 0 0 0 0.191410039   0 0 0 0 0.300729998   0 0 0 0 0.410049957  0 0 0 0.140200408 0" type="matrix" in="shadowBlurOuter1"></feColorMatrix>
        </filter>
        <path d="M75.2857506,0.197496722 C75.4299232,-0.0908484923 74.7811464,-0.0187621886 74.5648875,0.197496722 C74.5648875,0.197496722 74.5648875,0.197496722 74.5648875,0.197496722 C70.5280545,0.630014544 66.4912215,0.918359759 62.5264748,1.20670497 C46.5233154,2.07174062 14.8053418,1.06253237 14.9495144,1.06253237 C14.8774281,1.06253237 14.8053418,1.13461867 14.7332555,1.20670497 C13.5798746,5.31562428 11.4172855,8.84785316 8.82217859,12.1638231 C6.51541687,15.0472753 3.92030994,18.6515905 0.60433997,20.453748 C0.532253667,20.453748 0.532253667,20.5258344 0.532253667,20.5258344 C0.532253667,20.5258344 0.532253667,20.5258344 0.460167363,20.5258344 C0.171822148,20.3816617 -0.116523066,20.8862659 0.171822148,20.9583522 C16.8237583,28.3832414 53.9482047,29.2482771 54.2365499,29.0320182 C54.3086362,29.0320182 54.3086362,29.0320182 54.3807225,29.0320182 C54.5248951,29.0320182 55.5341034,27.5902921 55.9666212,27.085688 C58.4175555,24.2022358 60.8684898,21.2466974 63.2473378,18.2911589 C67.5725161,12.8125999 71.3930902,5.96440101 75.2857506,0.197496722 C75.4299232,0.197496722 75.3578369,0.197496722 75.2857506,0.197496722 Z" id="path-37"></path>
        <path d="M69.7262178,-13.5976493 C69.8703904,-13.8859945 69.2216137,-13.8139082 69.0053548,-13.5976493 C69.0053548,-13.5976493 69.0053548,-13.5976493 69.0053548,-13.5976493 C64.9685218,-13.1651315 60.9316888,-12.8767863 56.9669421,-12.5884411 C40.9637827,-11.7234054 9.24580906,-12.7326137 9.38998166,-12.7326137 C9.31789536,-12.7326137 9.24580906,-12.6605274 9.17372275,-12.5884411 C8.02034189,-8.47952177 5.85775278,-4.94729289 3.26264585,-1.63132293 C0.955884136,1.25212922 -1.6392228,4.8564444 -4.95519276,6.65860199 C-5.02727907,6.65860199 -5.02727907,6.7306883 -5.02727907,6.7306883 C-5.02727907,6.7306883 -5.02727907,6.7306883 -5.09936537,6.7306883 C-5.38771059,6.58651569 -5.6760558,7.09111982 -5.38771059,7.16320612 C11.2642256,14.5880954 48.3886719,15.453131 48.6770172,15.2368721 C48.7491035,15.2368721 48.7491035,15.2368721 48.8211898,15.2368721 C48.9653624,15.2368721 49.9745706,13.7951461 50.4070884,13.2905419 C52.8580228,10.4070898 55.3089571,7.45155133 57.6878051,4.49601288 C62.0129833,-0.982546194 65.8335574,-7.83074504 69.7262178,-13.5976493 C69.8703904,-13.5976493 69.7983041,-13.5976493 69.7262178,-13.5976493 Z" id="path-39"></path>
        <filter x="-57.8%" y="-129.1%" width="215.5%" height="399.5%" filterUnits="objectBoundingBox" id="filter-40">
            <feOffset dx="0" dy="6" in="SourceAlpha" result="shadowOffsetOuter1"></feOffset>
            <feGaussianBlur stdDeviation="13.5" in="shadowOffsetOuter1" result="shadowBlurOuter1"></feGaussianBlur>
            <feColorMatrix values="0 0 0 0 0.191410039   0 0 0 0 0.300729998   0 0 0 0 0.410049957  0 0 0 0.140200408 0" type="matrix" in="shadowBlurOuter1"></feColorMatrix>
        </filter>
        <path d="M75.2462512,0.414743117 C75.3904238,0.126397902 74.7416471,0.198484206 74.5253882,0.414743117 C74.5253882,0.414743117 74.5253882,0.414743117 74.5253882,0.414743117 C70.4885552,0.847260939 66.4517222,1.13560615 62.4869755,1.42395137 C46.4838161,2.28898701 14.7658424,1.27977876 14.9100151,1.27977876 C14.8379287,1.27977876 14.7658424,1.35186506 14.6937561,1.42395137 C13.5403753,5.53287068 11.3777862,9.06509955 8.78267924,12.3810695 C6.47591753,15.2645217 3.88081059,18.8688369 0.564840626,20.6709944 C0.492754322,20.6709944 0.492754322,20.7430807 0.492754322,20.7430807 C0.492754322,20.7430807 0.492754322,20.7430807 0.420668019,20.7430807 C0.132322804,20.5989081 -0.156022411,21.1035123 0.132322804,21.1755986 C16.7842589,28.6004878 53.9087053,29.4655235 54.1970505,29.2492646 C54.2691368,29.2492646 54.2691368,29.2492646 54.3412231,29.2492646 C54.4853958,29.2492646 55.494604,27.8075385 55.9271218,27.3029344 C58.3780562,24.4194822 60.8289905,21.4639438 63.2078385,18.5084053 C67.5330167,13.0298463 71.3535908,6.18164741 75.2462512,0.414743117 C75.3904238,0.414743117 75.3183375,0.414743117 75.2462512,0.414743117 Z" id="path-41"></path>
        <path d="M61.6584767,-14.101266 C61.8026493,-14.3896112 61.1538726,-14.3175249 60.9376137,-14.101266 C60.9376137,-14.101266 60.9376137,-14.101266 60.9376137,-14.101266 C56.9007807,-13.6687482 52.8639477,-13.3804029 48.899201,-13.0920577 C32.8960416,-12.2270221 1.17806795,-13.2362303 1.32224056,-13.2362303 C1.25015425,-13.2362303 1.17806795,-13.164144 1.10598165,-13.0920577 C-0.0473992134,-8.98313841 -2.20998832,-5.45090954 -4.80509525,-2.13493957 C-7.11185697,0.748512578 -9.7069639,4.35282776 -13.0229339,6.15498535 C-13.0950202,6.15498535 -13.0950202,6.22707165 -13.0950202,6.22707165 C-13.0950202,6.22707165 -13.0950202,6.22707165 -13.1671065,6.22707165 C-13.4554517,6.08289905 -13.7437969,6.58750317 -13.4554517,6.65958948 C3.19648445,14.0844788 40.3209308,14.9495144 40.609276,14.7332555 C40.6813623,14.7332555 40.6813623,14.7332555 40.7534487,14.7332555 C40.8976213,14.7332555 41.9068295,13.2915294 42.3393473,12.7869253 C44.7902817,9.90347314 47.241216,6.94793469 49.620064,3.99239624 C53.9452422,-1.48616284 57.7658163,-8.33436168 61.6584767,-14.101266 C61.8026493,-14.101266 61.730563,-14.101266 61.6584767,-14.101266 Z" id="path-43"></path>
        <filter x="-57.8%" y="-129.1%" width="215.5%" height="399.5%" filterUnits="objectBoundingBox" id="filter-44">
            <feOffset dx="0" dy="6" in="SourceAlpha" result="shadowOffsetOuter1"></feOffset>
            <feGaussianBlur stdDeviation="13.5" in="shadowOffsetOuter1" result="shadowBlurOuter1"></feGaussianBlur>
            <feColorMatrix values="0 0 0 0 0.191410039   0 0 0 0 0.300729998   0 0 0 0 0.410049957  0 0 0 0.140200408 0" type="matrix" in="shadowBlurOuter1"></feColorMatrix>
        </filter>
        <path d="M25.2104566,10.1108447 C22.8316086,6.86696104 20.3806743,3.55099107 18.3622578,0.0908484923 C18.7226893,-0.269583026 5.81924092,4.92063084 0.340681846,6.29027061 C0.196509239,6.2181843 0.124422935,6.2181843 0.196509239,6.36235691 C0.124422935,6.36235691 0.196509239,6.43444321 0.268595542,6.50652952 C2.64744356,11.6246571 5.74715462,17.1032162 9.20729719,21.572567 C11.9465767,25.0327096 19.9481564,30.8717002 20.1644153,30.7996138 C20.3806743,30.8717002 31.8423965,24.5281054 36.6000926,20.4912724 C36.8884378,20.5633587 28.2380814,14.2918503 25.2104566,10.1108447 Z" id="path-45"></path>
        <path d="M34.0049856,11.5525708 C31.3377924,8.59703232 28.5264266,5.56940757 26.1475786,2.32552391 C26.5080101,1.96509239 14.1812521,8.45285972 8.91895198,10.4712762 C8.77477937,10.3991899 8.70269307,10.3991899 8.77477937,10.5433625 C8.70269307,10.5433625 8.77477937,10.6154488 8.84686568,10.6875351 C11.7303178,15.5173175 15.4788056,20.635445 19.371466,24.672278 C22.4711771,27.8440754 31.0494472,32.745944 31.2657061,32.6738577 C31.481965,32.6738577 42.2228243,25.1768822 46.4759162,20.7075313 C46.6921751,20.635445 37.4651282,15.3731449 34.0049856,11.5525708 Z" id="path-47"></path>
        <filter x="-115.3%" y="-123.5%" width="330.6%" height="386.5%" filterUnits="objectBoundingBox" id="filter-48">
            <feOffset dx="0" dy="6" in="SourceAlpha" result="shadowOffsetOuter1"></feOffset>
            <feGaussianBlur stdDeviation="13.5" in="shadowOffsetOuter1" result="shadowBlurOuter1"></feGaussianBlur>
            <feColorMatrix values="0 0 0 0 0.191410039   0 0 0 0 0.300729998   0 0 0 0 0.410049957  0 0 0 0.140200408 0" type="matrix" in="shadowBlurOuter1"></feColorMatrix>
        </filter>
        <path d="M25.5126266,9.42948101 C22.8454334,6.47394256 20.0340675,3.4463178 17.6552195,0.20243414 C18.015651,-0.157997378 5.68889309,6.32976995 0.42659292,8.34818645 C0.282420313,8.27610015 0.210334009,8.27610015 0.282420313,8.42027276 C0.210334009,8.42027276 0.282420313,8.49235906 0.354506617,8.56444536 C3.23795876,13.3942277 6.98644655,18.5123553 10.8791069,22.5491883 C13.978818,25.7209856 22.5570881,30.6228543 22.7733471,30.550768 C22.989606,30.550768 33.7304652,23.0537924 37.9835571,18.5844416 C38.199816,18.5123553 28.9727692,13.2500551 25.5126266,9.42948101 Z" id="path-49"></path>
        <path d="M30.9911857,9.86199883 C27.8914746,7.3389782 24.6475909,4.81595757 21.7641388,2.00459173 C22.052484,1.57207391 10.9511933,9.93408513 6.0493246,12.745451 C5.905152,12.745451 5.83306569,12.745451 5.905152,12.8175373 C5.83306569,12.8175373 5.905152,12.8896236 6.0493246,12.9617099 C9.65363979,17.2868881 14.1229906,21.7562389 18.5923414,25.1442952 C22.1245703,27.8114884 31.4237035,31.271631 31.6399624,31.1274584 C31.8562213,31.1274584 41.2995271,22.0445841 44.7596697,16.8543703 C44.9759286,16.9264566 35.0280187,13.1058825 30.9911857,9.86199883 Z" id="path-51"></path>
        <filter x="-111.9%" y="-128.7%" width="323.7%" height="398.5%" filterUnits="objectBoundingBox" id="filter-52">
            <feOffset dx="0" dy="6" in="SourceAlpha" result="shadowOffsetOuter1"></feOffset>
            <feGaussianBlur stdDeviation="13.5" in="shadowOffsetOuter1" result="shadowBlurOuter1"></feGaussianBlur>
            <feColorMatrix values="0 0 0 0 0.191410039   0 0 0 0 0.300729998   0 0 0 0 0.410049957  0 0 0 0.140200408 0" type="matrix" in="shadowBlurOuter1"></feColorMatrix>
        </filter>
    </defs>
    <g id="landing" stroke="none" stroke-width="1" fill="none" fill-rule="evenodd">
        <g id="How-ty" transform="translate(-868.000000, -3186.000000)">
            <g id="Group-25" transform="translate(120.000000, 3167.000000)">
                <g id="Group-32" transform="translate(748.000000, 19.000000)">
                    <circle id="Oval-2" fill="url(#linearGradient-1)" cx="131.5" cy="174.5" r="131.5"></circle>
                    <g id="5" transform="translate(26.000000, 0.000000)">
                        <path d="M169.813042,307.627041 C169.813042,307.554279 169.741081,307.481516 169.741081,307.408753 C166.358945,302.824702 159.09095,301.951549 153.981766,300.714583 C150.455709,299.914193 146.785732,299.477617 143.331635,298.531701 C141.460666,298.022362 139.589697,297.294735 138.222451,295.839481 C136.855204,294.384226 136.567363,292.34687 135.559918,290.673327 C135.415998,290.455039 135.056196,290.455039 134.912275,290.600565 C130.954456,290.74609 127.068598,289.218073 123.182739,288.417683 C119.944524,287.762819 116.634348,287.25348 113.396133,287.035191 C107.639305,286.74414 101.738557,288.272158 96.7013329,291.109904 C96.7013329,290.964378 96.7732932,290.818853 96.7732932,290.600565 C96.8452536,290.091226 96.1976105,289.872937 95.9817295,290.382277 C95.262126,292.637921 94.1107605,294.74804 91.9519502,295.766718 C90.3688227,296.494345 88.2819727,296.63987 86.5549245,297.003684 C82.9569074,297.731311 79.2149695,298.24065 75.6169524,298.822752 C71.9469748,299.404854 68.2769973,299.986956 64.6070198,300.569057 C61.5846854,301.078396 58.2745096,301.151159 55.6839373,302.679176 C55.611977,302.751939 55.5400166,302.824702 55.4680563,302.897464 C53.8849287,303.988905 53.5970873,306.026261 54.5325718,307.845329 C56.1876597,310.974126 60.7211613,312.283855 63.8874164,313.011483 C68.420918,314.030161 73.02638,314.030161 77.5598816,314.466737 C80.582216,314.757788 83.5325901,315.194364 86.4829642,315.776466 C89.3613779,316.43133 93.1033157,317.013432 95.6219277,318.8325 C95.4060467,318.8325 95.262126,318.8325 95.046245,318.905263 C94.6144829,318.905263 94.6144829,319.487365 95.046245,319.560127 C102.746002,320.287755 110.517719,319.778416 118.217476,320.724331 C125.41351,321.597484 132.537584,320.287755 139.445777,318.323161 C145.130644,318.686975 151.750995,317.741059 157.291942,316.285805 C162.257206,315.048839 166.143064,311.847279 169.956962,308.572957 C170.028923,308.281906 170.028923,307.918092 169.813042,307.627041 Z" id="Shape" fill="url(#linearGradient-2)" fill-rule="nonzero"></path>
                        <path d="M120.952348,324.395066 C111.515654,322.564249 102.587089,318.761782 93.2955736,316.226805 C92.1341342,315.804308 90.9726949,315.452228 89.7386655,315.029732 C86.1817575,313.832659 82.6248494,312.706002 79.721251,312.001841 C79.3583012,311.931425 80.9552803,313.903075 81.2456402,314.043907 C81.3182301,314.043907 81.3908201,314.114323 81.4634101,314.114323 C81.3908201,314.114323 81.3182301,314.184739 81.3182301,314.255155 C80.1567908,317.001381 72.0267152,327.422957 76.164343,329.817102 C76.5272928,330.028351 76.8902426,329.887518 77.0354225,329.67627 C81.3182301,331.155007 86.0365776,331.929584 90.682335,332 C91.8437744,332 93.0052138,332 94.1666531,331.929584 C103.095218,331.295839 111.733424,329.535438 118.4117,323.761322 C118.70206,323.62049 121.387888,324.535899 120.952348,324.395066 Z" id="Shape" fill="#FFE2D1" fill-rule="nonzero"></path>
                        <path d="M158.077172,196.29182 C152.358004,187.475159 146.494048,188.335321 144.322212,175.432892 C143.960239,173.282487 136.358814,148.911231 115.798768,156.437648 C110.296784,158.946454 109.862417,158.731413 108.124948,158.229652 C100.668312,156.294288 93.4288591,160.380057 88.4336367,165.039268 C81.2665785,171.705523 79.0223482,182.170827 84.6691213,190.414046 C86.2618009,192.851172 88.5784258,195.359978 88.7956094,198.370544 C89.0127929,201.739512 86.40659,204.176638 84.5967268,206.685444 C81.8457347,210.341132 79.4567153,215.502104 80.1082661,220.232995 C80.6874223,224.318764 85.3930666,228.046133 88.9403984,229.623096 C92.1981522,231.12838 95.5283004,230.411578 98.4240815,228.547894 C99.1480268,228.046133 100.016761,227.759412 100.885495,227.544372 C107.545792,226.397489 114.206088,223.960363 121.011174,225.178926 C122.748643,225.465647 124.558506,226.110768 126.151186,226.97093 C126.730342,227.329331 127.309498,227.687732 127.888654,228.117813 C128.250627,228.332853 128.540205,228.691254 128.757389,228.977975 C132.739088,233.995586 133.028666,244.532571 141.788403,242.812247 C142.005587,242.740567 142.295165,242.668886 142.512349,242.597206 C151.778848,239.658319 158.873512,232.561983 161.624504,223.601963 C161.914082,222.45508 162.20366,221.236517 162.420844,220.089634 C162.782816,217.939229 163,215.860505 163,213.99682 C162.927605,213.85346 163.144789,204.104958 158.077172,196.29182 Z" id="Shape" fill="url(#linearGradient-3)" fill-rule="nonzero"></path>
                        <g id="Group" transform="translate(85.000000, 246.000000)" fill="#FFEBDF" fill-rule="nonzero">
                            <path d="M3.62068966,0.861538462 C2.75172414,1.36410256 2.38965517,3.08717949 2.1,3.87692308 C1.30344828,6.03076923 0.651724138,8.25641026 0.289655172,10.4820513 C-0.289655172,14.3589744 0.0724137931,23.6923077 5.57586207,23.7641026 C5.86551724,24.1948718 6.66206897,24.2666667 6.80689655,23.6205128 C6.80689655,23.6205128 6.80689655,23.6205128 6.80689655,23.5487179 C6.95172414,23.4051282 7.02413793,23.1897436 6.87931034,22.974359 C8.25517241,16.225641 9.12413793,9.40512821 9.12413793,2.51282051 C9.55862069,2.44102564 9.84827586,2.01025641 9.4862069,1.65128205 C8.18275862,0.430769231 5.2862069,-0.215384615 3.62068966,0.861538462 Z" id="Shape"></path>
                            <path d="M61.4793103,4.16410256 C61.4793103,4.16410256 61.4793103,4.16410256 61.4793103,4.16410256 C61.4793103,3.87692308 61.4068966,3.58974359 61.1896552,3.44615385 C59.2344828,2.44102564 56.6275862,1.86666667 54.6,3.01538462 C52.6448276,4.09230769 52.3551724,6.60512821 52.137931,8.54358974 C51.6310345,12.7794872 51.9206897,17.0153846 51.3413793,21.2512821 C51.0517241,23.2615385 50.762069,26.0615385 52.4275862,27.6410256 C52.7896552,28 53.2965517,27.9282051 53.6586207,27.6410256 C53.7310345,27.5692308 53.7310345,27.5692308 53.8034483,27.4974359 C53.9482759,27.3538462 54.0206897,27.1384615 54.0206897,26.8512821 C57.7137931,24.8410256 61.1896552,22.974359 61.9137931,18.5948718 C62.7103448,13.7846154 63.1448276,8.9025641 61.4793103,4.16410256 Z" id="Shape"></path>
                        </g>
                        <path d="M130.299283,186.977746 C126.073282,187.772262 128.508605,192.539358 125.285384,190.589182 C120.271484,186.977746 122.420298,178.310298 116.331992,175.710064 C115.544093,175.34892 114.756195,175.060005 114.039923,174.843319 C108.667888,173.10983 103.797243,174.048803 100.430768,177.66024 C95.918258,182.644022 94.7005967,189.650208 95.0587324,196.150794 C95.4168681,202.434693 97.3508007,209.007508 102.722836,212.83563 C103.86887,213.702375 105.229786,214.352434 106.590701,214.785806 C108.38138,215.291407 111.246465,215.002492 112.392499,216.663753 C114.183178,219.191758 111.819482,223.019881 110.172058,224.825599 C108.596261,226.559089 106.590701,227.859206 104.585141,229.087094 C104.441887,229.159323 104.37026,229.30378 104.298633,229.448238 C104.083751,229.448238 103.940497,229.592695 103.86887,229.809381 C103.009344,234.143105 103.080972,239.199116 106.805583,242.160494 C110.243685,244.905186 115.185958,246.133074 119.555213,245.988616 C124.067722,245.844159 127.434198,244.399584 129.86952,240.571462 C132.161589,237.104483 134.095521,233.204132 132.233216,229.159323 C132.37647,228.72595 132.233216,228.220349 131.731826,228.003663 C126.001655,225.620115 125.500265,214.930263 126.789554,210.01871 C126.861181,209.729795 127.076062,209.296423 127.290943,208.790821 C128.222096,206.62396 128.938368,204.384869 129.439758,202.07355 C130.514165,196.728624 132.018334,197.234225 133.307623,194.12839 C135.8862,187.338889 130.442537,186.977746 130.299283,186.977746 Z" id="Shape" fill="url(#linearGradient-4)" fill-rule="nonzero"></path>
                        <path d="M153.203031,334.385669 C147.572778,333.7993 142.085064,333.432819 136.668618,331.67371 C136.668618,331.600413 136.597349,331.527117 136.52608,331.527117 C136.52608,331.527117 136.52608,331.527117 136.454811,331.527117 C136.312273,331.160636 135.955928,330.940747 135.528314,331.014044 C132.606284,331.747006 129.826793,332.919745 127.11857,334.239077 C125.336844,335.045335 116.784562,334.605558 116.000603,336.364667 C115.929334,336.584556 122.201007,338.270368 122.414815,338.270368 C132.392477,339.516404 148.071662,347.798876 155.341102,339.00333 C155.412371,338.930034 160.187395,335.118631 153.203031,334.385669 Z" id="Shape" fill="#FFE2D1" fill-rule="nonzero"></path>
                        <path d="M149.975151,252.131657 C148.600356,248.821181 148.238568,246.086441 147.080846,242.703998 C146.140196,239.753357 145.778408,236.514848 144.548328,233.636174 C142.66703,229.174229 137.891426,227.590958 133.332895,226.727355 C131.885743,226.223587 131.089809,226.367521 130.655663,226.295554 C130.221517,226.223587 129.859729,226.871289 130.293875,227.08719 C130.43859,227.159157 130.655663,227.231123 130.800378,227.30309 C128.91908,228.598494 127.182496,230.037831 125.807701,231.908969 C123.419899,235.003544 121.755674,238.673854 118.427223,240.976794 C114.085765,243.999402 108.586585,243.279733 106.126425,238.242053 C103.883338,233.708141 106.415856,228.886361 109.744307,225.719819 C110.106095,225.431952 109.599591,224.78425 109.237803,225.072118 C109.093088,225.216051 108.441869,225.288018 108.297154,225.359985 C103.810981,226.655388 99.1077345,228.598494 95.4174952,231.405201 C92.2337594,233.780108 90.8589643,236.94665 89.4118117,240.544993 C88.9053082,241.912363 88.3988048,243.279733 87.6752285,244.50317 C87.3134403,245.150872 86.1557182,246.302341 86.0110029,247.02201 C85.9386453,247.813645 86.2280758,248.317413 86.7345792,248.965115 C88.1093743,250.620353 90.3524609,251.052154 92.306117,250.404452 C95.851641,256.521636 97.0093632,262.926686 97.3711513,269.907472 C97.7329395,276.672356 97.9500124,284.37281 94.5492036,290.418027 C94.5492036,290.418027 94.2597731,290.993762 94.9833494,291.71343 C100.410172,297.110945 107.428862,298.190448 114.736983,297.974547 C132.609319,297.470779 137.45728,290.489994 137.16785,290.058192 C130.366232,279.551031 134.924763,263.934222 139.772725,253.427061 C139.845082,253.283127 139.845082,253.21116 139.772725,253.067226 C140.496301,254.146729 142.811745,254.002795 143.969467,253.858862 C144.982474,253.786895 145.995481,253.427061 147.008488,253.355094 C147.949137,253.283127 150.264581,252.923293 149.975151,252.131657 Z" id="Shape" fill="url(#linearGradient-5)" fill-rule="nonzero"></path>
                        <path d="M140.524057,252.005209 C140.194321,252.005209 139.864585,252.167914 139.600796,252.33062 C139.27106,252.574678 139.073218,252.818737 139.007271,253.306853 C138.941324,253.79497 139.337007,254.120381 139.666743,253.957675 C139.798638,253.876323 139.930532,253.79497 139.996479,253.713617 C140.062426,253.632264 140.128374,253.550912 140.194321,253.469559 C140.392163,253.306853 140.590004,253.144148 140.787846,253.062795 C141.183529,252.818737 140.985688,251.923856 140.524057,252.005209 Z" id="Shape" fill="#1B1464" fill-rule="nonzero"></path>
                        <path d="M47.375,233.8 C47.875,233.8 47.875,233 47.375,233 C46.875,233.1 46.875,233.8 47.375,233.8 Z" id="Shape" fill="#FFFFFF" fill-rule="nonzero"></path>
                        <path d="M71.5011397,306.890365 C68.8462424,305.799837 66.119591,304.78201 63.3929397,303.909587 C61.5273361,303.25527 59.3747166,302.310145 57.3656051,302.237443 C57.2938511,302.09204 57.1503432,301.946636 56.9350812,302.019338 C52.2710723,302.455549 49.544421,304.054991 48.5398652,308.926019 C47.6070635,313.288133 47.6788174,316.777824 50.4054688,320.340218 C53.3473821,324.193419 68.1287025,328.337427 71.2141238,329.064446 C79.9681097,331.1001 82.694761,332.190628 82.694761,331.972523 C84.1298407,331.245504 87,329.064446 87,313.070027 C87,312.488412 76.0216406,308.707913 71.5011397,306.890365 Z" id="Shape" fill="url(#linearGradient-6)" fill-rule="nonzero"></path>
                        <path d="M136.226639,336.337791 C136.226639,336.337791 134.711484,329.776141 133.484929,326.603476 C133.052027,325.377673 132.330525,324.368189 131.753322,323.286598 C130.959669,321.844477 130.454618,320.402357 130.021716,318.88813 C130.166016,318.816024 130.310317,318.743918 130.454618,318.671812 C130.743219,318.455494 130.526768,317.878645 130.238167,318.022857 C130.093866,318.094963 129.949566,318.167069 129.805265,318.167069 C129.660965,317.806539 129.083762,318.167069 129.155913,318.599706 C126.558503,319.753402 123.888943,320.907099 121.219383,321.916583 C118.333372,322.998174 116.818216,323.502916 113.932205,324.368189 C109.89179,325.593991 106.717178,326.747688 102.243861,328.189809 C101.089457,328.550339 99.9350527,328.910869 98.5641975,329.343505 C95.0288342,330.497202 91.4934709,331.218262 87.8859574,331.795111 C86.6594028,332.011429 85.5049984,332.155641 84.2784438,332.299853 C76.3419139,333.741974 68.4053841,334.463034 60.4688542,333.741974 C57.5828433,333.741974 55.4183352,335.905155 56.1398379,338.068336 C56.1398379,340.952577 56.8613406,345.27894 60.4688542,346 C69.1268868,346 77.0634166,344.557879 85.9379,342.755228 C87.0923044,342.611016 88.2467087,342.394698 89.4011131,342.250486 C95.1009845,341.45732 100.873006,340.952577 106.572878,340.952577 C107.29438,340.880471 108.015883,340.808365 108.809536,340.736259 C117.323268,339.943093 128.650861,338.573078 136.948142,336.554109 C137.236743,336.554109 136.226639,336.337791 136.226639,336.337791 Z" id="Shape" fill="#FFEBDF" fill-rule="nonzero"></path>
                        <path d="M161.571228,304.664649 C157.938396,305.454153 154.886817,307.679118 151.617268,309.258125 C147.47584,311.267771 142.898471,312.631459 138.539073,314.210467 C134.688271,315.574155 126.47807,318.660397 126.332757,318.875716 C123.862431,326.053023 125.315564,333.230329 126.768697,338.972174 C126.841354,339.402813 150.672732,334.737564 156.921203,331.723095 C158.229023,331.077137 159.609499,330.502953 160.989975,330.000541 C164.332181,328.852172 167.8197,327.703803 170.653309,325.76593 C173.196291,324.043377 175.303334,321.674866 176.24787,318.660397 C177.846316,313.923374 178.427569,300.932449 161.571228,304.664649 Z" id="Shape" fill="url(#linearGradient-7)" fill-rule="nonzero"></path>
                        <g id="Group-9">
                            <g id="Group-16">
                                <g id="Shape" transform="translate(0.000000, 12.313921)">
                                    <mask id="mask-9" fill="white">
                                        <use xlink:href="#path-8"></use>
                                    </mask>
                                    <use id="Mask" fill="#FFFFFF" fill-rule="nonzero" xlink:href="#path-8"></use>
                                    <g mask="url(#mask-9)" fill-rule="nonzero">
                                        <use fill="black" fill-opacity="1" filter="url(#filter-11)" xlink:href="#path-10"></use>
                                        <use fill="#FFFFFF" fill-rule="evenodd" xlink:href="#path-10"></use>
                                    </g>
                                </g>
                                <g id="Shape" transform="translate(2.972326, 5.944651)">
                                    <mask id="mask-13" fill="white">
                                        <use xlink:href="#path-12"></use>
                                    </mask>
                                    <use id="Mask" fill="#FFFFFF" fill-rule="nonzero" xlink:href="#path-12"></use>
                                    <g mask="url(#mask-13)" fill-rule="nonzero">
                                        <use fill="black" fill-opacity="1" filter="url(#filter-15)" xlink:href="#path-14"></use>
                                        <use fill="#FFFFFF" fill-rule="evenodd" xlink:href="#path-14"></use>
                                    </g>
                                </g>
                                <path d="M71.5595572,28.3349376 C71.4874709,28.4070239 71.4153846,28.4070239 71.3432983,28.4791102 C57.1422965,20.2612716 43.2296399,11.7550877 31.623745,0.0050202488 C31.6958313,-0.211238662 27.586912,6.63696018 5.24015783,5.55566563 C4.95181261,5.55566563 32.2004354,30.6416993 49.5011483,36.9132077 C49.2128031,36.985294 71.8479024,28.190765 71.5595572,28.3349376 Z" id="Shape" fill="#FCFCFC" fill-rule="nonzero"></path>
                            </g>
                            <g id="Group-12" transform="translate(97.167538, 83.523217) rotate(25.000000) translate(-97.167538, -83.523217) translate(66.167538, 49.523217)">
                                <g id="Shape" transform="translate(22.504752, 0.000000)">
                                    <mask id="mask-17" fill="white">
                                        <use xlink:href="#path-16"></use>
                                    </mask>
                                    <use id="Mask" fill="#FFFFFF" fill-rule="nonzero" xlink:href="#path-16"></use>
                                    <g mask="url(#mask-17)" fill-rule="nonzero">
                                        <use fill="black" fill-opacity="1" filter="url(#filter-19)" xlink:href="#path-18"></use>
                                        <use fill="#FFFFFF" fill-rule="evenodd" xlink:href="#path-18"></use>
                                    </g>
                                </g>
                                <g id="Shape" transform="translate(7.218505, 14.012392)">
                                    <mask id="mask-21" fill="white">
                                        <use xlink:href="#path-20"></use>
                                    </mask>
                                    <use id="Mask" fill="#FFFFFF" fill-rule="nonzero" xlink:href="#path-20"></use>
                                    <g mask="url(#mask-21)" fill-rule="nonzero">
                                        <use fill="black" fill-opacity="1" filter="url(#filter-23)" xlink:href="#path-22"></use>
                                        <use fill="#FFFFFF" fill-rule="evenodd" xlink:href="#path-22"></use>
                                    </g>
                                </g>
                                <path d="M46.1065973,19.9837058 C41.0605561,22.6508991 36.30286,23.6601073 30.5359557,23.9484525 C27.6525036,24.0926252 25.0573966,24.1647115 22.3181171,23.2275895 C19.6509239,22.3625539 14.2444511,19.6953606 14.1723648,19.8395332 C13.9561059,19.8395332 13.8119333,19.9116195 13.8840196,20.1278785 C16.3349539,27.2644225 14.3165374,35.5543474 11.7935168,42.4025463 C9.19840984,49.3228314 5.44992205,55.5943399 0.692226012,61.2170715 C0.692226012,61.2170715 0.187621886,61.4333304 0.403880797,61.6495894 C0.331794494,61.8658483 22.3902034,66.2631128 32.98689,67.7048389 C33.203149,67.7048389 33.2752353,67.5606663 33.2752353,67.4164936 C33.3473216,67.4164936 33.3473216,67.3444073 33.4194079,67.272321 C42.2139369,53.2154918 46.1786836,19.7674469 46.1065973,19.9837058 Z" id="Shape" fill="#FCFCFC" fill-rule="nonzero"></path>
                            </g>
                            <path d="M66.3258892,162.355761 C66.2538028,162.355761 66.2538028,162.355761 66.1817165,162.355761 C66.1817165,162.355761 66.1096302,162.355761 66.1096302,162.355761 C55.8733751,163.437055 39.1493527,146.208429 39.221439,146.496774 C33.9591388,152.479937 27.11094,156.444684 19.2535329,157.88641 C18.9651877,157.958496 19.1814466,158.535187 19.2535329,158.679359 C22.9299344,164.230005 28.552666,169.420218 34.1753977,173.240792 C44.1233076,180.233164 57.0988423,179.512301 57.0988423,179.512301 C57.1709286,179.512301 59.2614314,173.024534 61.4961068,168.843528 C62.721574,166.608853 66.6863207,162.355761 66.3258892,162.355761 Z" id="Shape" fill="url(#linearGradient-24)" fill-rule="nonzero"></path>
                            <g id="Group-11" transform="translate(5.520033, 218.678246)">
                                <g id="Shape" transform="translate(16.560100, 18.258572)">
                                    <mask id="mask-26" fill="white">
                                        <use xlink:href="#path-25"></use>
                                    </mask>
                                    <use id="Mask" fill="#FFFFFF" fill-rule="nonzero" xlink:href="#path-25"></use>
                                    <g mask="url(#mask-26)" fill-rule="nonzero">
                                        <use fill="black" fill-opacity="1" filter="url(#filter-28)" xlink:href="#path-27"></use>
                                        <use fill="#FFFFFF" fill-rule="evenodd" xlink:href="#path-27"></use>
                                    </g>
                                </g>
                                <g id="Shape" transform="translate(6.369269, 6.793887)">
                                    <mask id="mask-30" fill="white">
                                        <use xlink:href="#path-29"></use>
                                    </mask>
                                    <use id="Mask" fill="#FFFFFF" fill-rule="nonzero" xlink:href="#path-29"></use>
                                    <g mask="url(#mask-30)" fill-rule="nonzero">
                                        <use fill="black" fill-opacity="1" filter="url(#filter-32)" xlink:href="#path-31"></use>
                                        <use fill="#FFFFFF" fill-rule="evenodd" xlink:href="#path-31"></use>
                                    </g>
                                </g>
                                <path d="M35.4951531,4.43879421 C32.3578624,6.05548599 29.2673969,7.62598657 26.0832809,9.15029596 C19.6682237,12.2451059 13.1595161,15.0165775 6.36985705,17.1413724 C6.36985705,17.0489901 6.6976337,24.3933898 5.15240095,27.6729646 C3.88811961,30.3520538 -0.0920253445,35.2483203 0.00162512506,35.1559379 C6.32303182,35.7564235 12.5976133,33.1235254 18.5444181,31.4606425 C24.9594753,29.6129947 30.4380277,26.1486552 36.1507064,22.8690805 C36.1975316,22.9152716 42.5657635,8.04170731 44.1578215,0.00443962952 C44.2982972,-0.134133951 38.3514924,3.00686721 35.4951531,4.43879421 Z" id="Shape" fill="#FCFCFC" fill-rule="nonzero"></path>
                            </g>
                            <g id="Group-24" transform="translate(165.601002, 0.000000)">
                                <g id="Shape" transform="translate(7.643123, 2.123090)">
                                    <mask id="mask-34" fill="white">
                                        <use xlink:href="#path-33"></use>
                                    </mask>
                                    <use id="Mask" fill="#FFFFFF" fill-rule="nonzero" xlink:href="#path-33"></use>
                                    <g mask="url(#mask-34)" fill-rule="nonzero">
                                        <use fill="black" fill-opacity="1" filter="url(#filter-36)" xlink:href="#path-35"></use>
                                        <use fill="#FFFFFF" fill-rule="evenodd" xlink:href="#path-35"></use>
                                    </g>
                                </g>
                                <path d="M0.143185124,28.8098344 C7.78433331,38.4693991 12.469943,50.0752939 13.6233239,62.3299656 C13.6233239,62.3299656 13.6233239,62.3299656 13.6233239,62.3299656 C13.407065,62.5462245 26.0221681,49.4986035 31.212382,41.6411964 C33.8795752,37.5322771 36.3305096,33.3512715 38.4930987,28.954007 C39.0697891,27.7285398 41.3765508,24.9892603 39.7185658,23.9079657 C39.6464795,23.8358794 33.3028848,14.7530052 31.3565546,9.56279129 C30.0590011,6.24682133 28.9056203,3.00293766 26.454686,0.335744428 C26.3105133,0.119485517 26.0221681,0.263658124 26.0221681,0.479917035 C25.9500818,0.479917035 25.8779955,0.552003339 25.8059092,0.624089643 C19.8948323,12.2299845 15.06505,26.0705548 0.359444035,28.016885 C0.143185124,28.016885 0.07109882,28.3052302 0.143185124,28.4494029 C0.07109882,28.5214892 -0.000987483612,28.6656618 0.143185124,28.8098344 Z" id="Shape" fill="#FCFCFC" fill-rule="nonzero"></path>
                            </g>
                            <g id="Group-19" transform="translate(159.656350, 152.862463)">
                                <g id="Shape" transform="translate(19.107808, 28.449403)">
                                    <mask id="mask-38" fill="white">
                                        <use xlink:href="#path-37"></use>
                                    </mask>
                                    <use id="Mask" fill="#FFFFFF" fill-rule="nonzero" xlink:href="#path-37"></use>
                                    <g mask="url(#mask-38)" fill-rule="nonzero">
                                        <use fill="black" fill-opacity="1" filter="url(#filter-40)" xlink:href="#path-39"></use>
                                        <use fill="#FFFFFF" fill-rule="evenodd" xlink:href="#path-39"></use>
                                    </g>
                                </g>
                                <g id="Shape" transform="translate(13.587774, 14.437010)">
                                    <mask id="mask-42" fill="white">
                                        <use xlink:href="#path-41"></use>
                                    </mask>
                                    <use id="Mask" fill="#FFFFFF" fill-rule="nonzero" xlink:href="#path-41"></use>
                                    <g mask="url(#mask-42)" fill-rule="nonzero">
                                        <use fill="black" fill-opacity="1" filter="url(#filter-44)" xlink:href="#path-43"></use>
                                        <use fill="#FFFFFF" fill-rule="evenodd" xlink:href="#path-43"></use>
                                    </g>
                                </g>
                                <path d="M75.2462512,0.335744428 C75.3904238,0.0473992134 74.7416471,0.119485517 74.5253882,0.335744428 C74.5253882,0.335744428 74.5253882,0.335744428 74.5253882,0.335744428 C70.4885552,0.76826225 66.4517222,1.05660746 62.4869755,1.34495268 C46.4838161,2.20998832 14.7658424,1.20078007 14.9100151,1.20078007 C14.8379287,1.20078007 14.7658424,1.27286638 14.6937561,1.34495268 C13.5403753,5.45387199 11.3777862,8.98610087 8.78267924,12.3020708 C6.47591753,15.185523 3.88081059,18.7898382 0.564840626,20.5919958 C0.492754322,20.5919958 0.492754322,20.6640821 0.492754322,20.6640821 C0.492754322,20.6640821 0.492754322,20.6640821 0.420668019,20.6640821 C0.132322804,20.5199094 -0.156022411,21.0245136 0.132322804,21.0965999 C16.7842589,28.5214892 53.9087053,29.3865248 54.1970505,29.1702659 C54.2691368,29.1702659 54.2691368,29.1702659 54.3412231,29.1702659 C54.4853958,29.1702659 55.494604,27.7285398 55.9271218,27.2239357 C58.3780562,24.3404835 60.8289905,21.3849451 63.2078385,18.4294066 C67.5330167,12.9508476 71.3535908,6.10264872 75.2462512,0.335744428 C75.3904238,0.335744428 75.3183375,0.335744428 75.2462512,0.335744428 Z" id="Shape" fill="#FCFCFC" fill-rule="nonzero"></path>
                            </g>
                            <g id="Group-18" transform="translate(173.668743, 239.059908)">
                                <g id="Shape">
                                    <mask id="mask-46" fill="white">
                                        <use xlink:href="#path-45"></use>
                                    </mask>
                                    <use id="Mask" fill="#FFFFFF" fill-rule="nonzero" xlink:href="#path-45"></use>
                                    <g mask="url(#mask-46)" fill-rule="nonzero">
                                        <use fill="black" fill-opacity="1" filter="url(#filter-48)" xlink:href="#path-47"></use>
                                        <use fill="#FFFFFF" fill-rule="evenodd" xlink:href="#path-47"></use>
                                    </g>
                                </g>
                                <g id="Shape" transform="translate(8.492359, 2.123090)">
                                    <mask id="mask-50" fill="white">
                                        <use xlink:href="#path-49"></use>
                                    </mask>
                                    <use id="Mask" fill="#FFFFFF" fill-rule="nonzero" xlink:href="#path-49"></use>
                                    <g mask="url(#mask-50)" fill-rule="nonzero">
                                        <use fill="black" fill-opacity="1" filter="url(#filter-52)" xlink:href="#path-51"></use>
                                        <use fill="#FFFFFF" fill-rule="evenodd" xlink:href="#path-51"></use>
                                    </g>
                                </g>
                                <path d="M39.4835447,11.9850886 C36.3838337,9.46206797 33.13995,6.93904734 30.2564979,4.1276815 C30.5448431,3.69516367 19.4435523,12.0571749 14.5416837,14.8685407 C14.3975111,14.8685407 14.3254248,14.8685407 14.3975111,14.940627 C14.3254248,14.940627 14.3975111,15.0127133 14.5416837,15.0847997 C18.1459988,19.4099779 22.6153497,23.8793287 27.0847005,27.267385 C30.6169294,29.9345782 39.9160625,33.3947208 40.1323215,33.2505482 C40.3485804,33.2505482 49.7918861,24.1676739 53.2520287,18.97746 C53.4682876,19.0495464 43.5203777,15.2289723 39.4835447,11.9850886 Z" id="Shape" fill="#FCFCFC" fill-rule="nonzero"></path>
                            </g>
                        </g>
                        <path d="M103.024691,199 C105.658436,199 105.658436,195 103.024691,195 C100.325103,195 100.325103,199 103.024691,199 Z" id="Shape" fill="#FFEBDF" fill-rule="nonzero"></path>
                        <path d="M111.025641,198 C112.324786,198 112.324786,196 111.025641,196 C109.65812,196 109.65812,198 111.025641,198 Z" id="Shape" fill="#FFE2D1" fill-rule="nonzero"></path>
                        <path d="M143.09925,260.906206 C142.883272,258.743636 142.523309,256.725237 141.947368,254.562667 C139.283642,244.903188 137.123864,234.522852 131.652427,225.944658 C131.72442,225.872572 131.72442,225.728401 131.652427,225.58423 C129.78062,220.249891 127.836819,215.420151 127.260879,209.725383 C126.828923,205.328158 127.044901,200.786761 125.965012,196.533707 C125.749034,195.596593 125.101101,191.99231 123.229293,192.785252 C122.653353,193.001509 123.949219,198.119591 123.877227,199.056705 C122.941323,196.966221 120.205604,190.694768 118.909737,188.964712 C117.613871,187.234656 115.742063,185.144171 113.510293,185.216257 C113.366308,185.072086 113.222322,185 113.006345,185 C110.990552,185.360428 109.982656,186.65797 109.5507,188.315941 C109.406715,188.171769 109.26273,188.027598 109.118744,187.955512 C105.519115,185.5046 100.40764,192.352738 100.335648,192.424824 C95.080188,200.498418 100.335648,212.464639 100.335648,212.60881 C100.263655,222.989146 95.3681584,232.216111 93.2083805,242.091847 C91.0486026,248.507472 88.2408914,255.643952 88.0249136,262.420005 C87.3049876,281.234364 102.423433,271.142371 102.855388,261.987491 C103.287344,253.120954 105.231144,244.470674 105.807085,235.89248 C105.879078,235.820394 105.879078,235.748309 105.879078,235.676223 C106.599003,230.558141 106.455018,225.367973 106.814981,220.177805 C107.102952,216.068922 108.182841,211.960039 108.542804,207.851156 C108.614796,206.914042 108.758781,205.904843 109.046752,204.967729 C109.5507,203.021416 110.342619,199.345047 110.630589,197.254563 C110.702581,197.398735 110.702581,197.614992 110.774574,197.759163 C112.358411,203.814359 115.09413,209.364955 119.629663,213.690095 C122.58136,217.222293 122.653353,221.547433 123.085308,225.944658 C123.301286,227.890971 123.517264,229.90937 123.805234,231.855683 C123.805234,241.010562 125.605049,250.381699 127.764827,259.104064 C129.348664,265.519689 130.932501,275.179168 139.571613,273.881626 C139.715598,273.881626 139.859583,273.80954 139.931576,273.665369 C142.307331,273.232855 143.747183,271.070285 143.963161,268.619372 C144.179139,266.16846 143.38722,263.357119 143.09925,260.906206 Z" id="Shape" fill="#FFEBDF" fill-rule="nonzero"></path>
                    </g>
                </g>
            </g>
        </g>
    </g>
</svg>