<?xml version="1.0" encoding="UTF-8"?>
<svg width="332px" height="333px" viewBox="0 0 332 333" version="1.1" xmlns="http://www.w3.org/2000/svg" xmlns:xlink="http://www.w3.org/1999/xlink">
    <!-- Generator: Sketch 49.3 (51167) - http://www.bohemiancoding.com/sketch -->
    <title>6</title>
    <desc>Created with Sketch.</desc>
    <defs>
        <linearGradient x1="-0.0162320051%" y1="49.9866475%" x2="100.032158%" y2="49.9866475%" id="linearGradient-1">
            <stop stop-color="#5181E5" offset="0%"></stop>
            <stop stop-color="#5F89E9" offset="15.05%"></stop>
            <stop stop-color="#859FF3" offset="43.59%"></stop>
            <stop stop-color="#8CA3F5" offset="48.38%"></stop>
        </linearGradient>
        <linearGradient x1="-0.0268665703%" y1="49.9540411%" x2="99.9930551%" y2="49.9540411%" id="linearGradient-2">
            <stop stop-color="#A9C3F8" offset="0%"></stop>
            <stop stop-color="#8AA7F3" offset="42.67%"></stop>
            <stop stop-color="#7E9BF1" offset="67.52%"></stop>
        </linearGradient>
        <linearGradient x1="0.106409691%" y1="49.9791305%" x2="100.030692%" y2="49.9791305%" id="linearGradient-3">
            <stop stop-color="#A9C3F8" offset="0%"></stop>
            <stop stop-color="#8AA7F3" offset="42.67%"></stop>
            <stop stop-color="#7E9BF1" offset="67.52%"></stop>
        </linearGradient>
        <linearGradient x1="4.11329485%" y1="100.203036%" x2="95.9553433%" y2="22.6805383%" id="linearGradient-4">
            <stop stop-color="#8CA3F5" offset="0%"></stop>
            <stop stop-color="#A5B8F8" offset="51.1%"></stop>
            <stop stop-color="#C0D0FB" offset="100%"></stop>
        </linearGradient>
        <linearGradient x1="100.11865%" y1="50.0167316%" x2="0.0259105734%" y2="50.0167316%" id="linearGradient-5">
            <stop stop-color="#8CA3F5" offset="0%"></stop>
            <stop stop-color="#96ABF6" offset="10.26%"></stop>
            <stop stop-color="#ADC0F9" offset="40.88%"></stop>
            <stop stop-color="#BBCCFA" offset="69.52%"></stop>
            <stop stop-color="#C0D0FB" offset="94.02%"></stop>
        </linearGradient>
        <linearGradient x1="-0.109883558%" y1="50.0167316%" x2="99.9828562%" y2="50.0167316%" id="linearGradient-6">
            <stop stop-color="#8CA3F5" offset="0%"></stop>
            <stop stop-color="#8DA4F5" offset="0.6669283%"></stop>
            <stop stop-color="#A3B7F8" offset="20.83%"></stop>
            <stop stop-color="#B3C5FA" offset="42.6%"></stop>
            <stop stop-color="#BDCDFB" offset="67.14%"></stop>
            <stop stop-color="#C0D0FB" offset="100%"></stop>
        </linearGradient>
        <linearGradient x1="2.06517119e-05%" y1="49.9786396%" x2="100.07627%" y2="49.9786396%" id="linearGradient-7">
            <stop stop-color="#FFD7E3" offset="0%"></stop>
            <stop stop-color="#FAD6BE" offset="100%"></stop>
        </linearGradient>
        <linearGradient x1="-0.0158324193%" y1="50.0979681%" x2="100.009734%" y2="50.0979681%" id="linearGradient-8">
            <stop stop-color="#FFD7E3" offset="0%"></stop>
            <stop stop-color="#FAD6BE" offset="100%"></stop>
        </linearGradient>
        <linearGradient x1="0.0127149007%" y1="50.0119139%" x2="100.029819%" y2="50.0119139%" id="linearGradient-9">
            <stop stop-color="#CCD7FF" offset="0%"></stop>
            <stop stop-color="#9DD0FF" offset="14.95%"></stop>
            <stop stop-color="#7ACBFF" offset="28.48%"></stop>
            <stop stop-color="#65C8FF" offset="39.54%"></stop>
            <stop stop-color="#5DC7FF" offset="46.75%"></stop>
        </linearGradient>
        <linearGradient x1="0.341017585%" y1="49.910382%" x2="99.8775414%" y2="49.910382%" id="linearGradient-10">
            <stop stop-color="#8CA3F5" offset="0%"></stop>
            <stop stop-color="#7A9CF1" offset="7.605851%"></stop>
            <stop stop-color="#6B97EE" offset="17.08%"></stop>
            <stop stop-color="#6294ED" offset="28.22%"></stop>
            <stop stop-color="#5F93EC" offset="44.96%"></stop>
        </linearGradient>
        <linearGradient x1="0.0543967248%" y1="49.9862683%" x2="99.9547141%" y2="49.9862683%" id="linearGradient-11">
            <stop stop-color="#CCD7FF" offset="0%"></stop>
            <stop stop-color="#97CFFF" offset="39.68%"></stop>
            <stop stop-color="#5DC7FF" offset="85.98%"></stop>
        </linearGradient>
        <linearGradient x1="-0.0167708382%" y1="49.9118938%" x2="99.9919572%" y2="49.9118938%" id="linearGradient-12">
            <stop stop-color="#8CA3F5" offset="0%"></stop>
            <stop stop-color="#86A1F4" offset="20.7%"></stop>
            <stop stop-color="#759BF0" offset="48.76%"></stop>
            <stop stop-color="#5F93EC" offset="74.02%"></stop>
        </linearGradient>
        <linearGradient x1="2.3197168%" y1="81.5677656%" x2="106.007045%" y2="27.2567108%" id="linearGradient-13">
            <stop stop-color="#8CA3F5" offset="0%"></stop>
            <stop stop-color="#8BA3F5" offset="1.495937%"></stop>
            <stop stop-color="#6B97EE" offset="48.16%"></stop>
            <stop stop-color="#5F93EC" offset="74.02%"></stop>
        </linearGradient>
        <linearGradient x1="67.7506452%" y1="108.886065%" x2="44.7235215%" y2="66.1743019%" id="linearGradient-14">
            <stop stop-color="#EEEFF3" offset="0%"></stop>
            <stop stop-color="#FFFFFF" offset="100%"></stop>
        </linearGradient>
        <filter x="-16.1%" y="-13.4%" width="132.1%" height="131.2%" filterUnits="objectBoundingBox" id="filter-15">
            <feOffset dx="0" dy="6" in="SourceAlpha" result="shadowOffsetOuter1"></feOffset>
            <feGaussianBlur stdDeviation="13.5" in="shadowOffsetOuter1" result="shadowBlurOuter1"></feGaussianBlur>
            <feColorMatrix values="0 0 0 0 0.191410039   0 0 0 0 0.300729998   0 0 0 0 0.410049957  0 0 0 0.140200408 0" type="matrix" in="shadowBlurOuter1" result="shadowMatrixOuter1"></feColorMatrix>
            <feMerge>
                <feMergeNode in="shadowMatrixOuter1"></feMergeNode>
                <feMergeNode in="SourceGraphic"></feMergeNode>
            </feMerge>
        </filter>
        <linearGradient x1="-22.1225587%" y1="70.5837465%" x2="100%" y2="9.52993869%" id="linearGradient-16">
            <stop stop-color="#FF975D" stop-opacity="0" offset="0%"></stop>
            <stop stop-color="#FFEE7F" stop-opacity="0.205644248" offset="100%"></stop>
        </linearGradient>
        <linearGradient x1="116.514176%" y1="-10.6656947%" x2="13.9151892%" y2="127.975942%" id="linearGradient-17">
            <stop stop-color="#FFF8E4" offset="0%"></stop>
            <stop stop-color="#FFE3A9" offset="100%"></stop>
        </linearGradient>
        <linearGradient x1="100%" y1="-8.54915017%" x2="9.23009695%" y2="146.618658%" id="linearGradient-18">
            <stop stop-color="#FFDDAA" offset="0%"></stop>
            <stop stop-color="#E8A86E" offset="100%"></stop>
        </linearGradient>
        <linearGradient x1="93.773108%" y1="0%" x2="-7.0624793%" y2="100%" id="linearGradient-19">
            <stop stop-color="#FFF6DC" offset="0%"></stop>
            <stop stop-color="#FFE7B3" offset="100%"></stop>
        </linearGradient>
        <linearGradient x1="76.8989275%" y1="-205.866364%" x2="20.1097246%" y2="299.61614%" id="linearGradient-20">
            <stop stop-color="#FEDBA8" offset="0%"></stop>
            <stop stop-color="#EFA6A0" offset="100%"></stop>
        </linearGradient>
    </defs>
    <g id="landing" stroke="none" stroke-width="1" fill="none" fill-rule="evenodd">
        <g id="How-ty" transform="translate(-853.000000, -3661.000000)">
            <g id="Group-9-Copy-6" transform="translate(120.000000, 3632.000000)">
                <g id="6" transform="translate(733.000000, 49.000000)">
                    <g id="3" transform="translate(0.000000, 70.044404)">
                        <path d="M246.376329,159.014591 C246.237681,156.589532 246.5843,152.848013 244.504589,151.04654 C242.702174,149.45293 239.305314,149.591505 237.086957,149.383642 C232.99686,148.967918 228.906763,148.552193 224.816667,148.275044 C217.052415,147.651457 209.357488,147.166445 201.593237,146.750721 C186.480676,145.919272 171.298792,145.087823 156.116908,144.879961 C139.825845,144.672099 123.465459,145.295686 107.382367,147.720745 C103.222947,148.344331 99.0635266,149.037205 95.0427536,150.007229 C92.5471014,150.630816 89.9128019,151.392977 87.9024155,153.125162 C86.0306763,154.78806 85.0601449,156.935969 85.2681159,159.430316 C85.5454106,162.617536 88.1797101,165.73547 87.0705314,168.92269 C86.7932367,169.754139 87.0705314,170.377726 87.5557971,170.724163 C87.2091787,177.237179 87.2785024,183.750195 87.8330918,190.332498 C88.1103865,193.589006 88.5263285,196.845514 89.0115942,200.102022 C89.4275362,202.804231 89.6355072,205.645014 91.7845411,207.515774 C96.3599034,211.395869 104.401449,212.227317 110.08599,212.920192 C117.503623,213.820928 194.522222,215.553113 225.44058,213.128054 C230.847826,212.712329 237.15628,212.643042 240.830435,208.070073 C244.296618,203.843542 244.643237,197.607675 245.336473,192.41112 C246.307005,184.92808 246.792271,177.306466 246.722947,169.754139 C246.792271,166.151194 246.653623,162.548249 246.376329,159.014591 Z" id="Shape" fill="url(#linearGradient-1)" fill-rule="nonzero"></path>
                        <path d="M264.123188,103.030369 C265.85628,99.7045739 265.440338,93.3994202 264.747101,91.1822232 C262.390097,84.1841955 255.735024,79.9576638 248.733333,78.6412032 C233.75942,75.869707 218.230918,84.3227703 211.298551,97.6259518 C209.426812,101.159609 208.109662,104.901129 206.792512,108.711936 C205.336715,112.938468 204.29686,116.749275 205.336715,121.183669 C207.347101,129.913882 211.367874,138.644095 215.596618,146.473571 C219.062802,152.986587 223.36087,162.478962 231.333092,164.141859 C238.404106,165.666182 244.989855,161.647513 249.079952,156.173808 C255.111111,148.136469 257.190821,137.119772 260.241063,127.696685 C261.974155,122.292267 264.261836,116.749275 265.301691,111.136995 C265.786957,108.296212 265.578986,105.386141 264.123188,103.030369 Z" id="Shape" fill="url(#linearGradient-2)" fill-rule="nonzero"></path>
                        <path d="M111.541787,101.367472 C108.144928,94.1615816 104.470773,88.7571641 97.3304348,84.8077821 C93.5176329,82.6598726 89.5661836,80.6505379 85.6147343,78.7104906 C83.4657005,77.6711795 81.455314,77.0475929 79.8608696,79.1955024 C79.7222222,79.3340772 79.6528986,79.5419394 79.6528986,79.6805142 C75.9094203,82.4520104 73.2751208,86.5399672 72.2352657,91.1822232 C70.8487923,97.487377 73.0671498,103.168944 76.186715,108.573362 C80.6927536,116.264263 84.7828502,123.470153 86.723913,132.269654 C87.6251208,136.149748 88.4570048,140.09913 89.0809179,144.048512 C89.7741546,148.136469 89.6355072,152.709438 91.2299517,156.589532 C93.4483092,162.132525 99.1328502,164.419009 104.332126,161.231788 C107.035749,159.568891 108.838164,156.728107 110.709903,154.233761 C112.997585,151.115827 115.423913,148.067182 117.364976,144.672099 C125.545169,130.121744 117.919565,114.947803 111.541787,101.367472 Z" id="Shape" fill="url(#linearGradient-3)" fill-rule="nonzero"></path>
                        <path d="M236.532367,158.460292 C233.898068,151.185115 230.223913,144.1178 226.688406,137.258347 C223.291546,130.606756 219.756039,123.955165 215.735266,117.650011 C214.140821,113.769917 211.714493,110.028397 209.426812,106.564027 C210.397343,105.386141 211.298551,104.06968 212.130435,102.75322 C215.527295,97.2795148 217.8843,91.2515106 221.905072,86.1935302 C225.579227,81.6205615 229.738647,77.2554551 231.541063,71.5046006 C233.690097,64.714435 231.194444,57.5778325 229.322705,50.9955291 C225.717874,38.454509 220.795894,26.0520638 210.605314,17.3218509 C205.406039,12.8874571 199.58285,8.93807507 193.413043,6.02800412 C187.035266,3.04864576 178.785749,0.831448844 171.784058,0.692874037 C159.652415,0.485011826 150.571014,1.45503548 139.201932,6.23586633 C125.198551,12.1252956 115.215942,25.913489 108.838164,39.0780957 C102.52971,52.173415 98.2316425,66.5159075 98.7862319,81.0662623 C98.5089372,81.7591363 98.5089372,82.5905852 98.9248792,83.422034 C98.9248792,83.5606088 98.9248792,83.6991836 98.9248792,83.8377584 C98.9942029,85.0156443 99.826087,85.6392309 100.727295,85.8470932 C105.094686,91.5286603 109.392754,97.14094 113.760145,102.822507 C116.255797,106.079015 118.751449,109.127661 121.524396,111.760582 C120.068599,113.631342 118.820773,115.709964 117.642271,117.511437 C116.255797,119.659346 114.592029,122.292267 113.968116,124.925189 C107.936957,133.586114 103.430918,143.771363 99.4794686,153.402312 C98.3702899,156.10452 94.4881643,162.063237 98.5782609,164.003285 C100.796618,165.042596 104.124155,164.834733 106.481159,165.042596 C109.878019,165.389033 113.344203,165.596895 116.741063,165.874044 C142.460145,167.744804 168.317874,167.952667 194.036957,167.744804 C207.901691,167.606229 222.113043,167.814092 235.561836,164.141859 C238.612077,163.379698 238.404106,159.776753 236.532367,158.460292 Z" id="Shape" fill="url(#linearGradient-4)" fill-rule="nonzero"></path>
                        <path d="M234.799275,166.497631 C234.660628,164.557584 234.175362,146.196422 234.175362,145.98856 C234.31401,133.655402 235.631159,120.560082 239.651932,108.781224 C241.246377,104.06968 243.742029,99.5659991 247.624155,96.3787785 C250.813043,93.8151446 255.596377,91.5286603 259.686473,92.9836957 C259.755797,92.9836957 259.825121,93.0529831 259.894444,93.1222705 C263.429952,93.9537194 266.41087,97.2102274 268.005314,100.328161 C270.639614,105.524716 269.946377,111.622007 268.282609,116.957137 C266.272222,123.608728 263.083333,129.775307 261.627536,136.63476 C260.587681,141.692741 262.806039,209.525109 257.260145,211.257294 C250.813043,213.335916 243.18744,213.613066 237.017633,211.326581 C236.463043,211.118719 235.631159,209.940833 235.631159,209.247959 C235.353865,197.74625 234.521981,184.443069 234.660628,173.010647 C234.729952,170.79345 234.729952,168.645541 234.799275,166.497631 Z" id="Shape" fill="url(#linearGradient-5)" fill-rule="nonzero"></path>
                        <path d="M74.5229469,55.5684977 C74.7309179,55.3606355 74.8002415,54.9449111 74.4536232,54.7370489 C69.6702899,51.5498283 64.7483092,50.3026551 59.6183575,47.8083085 C54.1417874,45.1753872 48.318599,42.6810407 43.673913,38.8009461 C38.7519324,34.7129892 35.6323671,29.5857214 33.2753623,23.4884298 C32.5821256,21.7562448 31.8195652,17.4604257 29.6012077,17.0447013 C29.4625604,16.8368391 29.1852657,16.6982643 28.907971,16.9061265 C28.8386473,16.9754139 28.7693237,16.9754139 28.7,17.0447013 C28.6306763,17.0447013 28.5613527,17.1139887 28.5613527,17.1832761 C25.3031401,20.0240597 24.4019324,23.9041543 25.6497585,28.4078355 C26.3429952,30.9714694 26.9669082,32.3572175 28.284058,34.7129892 C29.6705314,37.2766232 30.4330918,39.9788319 31.3342995,42.7503281 C32.7207729,47.1154345 35.0084541,52.3812772 39.5144928,51.2726787 C46.1695652,49.609781 57.3306763,61.0422026 57.5386473,60.9729152 C61.4900966,63.8136988 64.4710145,66.5159075 67.313285,69.4952659 C69.3236715,73.0982109 71.8886473,67.6937934 72.9285024,65.8230335 C74.0376812,63.8136988 75.978744,61.3886397 76.3253623,59.1021553 C76.4640097,57.3699702 75.4934783,56.6078088 74.5229469,55.5684977 Z" id="Shape" fill="#FFEBDF" fill-rule="nonzero"></path>
                        <path d="M67.2439614,98.6652628 C67.1746377,95.1316052 66.8280193,91.5979477 66.4120773,88.0642901 C66.2041063,86.332105 66.27343,84.1841955 65.3722222,82.5905852 C65.9961353,82.1748608 65.5801932,80.9969749 64.7483092,81.2741245 C54.7657005,84.5306325 50.6062802,90.0736248 29.115942,93.537995 C23.0154589,94.5080186 20.0345411,93.6765698 12.4782609,92.1522469 C10.6065217,91.7365225 8.04154589,90.8357862 6.23913043,90.281487 C5.26859903,90.0043374 4.15942029,89.3114633 3.05024155,89.3807507 C2.98091787,89.3807507 2.9115942,89.3807507 2.84227053,89.3807507 C2.77294686,89.2421759 2.63429952,89.1728885 2.4263285,89.2421759 C-0.4852657,90.2121996 0.415942029,94.4387312 1.52512077,96.5173533 C3.53550725,100.189586 8.73478261,101.575334 12.4782609,102.47607 C19.1333333,104.06968 21.7676329,106.494739 27.3135266,107.118326 C31.4036232,107.603338 31.8888889,103.861818 37.4347826,102.47607 C45.0603865,100.397448 48.0413043,101.644621 53.3792271,101.090322 C57.9545894,100.60531 62.3913043,100.397448 66.5507246,98.3188258 C67.0359903,98.1109636 67.2439614,97.6952392 67.2439614,98.6652628 Z" id="Shape" fill="#FFEBDF" fill-rule="nonzero"></path>
                        <path d="M205.406039,87.0942664 C205.752657,87.0942664 205.752657,86.5399672 205.406039,86.5399672 C205.05942,86.5399672 205.05942,87.0942664 205.406039,87.0942664 Z" id="Shape" fill="#22B473" fill-rule="nonzero"></path>
                        <path d="M62.3913043,83.2141718 C62.7379227,83.2141718 62.7379227,82.6598726 62.3913043,82.6598726 C62.044686,82.72916 62.044686,83.2141718 62.3913043,83.2141718 Z" id="Shape" fill="#603813" fill-rule="nonzero"></path>
                        <path d="M97.6077295,141.207729 C96.4292271,144.949248 97.2611111,149.591505 97.1224638,153.471599 C96.9838164,157.836706 96.1519324,162.617536 96.6371981,166.913355 C96.7758454,168.021954 98.3009662,168.368391 98.6475845,167.190505 C99.8954106,162.894686 99.6874396,157.905993 99.6874396,153.471599 C99.6874396,149.591505 100.242029,144.672099 98.7169082,141.069154 C98.4396135,140.584142 97.7463768,140.792004 97.6077295,141.207729 Z" id="Shape" fill="#0071BB" fill-rule="nonzero"></path>
                        <path d="M97.1224638,139.891268 C97.8157005,142.593477 97.3304348,145.43426 97.1917874,148.136469 C97.0531401,150.630816 96.9838164,153.055875 96.9144928,155.550221 C96.7065217,160.192477 95.805314,165.45832 96.6371981,169.962001 C96.8451691,171.001312 98.3009662,170.862737 98.5782609,169.962001 C99.9647343,165.111883 99.3408213,159.153166 99.4101449,154.164473 C99.4794686,149.522217 100.242029,143.84065 98.4396135,139.475544 C98.0929952,138.78267 96.9144928,139.059819 97.1224638,139.891268 Z" id="Shape" fill="#0071BB" fill-rule="nonzero"></path>
                        <path d="M100.034058,166.497631 C100.172705,164.557584 100.657971,146.196422 100.657971,145.98856 C100.519324,133.655402 99.2021739,120.560082 95.181401,108.781224 C93.5869565,104.06968 91.0913043,99.5659991 87.2091787,96.3787785 C84.0202899,93.8151446 79.2369565,91.5286603 75.1468599,92.9836957 C75.0775362,92.9836957 75.0082126,93.0529831 74.9388889,93.1222705 C71.4033816,93.9537194 68.4224638,97.2102274 66.8280193,100.328161 C64.1937198,105.524716 64.8869565,111.622007 66.5507246,116.957137 C68.5611111,123.608728 71.75,129.775307 73.2057971,136.63476 C74.2456522,141.692741 72.0272947,209.525109 77.5731884,211.257294 C84.0202899,213.335916 91.6458937,213.613066 97.8157005,211.326581 C98.3702899,211.118719 99.2021739,209.940833 99.2021739,209.247959 C99.4794686,197.74625 100.311353,184.443069 100.172705,173.010647 C100.103382,170.79345 100.103382,168.645541 100.034058,166.497631 Z" id="Shape" fill="url(#linearGradient-6)" fill-rule="nonzero"></path>
                        <path d="M218.851429,59.2239012 C209.233445,62.0934333 202.500856,73.5715619 205.386251,84.0931798 C206.348049,88.8757334 206.348049,94.6147977 209.233445,96.5278191 C210.291423,97.1973766 211.445581,97.7712831 212.695919,98.2495384 C218.466709,97.0060745 222.698622,93.0843805 225.872557,87.9192227 C228.565592,83.6149244 230.873908,79.023673 233.374584,74.6237237 C234.624922,72.423749 236.740879,69.9368212 237.125598,67.2585912 C239.530094,67.5455444 242.12695,68.0237998 244.435266,69.0759615 C240.010993,59.9891097 228.277053,55.7804626 218.851429,59.2239012 Z" id="Shape" fill="url(#linearGradient-7)" fill-rule="nonzero"></path>
                        <path d="M286.376087,106.979751 C285.68285,101.506046 282.909903,96.6559281 280.20628,91.9443847 C278.542512,89.0343137 276.324155,85.985668 275.630918,82.5905852 C274.937681,79.3340772 275.908213,76.0775692 277.294686,73.1674983 C279.374396,70.4652895 280.20628,66.7237697 280.691546,63.4672618 C281.315459,58.6864309 281.731401,53.2820134 280.20628,48.57047 C278.958454,44.8982376 276.532126,41.711017 273.41256,39.4245327 C271.818116,38.2466468 270.0157,37.3459106 268.143961,36.7223239 C265.786957,35.9601625 262.320773,36.4451743 260.37971,34.9208515 C260.37971,34.9208515 260.37971,34.851564 260.37971,34.851564 C257.329469,26.4677882 245.891063,25.0820401 238.404106,27.4378119 C234.175362,28.7542725 230.36256,31.3179065 227.658937,34.851564 C226.064493,36.8608988 224.88599,39.1473831 223.36087,41.2260052 C221.281159,43.9975013 218.577536,45.7296864 215.596618,47.3232967 C211.367874,49.609781 207.277778,51.7576905 204.643478,55.9149348 C203.464976,57.8549821 202.633092,60.0028916 202.286473,62.2893759 C201.801208,65.1301595 202.841063,68.1788052 202.21715,70.881014 C201.66256,73.2367857 199.860145,75.176833 199.513527,77.6018921 C199.166908,79.9576638 200.068116,82.3134356 201.523913,84.1149081 C204.29686,87.4407034 209.288164,88.8957389 213.447585,88.7571641 C214.348792,88.7571641 215.180676,88.6185893 215.943237,88.4107271 C215.111353,88.0642901 214.279469,87.7178531 213.447585,87.1635538 C211.367874,85.7778058 211.367874,81.6205615 210.674638,78.1561913 C208.594928,70.5345769 213.447585,62.2200885 220.379952,60.1414664 C227.173671,57.6471199 235.631159,60.6957656 238.820048,67.278069 C240.691787,68.1788052 242.216908,69.4952659 242.63285,71.573888 C242.702174,71.8510376 242.840821,71.9896124 242.979469,72.1281872 C243.742029,73.7910849 244.573913,75.3846952 245.752415,76.7704433 C247.416184,78.8490654 249.634541,80.2348135 251.298309,82.2441482 C254.348551,86.0549554 251.090338,88.3414397 250.397101,91.9443847 C250.050483,93.6765698 250.535749,95.4780423 251.50628,96.9330777 C252.546135,98.526688 254.14058,99.5659991 255.804348,100.397448 C258.923913,101.921771 261.211594,103.238231 262.320773,106.771889 C264.192512,112.522744 262.45942,118.273598 261.488889,124.024453 C260.864976,127.904547 261.003623,132.546803 264.955072,134.694713 C268.351932,136.496185 272.65,135.664736 275.700242,133.655402 C279.374396,131.230343 281.176812,127.350248 282.771256,123.400866 C284.989614,118.273598 287.069324,112.799893 286.376087,106.979751 Z" id="Shape" fill="url(#linearGradient-8)" fill-rule="nonzero"></path>
                        <g id="Group" transform="translate(131.021739, 43.651064)" fill="#FFEBDF" fill-rule="nonzero">
                            <path d="M54.2804348,53.9748875 C54.1417874,53.9056001 54.0031401,53.8363127 53.7951691,53.9748875 C49.9130435,56.3306592 46.0309179,58.6171435 42.0101449,60.6957656 C39.5144928,61.9429389 37.1574879,63.0515373 34.2458937,62.8436751 C31.8888889,62.7051003 29.5318841,62.4279507 27.1055556,62.2200885 C22.4608696,61.7350767 17.7468599,61.0422026 13.2408213,59.8643168 C10.0519324,59.0328679 6.86304348,57.9242695 3.60483092,57.5085451 C3.3968599,57.3006828 3.11956522,57.3006828 2.98091787,57.4392576 C2.28768116,57.3699702 1.52512077,57.3699702 0.831884058,57.3699702 C0.138647343,57.3699702 0.138647343,58.4092813 0.831884058,58.4092813 C1.59444444,58.4785687 2.35700483,58.5478561 3.11956522,58.6864309 C3.74347826,60.0028916 4.3673913,61.2500649 5.33792271,62.3586633 C6.23913043,63.2593996 7.55628019,64.6451476 8.87342995,64.714435 C9.01207729,64.714435 9.15072464,64.6451476 9.22004831,64.5065728 C13.3794686,66.7237697 18.4400966,67.4859312 22.9461353,68.5945296 C27.7987923,69.7724155 36.0483092,72.0588998 37.7120773,71.6431754 C37.8507246,71.573888 42.5647343,69.2874037 44.6444444,68.1788052 C46.8628019,66.931632 49.0811594,65.6844587 51.0915459,64.1601358 C51.0915459,64.1601358 51.0915459,64.1601358 51.1608696,64.1601358 C51.6461353,64.2294232 52.0620773,64.021561 52.4780193,63.7444114 C51.6461353,65.4765965 50.7449275,67.1394942 49.7743961,68.7331044 C49.2891304,69.4952659 50.5369565,70.2574273 50.9528986,69.4259785 C52.2007246,67.2087816 53.2405797,64.9222972 54.2111111,62.6358129 C54.2804348,62.4972381 54.3497585,62.2893759 54.4190821,62.1508011 C54.4190821,62.1508011 54.4884058,62.0815137 54.4884058,62.0815137 C54.6270531,61.9429389 54.6963768,61.8043641 54.6270531,61.6657893 C55.3896135,60.072179 56.1521739,58.3399939 56.4294686,56.6078088 C56.776087,54.5984741 55.9442029,53.0048638 54.2804348,53.9748875 Z" id="Shape"></path>
                            <path d="M123.396135,36.7223239 C122.980193,34.505127 122.009662,34.6437018 120.623188,33.9508278 C116.87971,32.0800679 118.266184,25.913489 118.612802,22.1719692 C118.95942,17.9454376 120.831159,13.9960555 122.425604,10.1852483 C123.67343,7.27517739 125.129227,4.15724422 124.505314,0.970023651 C124.505314,0.970023651 124.574638,0.970023651 124.574638,0.970023651 C124.99058,0.831448844 124.851932,0.207862211 124.366667,0.277149615 C120.484541,1.03931106 116.533092,1.66289769 112.581643,2.07862211 C109.462077,2.35577173 106.273188,2.28648432 103.153623,2.70220874 C97.8850242,3.39508278 93.6562802,6.92874037 90.952657,11.4324216 C88.1797101,16.0746777 86.1,22.1026818 87.9717391,27.3685245 C89.3582126,31.1793317 90.3980676,35.6137255 88.1797101,39.4938201 C85.892029,43.4432021 79.3062802,42.8196155 75.3548309,43.2353399 C75.2161836,43.2353399 75.0775362,43.3046273 75.0082126,43.3739147 C71.8886473,44.3439384 77.0879227,48.224033 78.1971014,48.7090448 C83.6736715,50.9955291 91.0219807,52.866289 96.9838164,51.8962654 C97.3304348,51.826978 97.4690821,51.4805409 97.4690821,51.1341039 C99.6181159,47.9468833 101.975121,44.7596628 105.371981,43.0967651 C115.839855,38.0387846 113.136232,41.711017 117.850242,41.711017 C119.929952,41.5724422 124.089372,40.1866941 123.396135,36.7223239 Z" id="Shape"></path>
                        </g>
                        <path d="M173.378502,118.48146 C173.239855,117.857874 172.685266,117.857874 172.269324,118.065736 C172.2,117.927161 172.061353,117.788586 171.784058,117.788586 C166.792754,117.788586 162.00942,116.679988 157.156763,115.432815 C153.343961,114.393503 150.016425,112.730606 146.619565,110.998421 C146.619565,110.859846 146.550242,110.721271 146.411594,110.582696 C132.130918,99.8431487 107.521014,73.5139353 107.382367,73.5832227 C107.382367,73.5832227 107.382367,73.5832227 107.382367,73.5832227 C101.76715,69.7724155 95.597343,66.5159075 89.7048309,63.1208248 C84.9908213,60.3493286 80.2074879,56.122797 74.8695652,54.7370489 C74.8002415,54.5984741 73.4830918,55.4299229 73.4830918,55.4299229 C69.3929952,58.8250057 67.4519324,65.4073091 67.2439614,70.4652895 C67.2439614,70.6731518 67.313285,70.8117266 67.4519324,70.881014 C69.8782609,72.8903487 72.5818841,74.5532464 75.4934783,75.8004196 C75.5628019,75.869707 75.5628019,75.9389944 75.7014493,76.0082818 C85.5454106,81.2741245 96.013285,85.9163806 105.025362,92.5679713 C113.690821,99.0809873 121.03913,107.187613 129.91256,113.492767 C138.162077,119.312909 147.382126,124.509464 157.226087,127.073098 C163.187923,128.597421 175.180918,127.488823 173.378502,118.48146 Z" id="Shape" fill="url(#linearGradient-9)" fill-rule="nonzero"></path>
                        <path d="M195.978019,88.8264515 C193.413043,89.0343137 191.056039,89.7271878 188.976329,91.2515106 C188.075121,91.9443847 186.619324,92.8451209 185.78744,93.6072824 C185.094203,94.1615816 183.638406,94.923743 183.083816,95.6859045 C182.39058,96.7252155 183.361111,98.526688 183.985024,99.3581369 C185.024879,100.951747 186.55,101.991058 188.283092,102.47607 C188.421739,102.891794 188.976329,103.168944 189.392271,102.75322 C192.719807,98.9424125 195.146135,94.5080186 196.047343,89.4500381 C196.047343,89.4500381 196.047343,89.4500381 196.047343,89.3807507 C196.047343,89.3807507 196.047343,89.3807507 196.047343,89.3807507 C196.393961,89.3114633 196.324638,88.7571641 195.978019,88.8264515 Z" id="Shape" fill="url(#linearGradient-10)" fill-rule="nonzero"></path>
                        <path d="M193.135749,228.579145 L170.813527,242.5752 C170.328261,242.85235 169.773671,242.921637 169.427053,242.644488 L159.999034,236.200759 C159.16715,235.64646 159.444444,234.191424 160.414976,233.567838 L182.737198,219.571782 C183.222464,219.294633 183.777053,219.225345 184.123671,219.502495 L193.551691,225.946223 C194.383575,226.500523 194.10628,227.955558 193.135749,228.579145 Z" id="Shape" fill="#EEEFF3" fill-rule="nonzero"></path>
                        <path d="M222.182367,155.619509 C223.014251,155.827371 223.915459,155.550221 224.470048,154.718772 C224.608696,154.51091 224.608696,153.679461 224.539372,153.540887 C223.638164,152.432288 222.182367,153.610174 221.835749,154.857347 C221.766425,155.203784 221.974396,155.550221 222.182367,155.619509 Z" id="Shape" fill="#FFFFFF" fill-rule="nonzero"></path>
                        <path d="M184.747585,150.076516 C185.579469,150.284379 186.480676,150.007229 187.035266,149.17578 C187.173913,148.967918 187.173913,148.136469 187.104589,147.997894 C186.203382,146.889296 184.747585,148.067182 184.400966,149.314355 C184.331643,149.660792 184.539614,150.007229 184.747585,150.076516 Z" id="Shape" fill="#FFFFFF" fill-rule="nonzero"></path>
                        <g id="Group" transform="translate(59.618357, 69.287404)">
                            <path d="M116.810386,67.278069 C116.533092,64.2987106 116.602415,61.3193523 116.11715,58.3399939 C115.701208,55.9149348 115.285266,52.7970016 113.274879,51.2033913 C104.401449,52.173415 94.2801932,54.5984741 86.1693237,49.5404936 C76.8799517,46.1454108 70.3635266,38.8009461 64.4710145,31.1793317 C60.7275362,26.3292134 57.192029,21.4098077 53.0326087,16.9061265 C49.6357488,13.0953193 45.8229469,9.76952392 42.0794686,6.37444114 C42.0794686,6.37444114 42.0101449,6.37444114 42.0101449,6.37444114 C39.0292271,4.15724422 36.0483092,1.8707599 32.0275362,2.07862211 C28.492029,2.28648432 25.0951691,4.08795682 21.8369565,5.33513008 C15.5285024,7.89876402 8.66545894,10.1159609 2.98091787,13.8574807 C0.207971014,18.5690242 -0.277294686,26.259926 3.25821256,30.6943198 C3.32753623,30.6250324 3.3968599,30.6250324 3.46618357,30.555745 C8.31884058,28.6156977 11.4384058,23.9734417 16.2910628,21.8948196 C20.3118357,20.0933471 25.6497585,18.9847486 29.9478261,20.5783589 C30.1557971,20.6476463 30.2944444,20.8555085 30.2251208,21.0633707 C32.7900966,22.3798314 34.3845411,25.2899023 35.9789855,27.7842489 C39.0292271,32.7036545 41.5942029,37.8309224 44.1591787,43.0274777 C49.2891304,53.3513008 54.2111111,64.021561 61.6980676,72.9596361 C69.1157005,81.8284237 80.4154589,90.0736248 92.6164251,87.6485657 C97.9543478,86.5399672 103.014976,83.6991836 107.798309,81.1355497 C110.224638,79.819089 112.512319,78.433341 114.453382,76.4932937 C115.909179,75.1075456 118.127536,73.5139353 119.236715,71.7124628 C117.572947,70.9503014 116.949034,69.2181163 116.810386,67.278069 Z" id="Shape"></path>
                            <path d="M119.860628,70.3960021 C116.394444,68.5252422 118.95942,53.212726 113.898792,50.3026551 C113.829469,49.9562181 113.48285,49.609781 112.997585,49.7483558 C104.124155,52.4505646 95.2507246,51.8962654 86.723913,48.7783322 C86.6545894,48.6397574 86.5852657,48.57047 86.4466184,48.5011826 C75.7014493,44.2053635 68.9770531,34.851564 62.1140097,26.0520638 C56.4987923,18.7768864 43.1193237,5.33513008 42.842029,5.12726787 C40.3463768,3.18722057 37.6427536,1.17788586 34.3845411,0.623586633 C31.0570048,0.0692874037 27.8681159,1.24717327 24.8871981,2.49434653 C20.7277778,4.22653162 16.7070048,6.09729152 12.6169082,7.89876402 C8.73478261,9.56166171 4.02077295,10.6009728 0.623913043,13.1646067 C0.346618357,13.3724689 -0.901207729,27.0913748 2.63429952,31.5950561 C2.84227053,31.8029183 3.05024155,31.8029183 3.25821256,31.6643435 C3.3968599,31.7336309 3.53550725,31.8029183 3.74347826,31.7336309 C7.83357488,30.4171702 10.3985507,27.0220874 13.934058,24.8048905 C18.7173913,21.8255322 23.3620773,21.6869574 28.6306763,21.4098077 C31.5422705,22.4491188 33.2753623,25.913489 34.8004831,28.4771229 C35.2164251,29.1699969 35.6323671,29.862871 36.0483092,30.6250324 C36.4642512,31.3179065 36.8801932,32.0800679 37.2961353,32.7729419 C42.9806763,42.9581903 47.1400966,53.3513008 54.1417874,63.0515373 C54.5577295,63.675124 54.9736715,64.367998 55.3896135,64.9915846 C61.628744,74.4146715 66.0654589,81.2741245 72.7898551,83.8377584 C83.8816425,87.9950027 97.0531401,87.9950027 107.659662,83.1448844 C108.699517,82.5905852 109.670048,81.9669986 110.709903,81.4126993 C115.701208,78.433341 120.345894,75.1075456 121.385749,74.2068093 C122.564251,73.0982109 120.553865,73.0289235 121.247101,71.573888 C121.247101,71.573888 121.247101,71.5046006 121.316425,71.5046006 C121.385749,71.3660258 121.455072,71.1581636 121.524396,70.9503014 C121.732367,69.9109903 120.27657,69.4952659 119.860628,70.3960021 Z" id="Shape" fill="url(#linearGradient-11)" fill-rule="nonzero"></path>
                        </g>
                        <path d="M228.560145,95.8244793 C228.768116,94.923743 228.83744,94.7851682 228.213527,94.8544556 C224.262077,94.9930304 220.033333,94.7158808 216.151208,93.9537194 C214.695411,93.6765698 213.239614,93.2608453 211.85314,92.7758335 C210.674638,92.3601091 209.565459,91.8058099 208.45628,91.1822232 C207.832367,90.8357862 203.118357,87.9950027 206.653865,86.9556916 C207.000483,86.8864042 206.931159,86.678542 206.584541,86.678542 C205.960628,86.6092546 204.990097,86.6092546 204.851449,86.6092546 C201.385266,86.332105 197.641787,86.2628176 194.522222,87.9950027 C191.402657,89.7271878 189.600242,93.3301328 187.728502,96.1709163 C185.094203,100.120298 184.262319,103.515381 181.628019,107.464763 C178.508454,112.107019 172.823913,117.165 166.72343,117.026425 C166.238164,117.026425 166.099517,117.580724 166.307488,117.857874 C166.307488,117.857874 166.307488,117.857874 166.307488,117.857874 C167.48599,121.322244 167.48599,125.063764 168.872464,128.458846 C169.912319,130.953193 171.229469,133.932551 172.823913,136.149748 C176.220773,140.999866 182.321256,145.849985 188.421739,146.057847 C188.768357,146.057847 188.976329,145.849985 189.045652,145.572835 C189.045652,145.572835 189.045652,145.503548 189.114976,145.503548 C192.858454,136.011173 203.257005,131.715354 211.714493,127.003811 C211.85314,127.073098 212.061111,127.073098 212.269082,126.934524 C214.348792,125.410201 216.497826,124.163027 218.369565,122.361555 C220.587923,120.282933 222.667633,117.996448 224.816667,115.779252 C227.658937,112.799893 230.986473,109.751247 230.154589,105.316854 C230.639855,105.386141 228.768116,98.6652628 228.560145,95.8244793 Z" id="Shape" fill="url(#linearGradient-12)" fill-rule="nonzero"></path>
                        <path d="M222.598309,115.640677 C219.270773,115.571389 215.943237,115.848539 212.962319,117.511437 C212.823671,117.580724 212.754348,117.719299 212.823671,117.857874 C210.120048,120.837232 208.941546,125.410201 207.624396,129.082433 C205.960628,133.655402 204.29686,138.297658 203.187681,143.078489 C203.118357,143.078489 203.118357,143.147776 203.049034,143.147776 C198.612319,149.868654 191.333333,152.778725 185.024879,157.282406 C179.340338,161.301076 173.655797,169.407702 168.387198,171.139887 C166.307488,171.832761 163.950483,174.188533 162.841304,175.297131 C160.068357,178.068627 158.127295,185.690242 158.681884,187.07599 C159.097826,188.184588 160.276329,188.323163 162.148068,183.61162 C162.425362,182.918746 163.534541,181.532998 163.811836,181.394423 C164.019807,181.325135 163.118599,183.819482 162.841304,184.304494 C161.940097,186.105966 160.761594,187.768864 160.068357,189.847486 C159.375121,191.926108 160.207005,193.034707 160.761594,193.311856 C162.148068,194.00473 165.891546,193.034707 168.387198,191.233234 C173.239855,187.768864 175.943478,173.980671 176.012802,173.911383 C181.420048,167.883379 190.70942,164.834733 198.196377,160.746777 C203.326329,157.97528 209.218841,154.164473 213.031643,149.591505 C213.239614,149.660792 218.854831,138.22837 221.281159,132.616091 C223.083575,128.389559 225.44058,123.885878 225.579227,119.243622 C225.648551,119.174334 225.717874,119.03576 225.717874,118.966472 C226.480435,116.264263 224.88599,115.709964 222.598309,115.640677 Z" id="Shape" fill="#FFEBDF" fill-rule="nonzero"></path>
                        <path d="M229.322705,104.970417 C226.480435,101.298184 216.081884,101.090322 213.516908,106.702602 C206.584541,121.94583 207.277778,121.94583 210.120048,122.985142 C228.28285,129.498157 228.83744,129.983169 230.36256,108.781224 C230.501208,107.326188 230.501208,106.494739 229.322705,104.970417 Z" id="Shape" fill="url(#linearGradient-13)" fill-rule="nonzero"></path>
                        <path d="M214.556763,214.513802 C210.050725,212.989479 204.851449,210.495132 201.939855,206.54575 C198.82029,202.319219 198.404348,195.806203 198.057729,190.678935 C198.335024,188.877462 198.750966,187.07599 199.652174,185.48238 C200.9,183.265183 203.118357,182.018009 205.128744,180.632261 C207.416425,179.107939 209.704106,177.445041 211.437198,175.158556 C216.01256,169.130552 214.348792,158.806729 222.321014,155.550221 C222.598309,155.411646 222.459662,154.995922 222.182367,155.065209 C214.626087,157.767418 215.388647,167.121218 212.130435,173.010647 C209.77343,177.237179 205.683333,179.107939 202.078502,181.948722 C199.305556,184.096632 198.2657,186.729553 197.641787,189.986061 C197.572464,190.055348 197.572464,190.055348 197.572464,190.124636 C197.572464,190.124636 197.572464,190.124636 197.572464,190.124636 C195.215459,185.898104 194.66087,181.255848 194.868841,176.475017 C195.007488,172.66421 195.839372,168.784115 195.076812,164.973308 C194.036957,159.430316 189.1843,155.688796 183.569082,156.243095 C183.499758,156.243095 183.361111,156.173808 183.291787,156.10452 C181.281401,155.411646 182.875845,152.501575 183.499758,151.531552 C184.123671,150.492241 185.024879,149.799367 185.856763,148.898631 C185.995411,148.760056 185.78744,148.482906 185.648792,148.621481 C183.777053,149.591505 179.964251,154.718772 182.667874,156.520245 C182.737198,156.589532 183.291787,156.797395 183.430435,156.797395 C187.381884,156.450958 191.125362,158.113855 193.274396,161.578225 C195.42343,165.111883 194.730193,169.684852 194.383575,173.564946 C193.898309,179.59295 194.175604,185.551667 197.364493,190.886797 C197.364493,190.956085 197.433816,190.956085 197.50314,190.956085 C197.50314,191.094659 197.572464,191.163947 197.641787,191.163947 C197.849758,198.0234 198.958937,205.506439 204.643478,209.871546 C207.277778,211.88088 210.189372,213.474491 213.308937,214.583089 C217.399034,216.107412 223.568841,216.523136 226.411111,220.056794 C228.144203,222.204704 228.976087,224.69905 225.509903,226.500523 C224.400725,227.054822 222.875604,226.985534 221.697101,226.916247 C219.40942,226.84696 217.260386,226.084798 215.111353,225.322637 C213.794203,224.906912 212.546377,224.421901 211.229227,224.560475 C208.664251,224.768338 206.723188,226.361948 204.158213,224.768338 C201.939855,223.382589 200.484058,221.373255 197.641787,221.581117 C194.799517,221.788979 192.511836,223.936889 190.70942,225.876936 C190.432126,226.154086 190.848068,226.500523 191.125362,226.29266 C193.205072,224.352613 195.076812,222.412566 198.127053,222.481853 C200.622705,222.551141 201.870531,224.214038 203.811594,225.391924 C207.13913,227.470546 209.842754,224.629763 213.378261,225.391924 C216.844444,226.154086 219.825362,227.816983 223.499517,227.470546 C225.648551,227.262684 228.28285,226.639097 228.629469,224.214038 C229.807971,217.077436 219.340097,216.107412 214.556763,214.513802 Z" id="Shape" fill="url(#linearGradient-14)" fill-rule="nonzero"></path>
                    </g>
                    <g id="Group-31" filter="url(#filter-15)" transform="translate(36.118677, 0.000000)">
                        <circle id="Oval-2" fill="url(#linearGradient-16)" cx="135.881323" cy="144" r="135"></circle>
                        <circle id="Oval-8" fill="#FFFFFF" cx="172.151751" cy="88.7801556" r="7.25875486"></circle>
                        <circle id="Oval-8-Copy-8" fill="#FFFFFF" cx="179.410506" cy="104.972763" r="3.35019455"></circle>
                        <circle id="Oval-8-Copy" fill="#FFFFFF" cx="180.80642" cy="61.1410506" r="12.0048638"></circle>
                        <circle id="Oval-8-Copy-2" fill="#FFFFFF" cx="201.18677" cy="38.5272374" r="24.5680934"></circle>
                        <circle id="Oval-8-Copy-3" fill="#FFFFFF" cx="166.568093" cy="38.5272374" r="24.5680934"></circle>
                        <circle id="Oval-8-Copy-4" fill="#FFFFFF" cx="186.110895" cy="24.5680934" r="24.5680934"></circle>
                        <circle id="Oval-8-Copy-5" fill="#FFFFFF" cx="215.70428" cy="24.5680934" r="24.5680934"></circle>
                        <circle id="Oval-8-Copy-6" fill="#FFFFFF" cx="225.754864" cy="38.5272374" r="24.5680934"></circle>
                        <circle id="Oval-8-Copy-7" fill="#FFFFFF" cx="198.953307" cy="48.0194553" r="24.5680934"></circle>
                    </g>
                    <g id="coffee-cup" transform="translate(218.879377, 15.634241)" fill-rule="nonzero">
                        <path d="M21.5747543,40.4815175 L6.34353365,40.4815175 C4.74491108,40.4815175 3.42710804,39.2279584 3.34727663,37.6313304 L2.0938716,12.5632296 L25.8244163,12.5632296 L24.5710113,37.6313304 C24.4911799,39.2279584 23.1733769,40.4815175 21.5747543,40.4815175 Z" id="Shape" fill="url(#linearGradient-17)"></path>
                        <polygon id="Shape" fill="url(#linearGradient-18)" points="24.672787 35.5958171 25.5801313 17.44893 2.33815661 17.44893 3.24550097 35.5958171"></polygon>
                        <path d="M25.8244163,6.97957198 L2.0938716,6.97957198 L2.8466789,3.21553546 C3.22061826,1.34583867 4.86227752,3.50259531e-16 6.7690016,0 L21.1492863,0 C23.0560104,-3.50259531e-16 24.6976697,1.34583867 25.071609,3.21553546 L25.8244163,6.97957198 Z" id="Shape" fill="url(#linearGradient-19)"></path>
                        <path d="M2,6.97957198 L25.9182879,6.97957198 C27.0228574,6.97957198 27.9182879,7.87500248 27.9182879,8.97957198 L27.9182879,10.5632296 C27.9182879,11.6677991 27.0228574,12.5632296 25.9182879,12.5632296 L2,12.5632296 C0.8954305,12.5632296 1.3527075e-16,11.6677991 0,10.5632296 L0,8.97957198 C-1.3527075e-16,7.87500248 0.8954305,6.97957198 2,6.97957198 Z" id="Shape" fill="url(#linearGradient-20)"></path>
                    </g>
                </g>
            </g>
        </g>
    </g>
</svg>