<?xml version="1.0" encoding="UTF-8"?>
<svg width="270px" height="328px" viewBox="0 0 270 328" version="1.1" xmlns="http://www.w3.org/2000/svg" xmlns:xlink="http://www.w3.org/1999/xlink">
    <!-- Generator: Sketch 49.3 (51167) - http://www.bohemiancoding.com/sketch -->
    <title>7</title>
    <desc>Created with Sketch.</desc>
    <defs>
        <circle id="path-1" cx="135" cy="135" r="135"></circle>
        <linearGradient x1="-28.0242976%" y1="70.254734%" x2="100%" y2="9.52993869%" id="linearGradient-3">
            <stop stop-color="#FFED47" stop-opacity="0.195369112" offset="0%"></stop>
            <stop stop-color="#FFFFFF" stop-opacity="0.205644248" offset="100%"></stop>
        </linearGradient>
        <linearGradient x1="50%" y1="3.07428534%" x2="50%" y2="97.8156888%" id="linearGradient-4">
            <stop stop-color="#6C9FF7" offset="0%"></stop>
            <stop stop-color="#8CA3F5" offset="100%"></stop>
        </linearGradient>
        <linearGradient x1="19.5246652%" y1="49.7310021%" x2="99.4370049%" y2="50.43903%" id="linearGradient-5">
            <stop stop-color="#5F93EC" offset="0%"></stop>
            <stop stop-color="#6F99EF" offset="40.65%"></stop>
            <stop stop-color="#84A0F3" offset="76.51%"></stop>
            <stop stop-color="#8CA3F5" offset="100%"></stop>
        </linearGradient>
        <linearGradient x1="6.89829703%" y1="53.8253234%" x2="92.5820162%" y2="46.7917888%" id="linearGradient-6">
            <stop stop-color="#CCD7FF" offset="0%"></stop>
            <stop stop-color="#C1D5FF" offset="3.573322%"></stop>
            <stop stop-color="#9DD0FF" offset="16.68%"></stop>
            <stop stop-color="#81CCFF" offset="29.9%"></stop>
            <stop stop-color="#6DC9FF" offset="43.11%"></stop>
            <stop stop-color="#61C8FF" offset="56.33%"></stop>
            <stop stop-color="#5DC7FF" offset="69.57%"></stop>
        </linearGradient>
        <linearGradient x1="-0.193326212%" y1="49.9943474%" x2="100.006454%" y2="49.9943474%" id="linearGradient-7">
            <stop stop-color="#CCD7FF" offset="0%"></stop>
            <stop stop-color="#C1D5FF" offset="3.573322%"></stop>
            <stop stop-color="#9DD0FF" offset="16.68%"></stop>
            <stop stop-color="#81CCFF" offset="29.9%"></stop>
            <stop stop-color="#6DC9FF" offset="43.11%"></stop>
            <stop stop-color="#61C8FF" offset="56.33%"></stop>
            <stop stop-color="#5DC7FF" offset="69.57%"></stop>
        </linearGradient>
        <linearGradient x1="0.0571422866%" y1="50.0616512%" x2="100.073942%" y2="50.0616512%" id="linearGradient-8">
            <stop stop-color="#FAD6BE" offset="0%"></stop>
            <stop stop-color="#FFD7E3" offset="100%"></stop>
        </linearGradient>
        <linearGradient x1="-0.00608540275%" y1="50.0823355%" x2="100.031035%" y2="50.0823355%" id="linearGradient-9">
            <stop stop-color="#5F93EC" offset="19.15%"></stop>
            <stop stop-color="#6F99EF" offset="40.65%"></stop>
            <stop stop-color="#84A0F3" offset="76.51%"></stop>
            <stop stop-color="#8CA3F5" offset="100%"></stop>
        </linearGradient>
    </defs>
    <g id="landing" stroke="none" stroke-width="1" fill="none" fill-rule="evenodd">
        <g id="How-ty" transform="translate(-878.000000, -4148.000000)">
            <g id="Group-15" transform="translate(120.000000, 4095.000000)">
                <g id="7" transform="translate(758.000000, 53.000000)">
                    <g id="Group-30" transform="translate(0.000000, 58.000000)">
                        <g id="Oval-5">
                            <mask id="mask-2" fill="white">
                                <use xlink:href="#path-1"></use>
                            </mask>
                            <g id="Oval-2" opacity="0"></g>
                            <circle id="Oval-2" fill="url(#linearGradient-3)" mask="url(#mask-2)" cx="135" cy="135" r="135"></circle>
                            <polygon id="Mask" fill="url(#linearGradient-4)" mask="url(#mask-2)" points="284.331617 268.492538 197.284024 272.654671 134.904196 316.094182 -16.3 329 378 112.4"></polygon>
                        </g>
                    </g>
                    <g id="Слой_2" transform="translate(59.000000, 0.000000)">
                        <path d="M128.336066,58.942623 L203.581967,237.02459" id="Shape" stroke="url(#linearGradient-5)" stroke-width="3"></path>
                        <path d="M60.1967213,267.87541 C60.1967213,267.708197 60.1131148,267.457377 59.8622951,267.37377 C58.2737705,266.454098 56.4344262,266.036066 54.6786885,265.45082 C52.8393443,264.781967 51,263.945902 49.1606557,263.611475 C48.9934426,263.360656 48.5754098,263.277049 48.4081967,263.611475 C48.2409836,263.695082 48.157377,263.945902 48.2409836,264.196721 C46.7360656,269.631148 44.7295082,274.981967 43.5590164,280.583607 C41.9704918,287.940984 37.2885246,297.054098 37.204918,297.137705 C36.452459,300.063934 37.7065574,302.404918 38.4590164,305.331148 C39.295082,308.67541 41.1344262,314.862295 42.6393443,317.872131 C45.147541,322.888525 49.3278689,321.216393 52.6721311,320.380328 C56.4344262,321.968852 47.8229508,306.919672 47.404918,300.147541 C46.9032787,292.622951 52.9229508,281.754098 53.0065574,281.586885 C55.4311475,277.155738 59.3606557,271.052459 61.8688525,266.036066 C62.2032787,265.283607 60.6983607,267.62459 60.1967213,267.87541 Z" id="Shape" fill="#FFEBDF" fill-rule="nonzero"></path>
                        <path d="M148.652459,258.929508 C148.568852,258.929508 146.227869,259.932787 143.719672,260.016393 C142.54918,260.1 140.960656,248.645902 140.62623,245.301639 C139.957377,239.867213 138.619672,227.660656 137.532787,221.808197 C137.95082,220.804918 134.522951,225.319672 132.181967,225.654098 C130.17541,225.988525 128.085246,226.155738 126.329508,227.159016 C125.995082,227.07541 126.245902,230.085246 126.580328,230.921311 C126.914754,231.840984 133.268852,251.404918 135.52623,261.270492 C135.52623,261.437705 135.944262,268.795082 137.7,270.383607 C139.622951,272.139344 143.468852,269.213115 145.057377,267.457377 C146.060656,266.286885 146.645902,266.537705 152.414754,263.695082 C155.759016,262.022951 162.196721,258.344262 162.113115,256.504918 C162.029508,255.668852 162.865574,255.334426 156.260656,256.839344 C151.160656,258.009836 151.411475,258.009836 148.652459,258.929508 Z" id="Shape" fill="#FFEBDF" fill-rule="nonzero"></path>
                        <path d="M135.442623,191.62623 C135.442623,189.452459 114.540984,164.036066 106.180328,153.836066 C98.6557377,144.555738 89.2918033,133.603279 78.4229508,127.081967 C78.3393443,126.245902 77.5868852,125.577049 76.3327869,125.409836 C75.1622951,125.242623 74.3262295,125.744262 73.3229508,126.329508 C70.8147541,127.75082 67.9721311,129.422951 65.6311475,131.011475 C63.5409836,132.432787 61.7016393,134.104918 59.8622951,135.777049 C68.1393443,144.639344 66.3,155.257377 72.7377049,165.457377 C77.9213115,171.142623 87.1180328,178.583607 94.4754098,183.014754 C102.167213,187.696721 110.193443,193.8 117.467213,199.318033 C118.219672,199.903279 118.804918,200.488525 119.306557,201.240984 C119.222951,201.32459 120.393443,218.965574 126.245902,234.014754 C127.081967,236.104918 130.42623,234.683607 132.516393,234.265574 C135.693443,233.596721 140.040984,232.342623 139.622951,229.834426 C137.281967,217.795082 135.442623,191.960656 135.442623,191.62623 Z" id="Shape" fill="url(#linearGradient-6)" fill-rule="nonzero"></path>
                        <path d="M85.2786885,144.639344 C84.442623,140.793443 74.5770492,141.211475 70.8983607,142.465574 C65.2131148,144.388525 59.4442623,145.140984 53.5081967,146.311475 C53.0065574,146.395082 53.0065574,147.231148 53.5081967,147.231148 C53.5081967,147.231148 53.5081967,147.231148 53.5918033,147.231148 C46.8196721,158.016393 49.7459016,173.567213 51.6688525,185.272131 C53.0065574,193.54918 54.9295082,201.742623 57.1032787,209.768852 C58.6918033,215.537705 61.1163934,221.640984 60.9491803,227.660656 C60.9491803,228.831148 60.5311475,230.001639 59.8622951,231.004918 C58.6081967,232.760656 56.3508197,236.021311 56.3508197,236.188525 C53.9262295,240.452459 52.1704918,245.468852 50.8327869,250.15082 C49.3278689,255.167213 47.6557377,266.036066 47.6557377,266.119672 C47.4885246,268.209836 50.5819672,269.129508 52.0868852,269.714754 C54.7622951,270.801639 59.3606557,270.718033 60.5311475,269.213115 C60.5311475,269.213115 60.5311475,269.213115 60.5311475,269.213115 C77.3360656,230.670492 78.6737705,226.991803 78.5901639,225.821311 C78.5901639,225.403279 87.2852459,154.086885 85.2786885,144.639344 Z" id="Shape" fill="url(#linearGradient-7)" fill-rule="nonzero"></path>
                        <path d="M103.755738,55.2639344 C101.916393,52.0868852 98.6557377,48.4081967 100.077049,44.4786885 C100.913115,42.0540984 103.588525,40.2147541 104.842623,37.957377 C107.1,34.1114754 106.765574,29.7639344 105.845902,25.5 C104.842623,20.9852459 103.504918,16.1360656 100.327869,12.6245902 C95.3114754,7.10655738 83.7737705,2.42459016 76.5836066,6.10327869 C71.2327869,0.0836065574 61.4508197,-0.33442623 54.2606557,2.42459016 C46.4852459,5.35081967 40.8,12.6245902 40.3819672,20.9852459 C40.2147541,24.3295082 41.3016393,27.5901639 40.047541,30.8508197 C39.1278689,33.2754098 36.9540984,35.7836066 35.4491803,37.8737705 C32.104918,42.4721311 27.6737705,45.9836066 24.3295082,50.4983607 C21.9885246,53.6754098 20.3163934,57.3540984 20.7344262,61.3672131 C20.9016393,63.2065574 21.5704918,64.9622951 22.5737705,66.5508197 C23.6606557,68.3065574 27.4229508,70.5639344 27.4229508,72.4868852 C27.4229508,72.7377049 27.5065574,72.904918 27.5901639,73.0721311 C27.2557377,78.5901639 27.4229508,84.7770492 31.8540984,88.7901639 C35.1983607,91.8836066 39.2114754,91.7163934 42.9737705,90.295082 C43.2245902,90.6295082 43.7262295,90.8803279 44.1442623,90.5459016 C44.2278689,90.4622951 44.3114754,90.4622951 44.395082,90.3786885 C44.4786885,90.295082 44.5622951,90.2114754 44.6459016,90.1278689 C45.2311475,90.5459016 46.0672131,90.295082 47.2377049,89.542623 C48.2409836,89.4590164 49.3278689,89.3754098 50.3311475,89.2918033 C52.4213115,89.2081967 54.5114754,89.2081967 56.6016393,89.1245902 C59.7786885,89.1245902 62.9557377,89.0409836 66.1327869,88.6229508 C73.5737705,87.6196721 81.2655738,85.947541 88.5393443,84.0245902 C88.6229508,84.0245902 88.7065574,84.0245902 88.7901639,84.0245902 C96.4819672,82.5196721 109.859016,78.6737705 110.193443,68.7245902 C110.444262,64.1262295 106.013115,59.1098361 103.755738,55.2639344 Z" id="Shape" fill="url(#linearGradient-8)" fill-rule="nonzero"></path>
                        <path d="M46.9032787,103.337705 C45.2311475,102.083607 40.2147541,101.080328 38.2918033,101.916393 C35.9508197,102.836066 34.5295082,106.84918 33.3590164,108.772131 C33.2754098,108.939344 27.4229508,124.406557 27.0885246,126.998361 C27.004918,127.5 26.8377049,128.252459 27.004918,129.339344 C27.0885246,130.008197 27.0885246,130.677049 27.0885246,131.429508 C27.0885246,131.429508 27.0885246,131.429508 27.0885246,131.513115 C27.0885246,134.77377 27.004918,138.034426 27.1721311,141.295082 C27.3393443,148.067213 27.5065574,154.922951 28.0918033,161.611475 C28.2590164,163.116393 28.2590164,164.621311 28.0918033,166.12623 C28.0918033,166.544262 28.0081967,166.962295 27.9245902,167.380328 C27.5065574,169.554098 27.4229508,171.644262 26.7540984,173.734426 C26.0016393,175.991803 26.0016393,178.918033 27.0885246,181.17541 C29.5967213,186.442623 34.6131148,186.442623 39.1278689,183.85082 C39.2114754,183.767213 39.295082,183.767213 39.3786885,183.683607 C41.3852459,182.847541 41.8032787,181.342623 40.9672131,178.834426 C39.5459016,174.403279 35.6163934,166.12623 35.6163934,165.87541 C34.3622951,155.67541 35.2819672,129.590164 35.8672131,128.001639 C36.3688525,126.747541 39.2114754,121.145902 39.7967213,119.891803 C39.8803279,119.808197 39.8803279,119.72459 39.9639344,119.640984 C40.2147541,119.139344 41.9704918,116.213115 42.9737705,114.62459 C44.0606557,112.952459 45.2311475,111.280328 46.1508197,109.52459 C47.3213115,107.518033 49.1606557,105.009836 46.9032787,103.337705 Z" id="Shape" fill="#FFEBDF" fill-rule="nonzero"></path>
                        <path d="M1.00327869,110.778689 C1.42131148,110.778689 1.42131148,110.109836 1.00327869,110.109836 C0.585245902,110.193443 0.585245902,110.778689 1.00327869,110.778689 Z" id="Shape" fill="#FBED21" fill-rule="nonzero"></path>
                        <path d="M93.4721311,33.1918033 C92.0508197,28.8442623 86.1983607,23.8278689 85.8639344,23.6606557 C81.5163934,20.9016393 77.1688525,22.7409836 74.0754098,26.1688525 C71.7344262,28.7606557 70.647541,32.6065574 67.7213115,34.2786885 C65.7147541,35.4491803 60.6147541,37.8737705 57.8557377,37.2885246 C54.595082,31.9377049 48.3245902,35.4491803 51,42.6393443 C53.0901639,48.3245902 56.852459,44.3114754 59.6114754,54.0098361 C60.3639344,56.6016393 61.5344262,59.2770492 61.952459,61.952459 C62.704918,66.8852459 60.447541,71.0655738 57.4377049,74.9114754 C57.1032787,75.3295082 57.1868852,75.8311475 57.4377049,76.1655738 C58.2737705,84.5262295 66.6344262,90.7967213 74.4098361,91.8836066 C83.0213115,93.1377049 87.1180328,83.7737705 85.4459016,76.4163934 C85.2786885,75.6639344 84.6098361,75.5803279 84.1081967,75.747541 C84.1081967,75.747541 84.0245902,75.6639344 84.0245902,75.6639344 C81.9344262,74.9114754 79.6770492,74.1590164 78.1721311,72.4868852 C76.5836066,70.7311475 76.0819672,66.9688525 77.6704918,65.0459016 C77.7540984,65.0459016 79.4262295,63.5409836 79.5098361,63.5409836 C83.6901639,62.3704918 85.947541,61.4508197 89.0409836,58.4409836 C92.6360656,54.9295082 93.6393443,51.1672131 94.3081967,46.2344262 C94.8098361,41.8868852 94.8098361,37.3721311 93.4721311,33.1918033 Z" id="Shape" fill="#FFE2D1" fill-rule="nonzero"></path>
                        <path d="M93.4721311,33.1918033 C92.0508197,28.8442623 86.1983607,23.8278689 85.8639344,23.6606557 C81.5163934,20.9016393 77.1688525,22.7409836 74.0754098,26.1688525 C71.7344262,28.7606557 69.8114754,32.6065574 66.8852459,34.2786885 C65.4639344,35.1147541 62.7885246,36.6196721 60.3639344,37.204918 C59.1098361,37.4557377 57.8557377,37.0377049 56.9360656,36.1180328 C53.5918033,32.6901639 48.5754098,36.1180328 51,42.7229508 C53.0901639,48.4081967 56.852459,44.395082 59.6114754,54.0934426 C60.3639344,56.6852459 61.5344262,59.3606557 61.952459,62.0360656 C62.704918,66.9688525 60.447541,71.1491803 57.4377049,74.995082 C57.1868852,75.2459016 57.1868852,75.5803279 57.2704918,75.9147541 C57.3540984,76.1655738 57.4377049,76.5 57.5213115,76.7508197 C58.6918033,84.8606557 66.8016393,90.7967213 74.4098361,91.9672131 C83.0213115,93.2213115 87.1180328,83.857377 85.4459016,76.5 C85.2786885,75.747541 84.6098361,75.6639344 84.1081967,75.8311475 C84.1081967,75.8311475 84.0245902,75.747541 84.0245902,75.747541 C81.9344262,74.995082 79.6770492,74.242623 78.1721311,72.5704918 C76.8344262,71.0655738 76.2491803,67.9721311 77.1688525,65.8819672 C77.3360656,65.4639344 77.6704918,65.1295082 78.004918,64.795082 C78.5065574,64.3770492 79.342623,63.5409836 79.4262295,63.5409836 C83.6065574,62.3704918 85.8639344,61.4508197 88.957377,58.4409836 C92.552459,54.9295082 93.5557377,51.1672131 94.2245902,46.2344262 C94.8098361,41.8868852 94.8098361,37.3721311 93.4721311,33.1918033 Z" id="Shape" fill="#FFEBDF" fill-rule="nonzero"></path>
                        <path d="M148.318033,91.2147541 C148.652459,90.2114754 149.070492,89.2081967 149.237705,88.204918 C149.990164,83.7737705 145.977049,80.5967213 142.54918,79.5098361 C142.214754,79.4262295 141.963934,79.342623 141.713115,79.342623 C141.713115,79.342623 141.713115,79.342623 141.629508,79.342623 C140.459016,79.1754098 139.372131,79.5934426 138.452459,80.2622951 C138.118033,80.5131148 137.7,80.847541 137.365574,81.1819672 C137.281967,81.2655738 137.281967,81.2655738 137.198361,81.2655738 C137.031148,81.4327869 136.947541,81.6 136.780328,81.7672131 C135.944262,82.7704918 135.191803,83.9409836 134.439344,84.9442623 C133.603279,86.1147541 132.181967,87.6196721 132.516393,89.2081967 C132.683607,90.0442623 133.603279,90.7967213 134.021311,91.3819672 C135.02459,92.6360656 135.944262,93.9737705 136.863934,95.2278689 C136.445902,95.8131148 136.027869,96.3983607 135.609836,96.9836066 C135.609836,96.9836066 135.609836,96.9836066 135.609836,96.9836066 C135.52623,97.1508197 135.442623,97.2344262 135.359016,97.4016393 C135.359016,97.4852459 135.27541,97.4852459 135.27541,97.5688525 C135.191803,97.652459 135.191803,97.7360656 135.108197,97.8196721 C135.02459,97.9032787 135.02459,97.9032787 134.940984,97.9868852 C134.940984,97.9868852 134.940984,97.9868852 134.940984,97.9868852 C134.940984,97.9868852 134.940984,97.9868852 134.940984,97.9868852 C133.268852,100.077049 131.680328,102.25082 130.008197,104.340984 C128.252459,106.514754 123.654098,112.116393 122.901639,112.2 C121.396721,112.534426 106.681967,98.8229508 106.096721,96.4819672 C106.013115,96.2311475 99.6590164,103.588525 99.8262295,103.672131 C100.913115,107.016393 107.685246,113.704918 110.862295,116.380328 C113.621311,118.637705 116.296721,120.895082 120.393443,123.403279 C126.747541,127.24918 134.272131,113.119672 136.027869,110.193443 C137.867213,107.016393 140.040984,103.922951 141.963934,100.829508 C142.047541,100.662295 142.131148,100.495082 142.298361,100.327869 C142.298361,100.327869 142.298361,100.327869 142.298361,100.327869 C142.298361,100.327869 142.298361,100.244262 142.381967,100.244262 C142.381967,100.160656 142.465574,100.160656 142.465574,100.077049 C142.465574,99.9934426 142.54918,99.9934426 142.54918,99.9098361 C142.716393,99.6590164 142.8,99.4918033 142.967213,99.2409836 C143.05082,99.157377 143.05082,99.0737705 143.134426,98.9901639 C143.301639,98.6557377 143.468852,98.404918 143.636066,98.0704918 C144.890164,97.2344262 146.395082,96.3983607 147.231148,95.1442623 C147.732787,94.1409836 147.9,92.552459 148.318033,91.2147541 Z" id="Shape" fill="#FFEBDF" fill-rule="nonzero"></path>
                        <path d="M108.604918,97.4016393 C108.688525,97.1508197 108.604918,96.9 108.354098,96.7327869 C103.588525,92.552459 100.160656,87.5360656 96.3147541,82.6032787 C93.304918,78.8409836 89.542623,75.4967213 84.442623,75.5803279 C84.442623,75.5803279 84.3590164,75.5803279 84.3590164,75.5803279 C83.9409836,75.3295082 83.2721311,75.5803279 83.1885246,76.1655738 C82.8540984,80.1786885 84.1081967,84.1918033 82.1852459,87.9540984 C79.6770492,92.8032787 74.1590164,92.3016393 69.895082,90.0442623 C63.7918033,86.8672131 59.695082,81.4327869 57.3540984,75.0786885 C56.0163934,74.3262295 46.5688525,80.2622951 42.6393443,86.8672131 C34.2786885,101.080328 35.1147541,101.080328 33.442623,105.260656 C31.6032787,109.942623 42.6393443,113.621311 46.8196721,112.785246 C47.0704918,112.701639 50.4147541,107.016393 51,105.260656 C52.4213115,107.852459 53.9262295,112.618033 54.7622951,115.544262 C55.7655738,119.390164 55.8491803,123.319672 55.6819672,127.24918 C55.5147541,134.522951 55.0131148,141.796721 50.6655738,147.9 C50.6655738,147.9 50.5819672,149.237705 51,149.572131 C63.6245902,160.190164 87.0344262,157.347541 97.2344262,144.221311 C97.4016393,143.970492 97.9868852,142.883607 97.652459,142.465574 C92.8032787,135.442623 91.047541,123.904918 94.4754098,116.045902 C95.7295082,113.119672 97.9868852,110.695082 97.7360656,107.267213 C97.7360656,106.765574 97.652459,106.263934 97.5688525,105.845902 C102.25082,106.598361 107.1,101.665574 108.604918,97.7360656 C108.688525,97.652459 108.688525,97.4852459 108.604918,97.4016393 Z" id="Shape" fill="url(#linearGradient-9)" fill-rule="nonzero"></path>
                    </g>
                </g>
            </g>
        </g>
    </g>
</svg>