<svg xmlns="http://www.w3.org/2000/svg" width="40" height="40" viewBox="0 0 40 40">
    <defs>
        <linearGradient id="a" x1="82.512%" x2="12.414%" y1="0%" y2="93.443%">
            <stop offset="0%" stop-color="#FFECA8"/>
            <stop offset="100%" stop-color="#F7A96C" stop-opacity=".888"/>
        </linearGradient>
    </defs>
    <path fill="url(#a)" fill-rule="evenodd" d="M19.995 31.492c-6.35 0-11.497-5.147-11.497-11.497S13.645 8.498 19.995 8.498s11.497 5.147 11.497 11.497-5.147 11.497-11.497 11.497zm0-31.492c.95 0 1.7.75 1.7 1.7v2.799c0 .95-.75 1.7-1.7 1.7s-1.7-.75-1.7-1.7v-2.8c0-.95.75-1.699 1.7-1.699zm0 33.792c.95 0 1.7.75 1.7 1.7v2.799c0 .95-.75 1.7-1.7 1.7s-1.7-.75-1.7-1.7v-2.8c0-.95.75-1.7 1.7-1.7zM39.99 19.995c0 .95-.75 1.7-1.7 1.7h-2.799c-.95 0-1.7-.75-1.7-1.7s.75-1.7 1.7-1.7h2.8c.95 0 1.7.75 1.7 1.7zm-33.791 0c0 .95-.75 1.7-1.7 1.7h-2.8c-.95 0-1.699-.75-1.699-1.7s.75-1.7 1.7-1.7h2.799c.95 0 1.7.75 1.7 1.7zM34.142 5.85c.65.65.65 1.75 0 2.399l-2 2c-.65.65-1.75.65-2.4 0a1.72 1.72 0 0 1 0-2.4l2-2a1.72 1.72 0 0 1 2.4 0zM10.247 29.743c.65.7.65 1.75 0 2.4l-1.999 1.999c-.65.65-1.75.65-2.4 0a1.72 1.72 0 0 1 0-2.4l2-2a1.72 1.72 0 0 1 2.4 0zm23.895 4.399c-.65.65-1.75.65-2.4 0l-2-2a1.72 1.72 0 0 1 0-2.4 1.72 1.72 0 0 1 2.4 0l2 2c.65.65.65 1.75 0 2.4zM10.247 10.247c-.7.65-1.75.65-2.399 0l-2-1.999a1.72 1.72 0 0 1 0-2.4 1.72 1.72 0 0 1 2.4 0l2 2c.65.65.65 1.75 0 2.4z"/>
</svg>
