<svg xmlns="http://www.w3.org/2000/svg" xmlns:xlink="http://www.w3.org/1999/xlink" width="15" height="22" viewBox="0 0 15 22">
    <defs>
        <path id="a" d="M11.849 9.101v-3.9C11.849 2.333 9.611 0 6.86 0 4.11 0 1.87 2.333 1.87 5.2v3.901c-1.03 0-1.87.875-1.87 1.95v7.802c0 1.075.84 1.95 1.87 1.95h9.979c1.032 0 1.87-.875 1.87-1.95v-7.801c0-1.076-.838-1.95-1.87-1.95zm-8.73-3.9c0-2.151 1.677-3.9 3.741-3.9s3.742 1.749 3.742 3.9v3.9H3.118v-3.9zm9.354 13.652c0 .358-.28.65-.624.65H1.871a.638.638 0 0 1-.624-.65v-7.801c0-.36.28-.65.624-.65h9.978c.344 0 .624.29.624.65v7.8zm-4.99-4.37v-1.481c0-.36-.279-.65-.623-.65a.637.637 0 0 0-.624.65v1.48c-.37.226-.623.64-.623 1.12 0 .718.558 1.3 1.247 1.3.688 0 1.247-.582 1.247-1.3 0-.48-.252-.894-.623-1.12z"/>
    </defs>
    <g fill="none" fill-rule="evenodd" transform="translate(.671 .76)">
        <mask id="b" fill="#fff">
            <use xlink:href="#a"/>
        </mask>
        <path fill="#FFF" d="M-5.536 26.277h24.792V-5.474H-5.536z" mask="url(#b)"/>
    </g>
</svg>
