<svg xmlns="http://www.w3.org/2000/svg" width="14" height="14" viewBox="0 0 14 14">
    <path fill="#FFF" fill-rule="nonzero" d="M13.938 5.542a.436.436 0 0 1 .054.211c-.011 4.249-1.742 7.76-1.76 7.795-.144.272-.376.436-.868.436H8.756c-1.312 0-2.612-.31-2.646-.319-1.982-.478-2.088-.518-2.212-.555 0 0-.403-.068-.403-.437l-.003-6.898c0-.234.159-.441.396-.516 2.25-.927 3.085-3.103 3.105-4.827A.437.437 0 0 1 7.429 0c.506.012 1.313.872 1.313 2.183 0 1.184-.046 1.39-.443 2.624 3.065 0 4.818.38 5.19.428a.665.665 0 0 1 .449.306zm-12.627-.3a.43.43 0 0 1 .437.43v7.866a.437.437 0 0 1-.437.437l-.874.01A.437.437 0 0 1 0 13.546V5.68c0-.242.195-.437.437-.437h.874z"/>
</svg>
