<svg xmlns="http://www.w3.org/2000/svg" width="24" height="20" viewBox="0 0 24 20">
    <defs>
        <linearGradient id="a" x1="0%" y1="51.224%" y2="51.224%">
            <stop offset="0%" stop-color="#E3EFFD"/>
            <stop offset="100%" stop-color="#F7F9FE"/>
        </linearGradient>
    </defs>
    <g fill="none" fill-rule="evenodd">
        <path fill="url(#a)" d="M1360 7806.82c-240.544 24.125-490.607 32-750.188 23.626-259.58-8.374-462.851-4.19-609.812 12.554v-782.463c185.016-25.929 426.14-32.112 723.375-18.552 297.234 13.56 509.443 16.228 636.625 8.003v756.831z" transform="translate(-879 -7226)"/>
        <path fill="#4DC9E9" fill-rule="nonzero" d="M23.296 2.265a9.875 9.875 0 0 1-2.752.762A4.791 4.791 0 0 0 22.645.36a9.483 9.483 0 0 1-3.028 1.169A4.762 4.762 0 0 0 16.128 0c-2.644 0-4.773 2.17-4.773 4.828 0 .383.033.75.111 1.101-3.97-.196-7.484-2.12-9.844-5.049a4.9 4.9 0 0 0-.654 2.44c0 1.672.852 3.154 2.122 4.011a4.678 4.678 0 0 1-2.158-.594v.053c0 2.346 1.655 4.294 3.826 4.743a4.72 4.72 0 0 1-1.252.159 4.18 4.18 0 0 1-.904-.083c.619 1.912 2.375 3.317 4.463 3.363a9.532 9.532 0 0 1-5.922 2.059c-.392 0-.767-.018-1.143-.066a13.342 13.342 0 0 0 7.327 2.166c8.788 0 13.593-7.358 13.593-13.736 0-.214-.007-.42-.017-.624a9.585 9.585 0 0 0 2.393-2.506z"/>
    </g>
</svg>
