<svg xmlns="http://www.w3.org/2000/svg" width="21" height="21" viewBox="0 0 21 21">
    <defs>
        <linearGradient id="a" x1="0%" y1="51.224%" y2="51.224%">
            <stop offset="0%" stop-color="#E3EFFD"/>
            <stop offset="100%" stop-color="#F7F9FE"/>
        </linearGradient>
    </defs>
    <g fill="none" fill-rule="evenodd">
        <path fill="url(#a)" d="M1360 7806.82c-240.544 24.125-490.607 32-750.188 23.626-259.58-8.374-462.851-4.19-609.812 12.554v-782.463c185.016-25.929 426.14-32.112 723.375-18.552 297.234 13.56 509.443 16.228 636.625 8.003v756.831z" transform="translate(-879 -7190)"/>
        <path fill="#CD2E52" fill-rule="nonzero" d="M14.285 0H6.493C2.908 0 0 2.939 0 6.563v7.875C0 18.06 2.908 21 6.493 21h7.792c3.585 0 6.493-2.939 6.493-6.563V6.564C20.778 2.938 17.87 0 14.285 0zm4.545 14.438c0 2.533-2.039 4.593-4.545 4.593H6.493c-2.506 0-4.545-2.06-4.545-4.593V6.561c0-2.533 2.039-4.593 4.545-4.593h7.792c2.506 0 4.545 2.06 4.545 4.593v7.875zM10.389 5.25c-2.869 0-5.195 2.35-5.195 5.25s2.326 5.25 5.195 5.25 5.194-2.35 5.194-5.25-2.325-5.25-5.194-5.25zm0 8.531c-1.79 0-3.247-1.472-3.247-3.281 0-1.81 1.457-3.281 3.247-3.281 1.79 0 3.246 1.471 3.246 3.281 0 1.809-1.457 3.281-3.246 3.281zm5.584-8.225a.696.696 0 0 1-.692-.7c0-.386.31-.7.692-.7.382 0 .692.314.692.7 0 .387-.31.7-.692.7z"/>
    </g>
</svg>
