<svg xmlns="http://www.w3.org/2000/svg" width="33" height="33" viewBox="0 0 33 33">
    <path fill="#D5DEED" fill-rule="nonzero" d="M22.611 0H10.278C4.602 0 0 4.61 0 10.297v12.356c0 5.685 4.602 10.296 10.278 10.296H22.61c5.675 0 10.278-4.61 10.278-10.296V10.297C32.889 4.61 28.286 0 22.61 0zm7.195 22.653c0 3.974-3.228 7.207-7.195 7.207H10.278c-3.967 0-7.195-3.233-7.195-7.207V10.297c0-3.975 3.228-7.208 7.195-7.208H22.61c3.967 0 7.195 3.233 7.195 7.208v12.356zM16.444 8.237c-4.54 0-8.222 3.689-8.222 8.238 0 4.549 3.682 8.237 8.222 8.237 4.541 0 8.223-3.688 8.223-8.237 0-4.55-3.682-8.238-8.223-8.238zm0 13.386c-2.832 0-5.138-2.31-5.138-5.148 0-2.84 2.306-5.149 5.138-5.149 2.833 0 5.14 2.309 5.14 5.149 0 2.837-2.307 5.148-5.14 5.148zm8.84-12.906a1.097 1.097 0 1 1 .001-2.193 1.097 1.097 0 0 1-.002 2.193z"/>
</svg>
