<svg xmlns="http://www.w3.org/2000/svg" width="37" height="32" viewBox="0 0 37 32">
    <path fill="#D5DEED" fill-rule="nonzero" d="M37 4.555a15.485 15.485 0 0 1-4.37 1.231 7.716 7.716 0 0 0 3.336-4.308 14.915 14.915 0 0 1-4.81 1.887C29.764 1.842 27.78.898 25.616.898c-4.2 0-7.58 3.503-7.58 7.796 0 .618.05 1.212.175 1.778-6.306-.316-11.886-3.422-15.635-8.153a8.013 8.013 0 0 0-1.038 3.94c0 2.7 1.353 5.092 3.37 6.477-1.22-.024-2.415-.387-3.428-.96v.086c0 3.787 2.63 6.933 6.077 7.658a7.38 7.38 0 0 1-1.989.257c-.485 0-.975-.029-1.436-.133.983 3.086 3.772 5.356 7.088 5.43a14.984 14.984 0 0 1-9.405 3.323c-.622 0-1.218-.028-1.815-.107a20.942 20.942 0 0 0 11.636 3.498c13.959 0 21.59-11.88 21.59-22.179 0-.344-.012-.677-.028-1.007 1.506-1.098 2.77-2.47 3.802-4.047z"/>
</svg>
