<svg xmlns="http://www.w3.org/2000/svg" width="30" height="25" viewBox="0 0 30 25">
    <path fill="#D5DEED" fill-rule="nonzero" d="M30 2.96a12.574 12.574 0 0 1-3.544.996A6.247 6.247 0 0 0 29.162.469a12.106 12.106 0 0 1-3.9 1.527A6.092 6.092 0 0 0 20.769 0c-3.405 0-6.146 2.835-6.146 6.31 0 .5.041.98.143 1.438-5.113-.256-9.638-2.77-12.677-6.598a6.476 6.476 0 0 0-.842 3.188 6.361 6.361 0 0 0 2.732 5.243A5.958 5.958 0 0 1 1.2 8.804v.07c0 3.064 2.132 5.61 4.927 6.197-.5.14-1.046.208-1.612.208-.394 0-.791-.023-1.164-.108.797 2.498 3.058 4.335 5.746 4.394a12.163 12.163 0 0 1-7.625 2.69c-.504 0-.988-.022-1.472-.086A17.002 17.002 0 0 0 9.435 25C20.752 25 26.94 15.385 26.94 7.05c0-.279-.01-.548-.023-.815C28.138 5.346 29.164 4.237 30 2.96z"/>
</svg>
